<svg xmlns="http://www.w3.org/2000/svg" width="2048" height="2048" viewBox="0 0 64 64" role="img" aria-label="Seams Commerce Harness rotated mark">
<defs>
<filter id="grain" x="0" y="0" width="100%" height="100%" color-interpolation-filters="sRGB">
  <feTurbulence type="fractalNoise" baseFrequency="1.25" numOctaves="3" seed="17" result="noise"/>
  <feColorMatrix in="noise" type="matrix" values="0 0 0 0 0.5 0 0 0 0 0.5 0 0 0 0 0.5 0 0 0 .28 0" result="grainAlpha"/>
  <feBlend in="SourceGraphic" in2="grainAlpha" mode="overlay"/>
</filter>
<pattern id="weave" width="0.8" height="0.8" patternUnits="userSpaceOnUse">
  <path d="M0 0.2H0.8M0.2 0V0.8" stroke="#fff" stroke-opacity="0.055" stroke-width="0.035"/>
</pattern>
<linearGradient id="topoBase" x1="0" y1="0" x2="1" y2="1">
  <stop offset="0" stop-color="#d0bd94"/>
  <stop offset="0.32" stop-color="#5a8794"/>
  <stop offset="0.64" stop-color="#4e2330"/>
  <stop offset="1" stop-color="#cc5439"/>
</linearGradient>
<radialGradient id="topoWarm" cx="22%" cy="42%" r="52%">
  <stop offset="0" stop-color="#eba34f" stop-opacity="0.46"/>
  <stop offset="1" stop-color="#eba34f" stop-opacity="0"/>
</radialGradient>
</defs>
<rect width="64" height="64" fill="url(#topoBase)" filter="url(#grain)"/>
<rect width="64" height="64" fill="url(#topoWarm)"/>
<rect width="64" height="64" fill="url(#weave)"/>
<g opacity="1">
    <path d="M37.704 32.000 L37.653 32.128 L37.586 32.254 L37.505 32.375 L37.418 32.493 L37.329 32.608 L37.243 32.721 L37.164 32.832 L37.094 32.944 L37.036 33.057 L36.987 33.173 L36.947 33.292 L36.911 33.415 L36.876 33.540 L36.836 33.666 L36.788 33.793 L36.727 33.917 L36.651 34.036 L36.557 34.150 L36.446 34.256 L36.318 34.353 L36.175 34.441 L36.022 34.521 L35.861 34.594 L35.696 34.661 L35.530 34.727 L35.366 34.792 L35.206 34.859 L35.051 34.930 L34.899 35.005 L34.749 35.086 L34.600 35.172 L34.449 35.259 L34.294 35.347 L34.133 35.431 L33.963 35.508 L33.785 35.576 L33.599 35.630 L33.405 35.668 L33.205 35.691 L33.002 35.697 L32.797 35.688 L32.593 35.666 L32.391 35.634 L32.194 35.595 L32.000 35.554 L31.810 35.514 L31.624 35.478 L31.440 35.448 L31.256 35.426 L31.070 35.410 L30.883 35.400 L30.693 35.394 L30.500 35.389 L30.305 35.381 L30.110 35.367 L29.917 35.345 L29.728 35.312 L29.545 35.267 L29.371 35.209 L29.207 35.140 L29.053 35.060 L28.909 34.971 L28.773 34.878 L28.644 34.782 L28.518 34.687 L28.392 34.593 L28.262 34.504 L28.128 34.420 L27.986 34.339 L27.837 34.262 L27.681 34.187 L27.520 34.111 L27.359 34.032 L27.200 33.949 L27.049 33.859 L26.910 33.761 L26.788 33.654 L26.687 33.540 L26.608 33.418 L26.552 33.291 L26.517 33.159 L26.503 33.025 L26.503 32.890 L26.515 32.757 L26.533 32.625 L26.552 32.496 L26.568 32.370 L26.578 32.246 L26.579 32.123 L26.573 32.000 L26.559 31.877 L26.543 31.753 L26.526 31.627 L26.514 31.500 L26.512 31.372 L26.523 31.244 L26.552 31.118 L26.599 30.995 L26.667 30.875 L26.753 30.761 L26.856 30.652 L26.972 30.549 L27.096 30.451 L27.224 30.356 L27.352 30.264 L27.476 30.172 L27.592 30.078 L27.701 29.981 L27.801 29.879 L27.894 29.771 L27.983 29.659 L28.070 29.542 L28.161 29.422 L28.258 29.303 L28.366 29.187 L28.486 29.077 L28.621 28.975 L28.771 28.886 L28.936 28.809 L29.113 28.746 L29.300 28.697 L29.494 28.660 L29.693 28.633 L29.893 28.613 L30.092 28.598 L30.288 28.584 L30.482 28.568 L30.672 28.548 L30.860 28.523 L31.046 28.493 L31.233 28.460 L31.420 28.424 L31.611 28.388 L31.804 28.357 L32.000 28.333 L32.198 28.318 L32.396 28.317 L32.594 28.330 L32.788 28.358 L32.978 28.400 L33.161 28.454 L33.338 28.519 L33.509 28.590 L33.674 28.665 L33.835 28.739 L33.994 28.810 L34.153 28.875 L34.315 28.933 L34.482 28.984 L34.655 29.028 L34.834 29.067 L35.019 29.103 L35.208 29.140 L35.398 29.180 L35.586 29.227 L35.768 29.282 L35.941 29.348 L36.101 29.426 L36.246 29.514 L36.375 29.614 L36.487 29.722 L36.584 29.836 L36.668 29.955 L36.742 30.077 L36.811 30.198 L36.879 30.318 L36.948 30.436 L37.022 30.551 L37.102 30.664 L37.189 30.775 L37.280 30.887 L37.374 31.000 L37.466 31.115 L37.551 31.233 L37.626 31.355 L37.685 31.480 L37.723 31.609 L37.740 31.739 L37.733 31.870 L37.704 32.000 Z" fill="none" stroke="#fff" stroke-opacity="0.18" stroke-width="0.055"/>
    <path d="M39.370 32.000 L39.307 32.165 L39.237 32.328 L39.165 32.487 L39.095 32.645 L39.031 32.802 L38.975 32.959 L38.928 33.117 L38.889 33.278 L38.856 33.442 L38.823 33.608 L38.788 33.777 L38.744 33.947 L38.688 34.117 L38.614 34.283 L38.521 34.446 L38.407 34.601 L38.270 34.748 L38.114 34.886 L37.939 35.014 L37.751 35.134 L37.552 35.245 L37.347 35.350 L37.139 35.452 L36.931 35.551 L36.726 35.651 L36.523 35.753 L36.324 35.858 L36.126 35.967 L35.927 36.077 L35.725 36.187 L35.518 36.296 L35.303 36.399 L35.079 36.494 L34.845 36.578 L34.602 36.647 L34.349 36.700 L34.090 36.736 L33.825 36.756 L33.558 36.760 L33.291 36.752 L33.026 36.734 L32.764 36.710 L32.506 36.683 L32.251 36.658 L32.000 36.636 L31.751 36.621 L31.501 36.611 L31.251 36.609 L30.999 36.610 L30.743 36.614 L30.485 36.617 L30.225 36.616 L29.963 36.607 L29.703 36.587 L29.447 36.554 L29.196 36.506 L28.953 36.443 L28.720 36.366 L28.497 36.277 L28.284 36.177 L28.079 36.070 L27.882 35.959 L27.689 35.846 L27.498 35.734 L27.306 35.625 L27.111 35.518 L26.912 35.415 L26.708 35.313 L26.502 35.211 L26.294 35.108 L26.088 35.000 L25.888 34.885 L25.699 34.763 L25.525 34.631 L25.371 34.489 L25.239 34.338 L25.130 34.179 L25.046 34.013 L24.984 33.842 L24.943 33.668 L24.917 33.493 L24.903 33.320 L24.895 33.148 L24.888 32.979 L24.878 32.813 L24.863 32.649 L24.840 32.487 L24.810 32.325 L24.774 32.163 L24.737 32.000 L24.701 31.835 L24.672 31.668 L24.655 31.499 L24.654 31.330 L24.672 31.162 L24.712 30.995 L24.774 30.831 L24.857 30.671 L24.959 30.516 L25.076 30.366 L25.204 30.220 L25.338 30.078 L25.475 29.939 L25.609 29.800 L25.740 29.660 L25.865 29.518 L25.984 29.372 L26.100 29.223 L26.214 29.070 L26.331 28.915 L26.455 28.759 L26.588 28.606 L26.736 28.457 L26.899 28.317 L27.080 28.187 L27.280 28.070 L27.496 27.968 L27.727 27.880 L27.970 27.807 L28.221 27.748 L28.478 27.699 L28.736 27.658 L28.994 27.622 L29.250 27.587 L29.501 27.552 L29.750 27.513 L29.995 27.470 L30.239 27.423 L30.482 27.373 L30.727 27.322 L30.975 27.272 L31.227 27.227 L31.482 27.191 L31.740 27.165 L32.000 27.153 L32.261 27.156 L32.520 27.174 L32.776 27.208 L33.028 27.254 L33.275 27.312 L33.517 27.377 L33.754 27.445 L33.987 27.515 L34.218 27.582 L34.450 27.645 L34.684 27.702 L34.922 27.753 L35.164 27.800 L35.412 27.844 L35.663 27.888 L35.916 27.935 L36.169 27.989 L36.418 28.051 L36.658 28.126 L36.888 28.213 L37.103 28.315 L37.301 28.431 L37.481 28.559 L37.643 28.697 L37.789 28.844 L37.919 28.997 L38.039 29.152 L38.151 29.308 L38.260 29.463 L38.368 29.616 L38.479 29.767 L38.594 29.915 L38.713 30.062 L38.835 30.209 L38.956 30.358 L39.074 30.508 L39.184 30.663 L39.281 30.821 L39.360 30.984 L39.419 31.150 L39.454 31.320 L39.466 31.490 L39.454 31.662 L39.421 31.832 L39.370 32.000 Z" fill="none" stroke="#fff" stroke-opacity="0.18" stroke-width="0.055"/>
    <path d="M41.088 32.000 L41.045 32.205 L41.002 32.407 L40.963 32.610 L40.929 32.812 L40.902 33.016 L40.879 33.222 L40.857 33.431 L40.833 33.642 L40.801 33.855 L40.757 34.069 L40.694 34.281 L40.611 34.490 L40.503 34.695 L40.369 34.892 L40.210 35.080 L40.027 35.259 L39.823 35.428 L39.602 35.587 L39.368 35.737 L39.127 35.881 L38.882 36.019 L38.635 36.155 L38.390 36.290 L38.147 36.426 L37.906 36.563 L37.666 36.702 L37.425 36.842 L37.179 36.981 L36.927 37.116 L36.666 37.246 L36.394 37.366 L36.111 37.474 L35.817 37.567 L35.512 37.644 L35.198 37.704 L34.878 37.748 L34.553 37.777 L34.228 37.793 L33.902 37.800 L33.579 37.801 L33.259 37.799 L32.942 37.798 L32.627 37.801 L32.313 37.808 L32.000 37.821 L31.685 37.839 L31.367 37.859 L31.046 37.879 L30.722 37.896 L30.395 37.906 L30.066 37.905 L29.738 37.890 L29.413 37.859 L29.093 37.811 L28.781 37.745 L28.478 37.662 L28.185 37.565 L27.902 37.455 L27.629 37.336 L27.363 37.210 L27.104 37.082 L26.848 36.953 L26.593 36.825 L26.337 36.699 L26.080 36.575 L25.821 36.451 L25.561 36.326 L25.303 36.197 L25.049 36.063 L24.803 35.922 L24.571 35.771 L24.354 35.609 L24.159 35.437 L23.986 35.254 L23.837 35.061 L23.713 34.861 L23.611 34.656 L23.529 34.447 L23.462 34.237 L23.407 34.027 L23.357 33.819 L23.308 33.614 L23.257 33.411 L23.200 33.211 L23.137 33.011 L23.069 32.813 L22.997 32.613 L22.925 32.411 L22.857 32.207 L22.799 32.000 L22.756 31.791 L22.732 31.579 L22.731 31.368 L22.754 31.156 L22.803 30.947 L22.876 30.741 L22.971 30.539 L23.085 30.341 L23.212 30.148 L23.349 29.958 L23.490 29.771 L23.633 29.586 L23.775 29.400 L23.913 29.213 L24.050 29.025 L24.186 28.834 L24.324 28.641 L24.467 28.448 L24.620 28.257 L24.787 28.069 L24.970 27.887 L25.173 27.715 L25.396 27.554 L25.639 27.408 L25.901 27.276 L26.180 27.160 L26.472 27.058 L26.773 26.970 L27.081 26.892 L27.390 26.822 L27.699 26.757 L28.006 26.694 L28.309 26.630 L28.608 26.563 L28.904 26.493 L29.200 26.418 L29.495 26.342 L29.793 26.265 L30.095 26.190 L30.402 26.122 L30.714 26.063 L31.031 26.016 L31.352 25.984 L31.675 25.968 L32.000 25.969 L32.324 25.986 L32.645 26.018 L32.963 26.061 L33.276 26.114 L33.586 26.172 L33.893 26.232 L34.197 26.291 L34.502 26.348 L34.808 26.402 L35.117 26.452 L35.429 26.500 L35.744 26.548 L36.061 26.599 L36.378 26.656 L36.693 26.721 L37.002 26.799 L37.302 26.892 L37.589 27.000 L37.860 27.124 L38.113 27.265 L38.347 27.419 L38.561 27.585 L38.759 27.761 L38.941 27.943 L39.111 28.129 L39.272 28.315 L39.430 28.501 L39.586 28.684 L39.743 28.865 L39.903 29.043 L40.066 29.221 L40.230 29.398 L40.393 29.577 L40.551 29.760 L40.699 29.946 L40.833 30.138 L40.949 30.335 L41.043 30.537 L41.112 30.743 L41.158 30.952 L41.179 31.163 L41.179 31.374 L41.160 31.585 L41.129 31.793 L41.088 32.000 Z" fill="none" stroke="#fff" stroke-opacity="0.18" stroke-width="0.055"/>
    <path d="M42.930 32.000 L42.921 32.247 L42.914 32.494 L42.909 32.743 L42.905 32.993 L42.898 33.246 L42.883 33.501 L42.857 33.757 L42.812 34.013 L42.746 34.268 L42.654 34.520 L42.534 34.766 L42.384 35.005 L42.206 35.235 L42.001 35.455 L41.773 35.665 L41.527 35.865 L41.266 36.056 L40.996 36.240 L40.722 36.419 L40.446 36.595 L40.171 36.769 L39.898 36.943 L39.626 37.118 L39.354 37.294 L39.080 37.470 L38.801 37.644 L38.513 37.814 L38.216 37.978 L37.905 38.132 L37.582 38.274 L37.244 38.401 L36.894 38.512 L36.533 38.605 L36.162 38.683 L35.786 38.745 L35.406 38.795 L35.025 38.836 L34.644 38.870 L34.265 38.901 L33.887 38.931 L33.512 38.964 L33.136 39.000 L32.760 39.040 L32.382 39.082 L32.000 39.124 L31.614 39.163 L31.224 39.195 L30.831 39.217 L30.436 39.226 L30.041 39.217 L29.648 39.190 L29.259 39.142 L28.878 39.074 L28.505 38.987 L28.143 38.882 L27.791 38.764 L27.449 38.635 L27.115 38.498 L26.788 38.358 L26.466 38.216 L26.147 38.073 L25.828 37.932 L25.510 37.792 L25.191 37.651 L24.874 37.508 L24.559 37.361 L24.250 37.208 L23.951 37.045 L23.665 36.872 L23.396 36.688 L23.147 36.491 L22.921 36.282 L22.720 36.063 L22.541 35.835 L22.385 35.601 L22.248 35.362 L22.125 35.121 L22.014 34.881 L21.908 34.641 L21.803 34.403 L21.697 34.167 L21.587 33.933 L21.472 33.699 L21.355 33.465 L21.236 33.230 L21.120 32.991 L21.013 32.749 L20.919 32.503 L20.844 32.253 L20.791 32.000 L20.766 31.745 L20.769 31.490 L20.801 31.236 L20.862 30.984 L20.948 30.735 L21.055 30.490 L21.179 30.249 L21.316 30.013 L21.460 29.779 L21.608 29.547 L21.757 29.317 L21.906 29.086 L22.055 28.855 L22.207 28.623 L22.363 28.390 L22.527 28.158 L22.703 27.929 L22.896 27.705 L23.107 27.487 L23.340 27.280 L23.596 27.084 L23.874 26.903 L24.172 26.736 L24.488 26.584 L24.819 26.446 L25.161 26.321 L25.508 26.207 L25.859 26.099 L26.209 25.997 L26.558 25.895 L26.903 25.793 L27.245 25.688 L27.586 25.581 L27.926 25.470 L28.268 25.358 L28.614 25.247 L28.965 25.139 L29.324 25.040 L29.690 24.951 L30.064 24.876 L30.445 24.818 L30.831 24.778 L31.220 24.757 L31.610 24.754 L32.000 24.767 L32.388 24.793 L32.773 24.831 L33.155 24.876 L33.534 24.924 L33.911 24.975 L34.287 25.025 L34.664 25.074 L35.042 25.122 L35.422 25.170 L35.803 25.221 L36.185 25.277 L36.566 25.341 L36.943 25.418 L37.313 25.508 L37.673 25.615 L38.019 25.740 L38.349 25.883 L38.661 26.043 L38.954 26.219 L39.227 26.408 L39.483 26.606 L39.724 26.811 L39.953 27.020 L40.174 27.229 L40.391 27.438 L40.606 27.645 L40.821 27.849 L41.039 28.051 L41.259 28.252 L41.479 28.454 L41.697 28.659 L41.908 28.867 L42.108 29.081 L42.293 29.302 L42.459 29.530 L42.601 29.765 L42.719 30.006 L42.810 30.251 L42.876 30.500 L42.919 30.751 L42.942 31.003 L42.950 31.254 L42.948 31.504 L42.940 31.752 L42.930 32.000 Z" fill="none" stroke="#fff" stroke-opacity="0.18" stroke-width="0.055"/>
    <path d="M44.865 32.000 L44.885 32.292 L44.901 32.585 L44.910 32.880 L44.908 33.177 L44.890 33.475 L44.850 33.774 L44.784 34.070 L44.690 34.364 L44.563 34.652 L44.405 34.933 L44.216 35.206 L43.999 35.469 L43.757 35.723 L43.496 35.967 L43.220 36.202 L42.935 36.431 L42.644 36.654 L42.352 36.874 L42.060 37.092 L41.770 37.311 L41.480 37.530 L41.189 37.750 L40.894 37.969 L40.593 38.186 L40.281 38.399 L39.957 38.605 L39.617 38.801 L39.261 38.984 L38.888 39.153 L38.500 39.304 L38.097 39.439 L37.682 39.557 L37.258 39.660 L36.829 39.749 L36.395 39.828 L35.961 39.900 L35.526 39.967 L35.091 40.033 L34.657 40.099 L34.222 40.165 L33.785 40.233 L33.346 40.300 L32.902 40.364 L32.453 40.423 L32.000 40.471 L31.542 40.507 L31.082 40.525 L30.621 40.524 L30.161 40.501 L29.705 40.456 L29.256 40.388 L28.814 40.299 L28.382 40.192 L27.961 40.070 L27.549 39.936 L27.146 39.794 L26.750 39.647 L26.359 39.498 L25.971 39.349 L25.586 39.201 L25.201 39.053 L24.817 38.904 L24.434 38.752 L24.055 38.594 L23.682 38.430 L23.319 38.255 L22.969 38.068 L22.636 37.868 L22.324 37.654 L22.033 37.427 L21.766 37.188 L21.521 36.938 L21.298 36.681 L21.094 36.418 L20.904 36.152 L20.726 35.884 L20.553 35.617 L20.384 35.350 L20.215 35.084 L20.044 34.819 L19.871 34.553 L19.698 34.286 L19.528 34.016 L19.366 33.742 L19.215 33.463 L19.083 33.178 L18.973 32.889 L18.891 32.595 L18.839 32.298 L18.821 32.000 L18.835 31.701 L18.880 31.404 L18.954 31.110 L19.052 30.819 L19.169 30.532 L19.301 30.249 L19.442 29.969 L19.589 29.692 L19.739 29.417 L19.890 29.142 L20.044 28.868 L20.201 28.593 L20.365 28.319 L20.540 28.047 L20.728 27.777 L20.935 27.512 L21.163 27.255 L21.414 27.007 L21.690 26.771 L21.990 26.548 L22.312 26.339 L22.653 26.144 L23.011 25.962 L23.380 25.793 L23.757 25.633 L24.138 25.480 L24.520 25.331 L24.901 25.184 L25.280 25.036 L25.658 24.886 L26.035 24.734 L26.414 24.581 L26.797 24.427 L27.187 24.277 L27.584 24.132 L27.992 23.998 L28.410 23.876 L28.839 23.770 L29.277 23.684 L29.724 23.618 L30.176 23.572 L30.632 23.547 L31.089 23.540 L31.545 23.549 L32.000 23.570 L32.452 23.601 L32.902 23.637 L33.349 23.677 L33.795 23.719 L34.240 23.761 L34.686 23.804 L35.133 23.850 L35.580 23.900 L36.027 23.957 L36.472 24.025 L36.912 24.106 L37.345 24.204 L37.768 24.319 L38.178 24.454 L38.571 24.608 L38.948 24.781 L39.306 24.969 L39.646 25.171 L39.970 25.383 L40.279 25.602 L40.578 25.825 L40.869 26.050 L41.155 26.273 L41.440 26.495 L41.726 26.715 L42.013 26.933 L42.301 27.152 L42.589 27.372 L42.872 27.597 L43.147 27.827 L43.410 28.065 L43.656 28.312 L43.880 28.568 L44.080 28.833 L44.252 29.106 L44.396 29.386 L44.513 29.672 L44.604 29.961 L44.674 30.253 L44.726 30.545 L44.765 30.837 L44.795 31.128 L44.821 31.419 L44.843 31.709 L44.865 32.000 Z" fill="none" stroke="#fff" stroke-opacity="0.18" stroke-width="0.055"/>
    <path d="M46.808 32.000 L46.839 32.336 L46.855 32.674 L46.852 33.013 L46.825 33.353 L46.769 33.691 L46.682 34.027 L46.562 34.358 L46.407 34.682 L46.221 35.000 L46.005 35.308 L45.765 35.608 L45.504 35.899 L45.228 36.183 L44.942 36.460 L44.651 36.733 L44.357 37.002 L44.063 37.271 L43.769 37.539 L43.475 37.808 L43.178 38.077 L42.874 38.345 L42.561 38.611 L42.235 38.872 L41.892 39.126 L41.531 39.369 L41.149 39.598 L40.747 39.813 L40.325 40.010 L39.885 40.189 L39.430 40.350 L38.963 40.496 L38.487 40.627 L38.005 40.747 L37.519 40.857 L37.031 40.962 L36.542 41.063 L36.053 41.162 L35.561 41.260 L35.067 41.356 L34.569 41.449 L34.066 41.536 L33.557 41.615 L33.043 41.681 L32.523 41.732 L32.000 41.763 L31.475 41.772 L30.949 41.758 L30.427 41.720 L29.910 41.658 L29.400 41.574 L28.898 41.471 L28.406 41.353 L27.923 41.223 L27.448 41.085 L26.979 40.941 L26.516 40.796 L26.056 40.650 L25.598 40.505 L25.141 40.359 L24.685 40.211 L24.230 40.060 L23.779 39.902 L23.334 39.735 L22.899 39.556 L22.476 39.363 L22.070 39.155 L21.684 38.931 L21.320 38.692 L20.978 38.438 L20.659 38.173 L20.362 37.897 L20.083 37.614 L19.820 37.326 L19.569 37.035 L19.325 36.742 L19.087 36.449 L18.851 36.156 L18.617 35.862 L18.384 35.566 L18.155 35.268 L17.933 34.965 L17.722 34.656 L17.528 34.342 L17.356 34.021 L17.210 33.693 L17.096 33.360 L17.017 33.023 L16.973 32.683 L16.965 32.341 L16.990 32.000 L17.046 31.661 L17.127 31.325 L17.229 30.993 L17.347 30.664 L17.475 30.339 L17.610 30.017 L17.748 29.697 L17.890 29.377 L18.035 29.059 L18.185 28.740 L18.342 28.422 L18.512 28.106 L18.699 27.792 L18.905 27.483 L19.134 27.180 L19.390 26.887 L19.672 26.604 L19.980 26.334 L20.313 26.076 L20.668 25.832 L21.040 25.601 L21.426 25.380 L21.822 25.169 L22.224 24.965 L22.629 24.764 L23.035 24.566 L23.441 24.368 L23.848 24.170 L24.257 23.971 L24.671 23.772 L25.091 23.575 L25.521 23.384 L25.962 23.201 L26.416 23.030 L26.884 22.875 L27.365 22.738 L27.859 22.623 L28.364 22.530 L28.877 22.460 L29.396 22.412 L29.918 22.384 L30.441 22.373 L30.963 22.376 L31.483 22.390 L32.000 22.411 L32.515 22.436 L33.028 22.465 L33.541 22.496 L34.053 22.528 L34.565 22.565 L35.078 22.608 L35.590 22.659 L36.100 22.722 L36.606 22.800 L37.105 22.895 L37.596 23.010 L38.074 23.145 L38.537 23.301 L38.985 23.475 L39.416 23.666 L39.831 23.872 L40.231 24.088 L40.618 24.312 L40.995 24.540 L41.364 24.770 L41.730 25.001 L42.094 25.230 L42.458 25.459 L42.822 25.688 L43.186 25.918 L43.547 26.153 L43.903 26.393 L44.248 26.642 L44.579 26.901 L44.890 27.171 L45.176 27.453 L45.436 27.746 L45.666 28.050 L45.865 28.363 L46.035 28.684 L46.177 29.010 L46.295 29.340 L46.392 29.672 L46.475 30.004 L46.545 30.337 L46.608 30.669 L46.665 31.000 L46.718 31.333 L46.767 31.666 L46.808 32.000 Z" fill="none" stroke="#fff" stroke-opacity="0.18" stroke-width="0.055"/>
    <path d="M48.698 32.000 L48.723 32.379 L48.721 32.759 L48.690 33.139 L48.625 33.517 L48.525 33.891 L48.391 34.261 L48.223 34.625 L48.026 34.981 L47.802 35.330 L47.558 35.671 L47.298 36.006 L47.027 36.336 L46.750 36.661 L46.469 36.984 L46.186 37.306 L45.901 37.627 L45.613 37.949 L45.318 38.271 L45.015 38.591 L44.698 38.909 L44.364 39.220 L44.009 39.524 L43.631 39.816 L43.228 40.093 L42.800 40.355 L42.348 40.598 L41.875 40.822 L41.383 41.028 L40.875 41.217 L40.356 41.390 L39.828 41.551 L39.295 41.701 L38.757 41.843 L38.218 41.980 L37.676 42.114 L37.132 42.243 L36.584 42.370 L36.032 42.490 L35.474 42.604 L34.909 42.706 L34.337 42.794 L33.759 42.865 L33.176 42.915 L32.588 42.942 L32.000 42.944 L31.413 42.921 L30.829 42.874 L30.250 42.805 L29.678 42.717 L29.114 42.614 L28.558 42.498 L28.009 42.375 L27.466 42.246 L26.927 42.115 L26.391 41.984 L25.856 41.851 L25.322 41.718 L24.789 41.581 L24.257 41.439 L23.728 41.288 L23.206 41.126 L22.693 40.950 L22.193 40.757 L21.709 40.547 L21.244 40.318 L20.801 40.071 L20.381 39.807 L19.984 39.528 L19.609 39.238 L19.254 38.937 L18.915 38.630 L18.590 38.318 L18.274 38.002 L17.966 37.685 L17.664 37.366 L17.365 37.046 L17.072 36.722 L16.787 36.394 L16.512 36.060 L16.251 35.720 L16.011 35.372 L15.797 35.017 L15.612 34.653 L15.462 34.283 L15.348 33.907 L15.272 33.527 L15.232 33.144 L15.228 32.761 L15.254 32.379 L15.307 32.000 L15.381 31.624 L15.471 31.251 L15.571 30.881 L15.678 30.513 L15.790 30.148 L15.905 29.783 L16.025 29.419 L16.151 29.054 L16.287 28.690 L16.437 28.327 L16.606 27.966 L16.797 27.610 L17.015 27.259 L17.261 26.916 L17.537 26.582 L17.842 26.260 L18.175 25.951 L18.533 25.653 L18.911 25.368 L19.306 25.094 L19.714 24.828 L20.130 24.570 L20.552 24.316 L20.977 24.066 L21.406 23.817 L21.838 23.569 L22.275 23.322 L22.720 23.078 L23.175 22.839 L23.642 22.606 L24.123 22.385 L24.621 22.178 L25.136 21.989 L25.667 21.821 L26.214 21.676 L26.774 21.555 L27.345 21.458 L27.924 21.385 L28.507 21.332 L29.092 21.298 L29.677 21.278 L30.261 21.269 L30.843 21.268 L31.422 21.272 L32.000 21.280 L32.577 21.291 L33.154 21.304 L33.731 21.323 L34.309 21.348 L34.887 21.383 L35.463 21.431 L36.037 21.495 L36.606 21.577 L37.167 21.681 L37.718 21.806 L38.257 21.952 L38.782 22.119 L39.292 22.303 L39.787 22.503 L40.269 22.715 L40.739 22.935 L41.200 23.162 L41.653 23.391 L42.103 23.622 L42.550 23.854 L42.996 24.087 L43.441 24.322 L43.883 24.561 L44.321 24.806 L44.750 25.060 L45.167 25.325 L45.566 25.603 L45.943 25.895 L46.293 26.201 L46.613 26.522 L46.902 26.855 L47.157 27.200 L47.381 27.554 L47.575 27.915 L47.744 28.281 L47.890 28.650 L48.018 29.020 L48.134 29.391 L48.239 29.762 L48.337 30.132 L48.429 30.503 L48.513 30.874 L48.589 31.248 L48.652 31.623 L48.698 32.000 Z" fill="none" stroke="#fff" stroke-opacity="0.18" stroke-width="0.055"/>
    <path d="M50.545 32.000 L50.554 32.420 L50.528 32.841 L50.465 33.259 L50.367 33.675 L50.234 34.086 L50.070 34.491 L49.878 34.891 L49.665 35.284 L49.434 35.672 L49.190 36.055 L48.938 36.435 L48.680 36.812 L48.417 37.189 L48.149 37.565 L47.874 37.940 L47.589 38.315 L47.290 38.688 L46.974 39.057 L46.635 39.419 L46.271 39.772 L45.879 40.112 L45.458 40.438 L45.008 40.746 L44.529 41.035 L44.026 41.304 L43.500 41.555 L42.955 41.787 L42.397 42.002 L41.828 42.204 L41.252 42.395 L40.671 42.577 L40.087 42.753 L39.500 42.923 L38.909 43.089 L38.314 43.250 L37.713 43.404 L37.105 43.549 L36.489 43.682 L35.865 43.800 L35.233 43.899 L34.594 43.977 L33.948 44.031 L33.299 44.060 L32.649 44.063 L32.000 44.043 L31.354 44.000 L30.713 43.938 L30.077 43.860 L29.448 43.771 L28.824 43.673 L28.205 43.569 L27.589 43.463 L26.975 43.354 L26.362 43.244 L25.749 43.130 L25.136 43.012 L24.525 42.885 L23.917 42.747 L23.315 42.595 L22.722 42.426 L22.143 42.237 L21.580 42.027 L21.036 41.795 L20.514 41.543 L20.015 41.270 L19.540 40.981 L19.087 40.677 L18.655 40.361 L18.241 40.037 L17.841 39.706 L17.454 39.370 L17.076 39.032 L16.706 38.690 L16.343 38.345 L15.988 37.996 L15.643 37.642 L15.311 37.281 L14.997 36.913 L14.705 36.535 L14.441 36.149 L14.209 35.753 L14.012 35.349 L13.853 34.937 L13.732 34.521 L13.649 34.100 L13.600 33.678 L13.583 33.256 L13.591 32.835 L13.620 32.416 L13.665 32.000 L13.720 31.586 L13.783 31.175 L13.852 30.764 L13.925 30.354 L14.003 29.944 L14.091 29.533 L14.191 29.122 L14.308 28.711 L14.447 28.301 L14.612 27.895 L14.807 27.493 L15.035 27.099 L15.297 26.714 L15.591 26.339 L15.917 25.975 L16.272 25.624 L16.651 25.284 L17.049 24.955 L17.464 24.635 L17.890 24.323 L18.325 24.016 L18.766 23.714 L19.214 23.415 L19.668 23.118 L20.130 22.825 L20.602 22.536 L21.087 22.254 L21.587 21.981 L22.105 21.721 L22.643 21.477 L23.200 21.253 L23.776 21.051 L24.371 20.873 L24.981 20.720 L25.604 20.591 L26.236 20.486 L26.875 20.403 L27.517 20.337 L28.161 20.286 L28.803 20.245 L29.445 20.213 L30.084 20.186 L30.723 20.163 L31.361 20.143 L32.000 20.126 L32.640 20.115 L33.282 20.112 L33.926 20.120 L34.570 20.142 L35.212 20.182 L35.852 20.243 L36.487 20.325 L37.113 20.431 L37.729 20.560 L38.334 20.711 L38.926 20.882 L39.504 21.069 L40.071 21.271 L40.626 21.482 L41.172 21.702 L41.712 21.926 L42.246 22.154 L42.777 22.385 L43.305 22.620 L43.830 22.859 L44.350 23.105 L44.863 23.359 L45.366 23.625 L45.853 23.905 L46.320 24.200 L46.762 24.511 L47.176 24.840 L47.558 25.185 L47.907 25.546 L48.221 25.919 L48.502 26.304 L48.753 26.697 L48.977 27.095 L49.178 27.498 L49.361 27.902 L49.530 28.306 L49.688 28.711 L49.838 29.117 L49.980 29.522 L50.113 29.929 L50.237 30.338 L50.346 30.750 L50.437 31.164 L50.505 31.581 L50.545 32.000 Z" fill="none" stroke="#fff" stroke-opacity="0.18" stroke-width="0.055"/>
    <path d="M52.398 32.000 L52.387 32.462 L52.337 32.923 L52.251 33.381 L52.131 33.835 L51.982 34.285 L51.809 34.730 L51.615 35.171 L51.407 35.607 L51.186 36.041 L50.957 36.472 L50.719 36.903 L50.472 37.332 L50.213 37.760 L49.941 38.187 L49.650 38.611 L49.337 39.030 L48.997 39.441 L48.628 39.842 L48.225 40.230 L47.789 40.603 L47.320 40.957 L46.820 41.292 L46.291 41.607 L45.737 41.903 L45.163 42.180 L44.573 42.441 L43.971 42.688 L43.360 42.923 L42.744 43.149 L42.123 43.369 L41.499 43.582 L40.870 43.791 L40.236 43.994 L39.595 44.189 L38.945 44.375 L38.286 44.548 L37.616 44.705 L36.936 44.843 L36.245 44.959 L35.547 45.050 L34.841 45.116 L34.132 45.157 L33.420 45.173 L32.709 45.166 L32.000 45.140 L31.294 45.098 L30.593 45.043 L29.895 44.979 L29.201 44.908 L28.508 44.833 L27.817 44.753 L27.126 44.670 L26.435 44.581 L25.744 44.484 L25.055 44.376 L24.368 44.253 L23.688 44.113 L23.018 43.953 L22.360 43.769 L21.718 43.561 L21.096 43.328 L20.496 43.072 L19.920 42.793 L19.367 42.495 L18.837 42.180 L18.328 41.852 L17.838 41.514 L17.364 41.168 L16.903 40.816 L16.453 40.460 L16.012 40.100 L15.580 39.737 L15.157 39.368 L14.746 38.993 L14.350 38.611 L13.974 38.219 L13.620 37.817 L13.296 37.404 L13.003 36.981 L12.747 36.548 L12.529 36.106 L12.348 35.656 L12.205 35.202 L12.096 34.744 L12.018 34.285 L11.966 33.825 L11.934 33.367 L11.918 32.910 L11.914 32.455 L11.918 32.000 L11.929 31.546 L11.947 31.091 L11.973 30.636 L12.012 30.179 L12.066 29.721 L12.141 29.263 L12.243 28.805 L12.375 28.349 L12.542 27.897 L12.746 27.452 L12.988 27.015 L13.268 26.587 L13.584 26.171 L13.931 25.766 L14.307 25.372 L14.706 24.989 L15.124 24.616 L15.556 24.251 L16.000 23.893 L16.453 23.540 L16.914 23.191 L17.385 22.846 L17.866 22.506 L18.360 22.172 L18.869 21.846 L19.396 21.531 L19.943 21.229 L20.513 20.945 L21.105 20.681 L21.719 20.440 L22.353 20.222 L23.005 20.030 L23.673 19.862 L24.351 19.717 L25.038 19.593 L25.730 19.486 L26.424 19.393 L27.119 19.311 L27.814 19.237 L28.508 19.168 L29.203 19.103 L29.898 19.041 L30.596 18.985 L31.296 18.935 L32.000 18.894 L32.707 18.866 L33.417 18.855 L34.129 18.863 L34.839 18.894 L35.547 18.949 L36.249 19.030 L36.943 19.137 L37.627 19.268 L38.300 19.420 L38.962 19.592 L39.612 19.780 L40.252 19.980 L40.883 20.190 L41.506 20.408 L42.124 20.631 L42.736 20.859 L43.344 21.093 L43.948 21.334 L44.544 21.584 L45.132 21.846 L45.706 22.121 L46.263 22.413 L46.799 22.722 L47.309 23.050 L47.789 23.398 L48.237 23.763 L48.650 24.146 L49.030 24.544 L49.376 24.953 L49.692 25.372 L49.981 25.798 L50.248 26.228 L50.497 26.660 L50.732 27.094 L50.956 27.528 L51.171 27.963 L51.378 28.398 L51.576 28.836 L51.762 29.277 L51.933 29.721 L52.085 30.170 L52.211 30.622 L52.308 31.079 L52.371 31.539 L52.398 32.000 Z" fill="none" stroke="#fff" stroke-opacity="0.18" stroke-width="0.055"/>
    <path d="M54.278 32.000 L54.245 32.504 L54.176 33.006 L54.075 33.505 L53.947 34.000 L53.795 34.492 L53.625 34.981 L53.440 35.466 L53.242 35.950 L53.032 36.431 L52.809 36.912 L52.571 37.391 L52.314 37.867 L52.035 38.341 L51.729 38.808 L51.393 39.268 L51.022 39.716 L50.616 40.152 L50.172 40.572 L49.692 40.974 L49.178 41.357 L48.633 41.720 L48.061 42.065 L47.467 42.392 L46.856 42.702 L46.232 42.999 L45.598 43.285 L44.958 43.562 L44.313 43.833 L43.662 44.098 L43.006 44.357 L42.343 44.610 L41.672 44.856 L40.989 45.092 L40.295 45.314 L39.586 45.519 L38.865 45.705 L38.130 45.868 L37.383 46.006 L36.625 46.118 L35.861 46.203 L35.090 46.263 L34.317 46.300 L33.544 46.317 L32.771 46.316 L32.000 46.301 L31.231 46.275 L30.464 46.240 L29.698 46.199 L28.932 46.151 L28.166 46.097 L27.400 46.034 L26.634 45.960 L25.869 45.872 L25.107 45.766 L24.351 45.640 L23.604 45.489 L22.870 45.312 L22.153 45.109 L21.454 44.878 L20.777 44.620 L20.122 44.339 L19.492 44.036 L18.883 43.715 L18.296 43.380 L17.727 43.033 L17.175 42.678 L16.636 42.317 L16.108 41.951 L15.589 41.581 L15.080 41.205 L14.582 40.824 L14.095 40.436 L13.625 40.039 L13.173 39.631 L12.746 39.211 L12.348 38.779 L11.982 38.335 L11.652 37.878 L11.360 37.410 L11.106 36.933 L10.889 36.449 L10.706 35.960 L10.553 35.467 L10.427 34.973 L10.322 34.478 L10.234 33.983 L10.160 33.488 L10.095 32.993 L10.040 32.497 L9.996 32.000 L9.963 31.501 L9.947 31.000 L9.951 30.497 L9.980 29.992 L10.041 29.488 L10.138 28.984 L10.274 28.484 L10.451 27.989 L10.672 27.501 L10.934 27.023 L11.236 26.555 L11.573 26.097 L11.941 25.651 L12.336 25.216 L12.751 24.791 L13.183 24.374 L13.629 23.964 L14.086 23.559 L14.553 23.160 L15.032 22.766 L15.522 22.377 L16.028 21.995 L16.551 21.622 L17.095 21.260 L17.661 20.912 L18.252 20.581 L18.868 20.270 L19.509 19.982 L20.173 19.718 L20.857 19.477 L21.559 19.261 L22.274 19.066 L23.000 18.892 L23.733 18.734 L24.470 18.590 L25.210 18.456 L25.952 18.331 L26.695 18.211 L27.439 18.096 L28.187 17.985 L28.939 17.881 L29.696 17.786 L30.458 17.702 L31.226 17.633 L32.000 17.583 L32.777 17.556 L33.557 17.554 L34.336 17.579 L35.111 17.633 L35.881 17.715 L36.643 17.823 L37.396 17.956 L38.139 18.110 L38.870 18.283 L39.592 18.470 L40.305 18.668 L41.010 18.876 L41.708 19.092 L42.400 19.315 L43.087 19.546 L43.767 19.785 L44.439 20.036 L45.101 20.300 L45.749 20.580 L46.379 20.878 L46.987 21.196 L47.569 21.534 L48.122 21.894 L48.642 22.274 L49.129 22.672 L49.583 23.086 L50.005 23.513 L50.397 23.951 L50.764 24.396 L51.110 24.847 L51.438 25.300 L51.752 25.756 L52.056 26.213 L52.351 26.671 L52.637 27.132 L52.913 27.596 L53.176 28.064 L53.421 28.537 L53.645 29.017 L53.841 29.502 L54.006 29.994 L54.134 30.491 L54.223 30.992 L54.271 31.495 L54.278 32.000 Z" fill="none" stroke="#fff" stroke-opacity="0.18" stroke-width="0.055"/>
    <path d="M56.147 32.000 L56.097 32.546 L56.015 33.089 L55.908 33.630 L55.780 34.168 L55.633 34.703 L55.471 35.235 L55.293 35.767 L55.099 36.296 L54.886 36.824 L54.652 37.349 L54.391 37.870 L54.101 38.386 L53.776 38.893 L53.415 39.391 L53.014 39.875 L52.574 40.345 L52.095 40.797 L51.580 41.232 L51.032 41.648 L50.455 42.046 L49.856 42.428 L49.238 42.794 L48.605 43.148 L47.963 43.492 L47.312 43.827 L46.654 44.156 L45.990 44.480 L45.318 44.798 L44.637 45.109 L43.945 45.413 L43.238 45.705 L42.516 45.983 L41.777 46.244 L41.021 46.484 L40.247 46.700 L39.456 46.889 L38.652 47.052 L37.836 47.187 L37.011 47.295 L36.180 47.378 L35.345 47.440 L34.509 47.482 L33.672 47.509 L32.836 47.523 L32.000 47.526 L31.164 47.520 L30.328 47.506 L29.491 47.481 L28.653 47.446 L27.815 47.396 L26.978 47.330 L26.144 47.243 L25.315 47.132 L24.495 46.995 L23.686 46.829 L22.893 46.634 L22.117 46.409 L21.362 46.157 L20.629 45.879 L19.918 45.579 L19.228 45.260 L18.558 44.926 L17.906 44.580 L17.269 44.225 L16.644 43.864 L16.031 43.497 L15.427 43.125 L14.832 42.747 L14.247 42.363 L13.675 41.970 L13.119 41.566 L12.582 41.150 L12.070 40.720 L11.586 40.275 L11.136 39.815 L10.721 39.340 L10.344 38.852 L10.005 38.353 L9.704 37.843 L9.437 37.326 L9.202 36.804 L8.994 36.277 L8.810 35.749 L8.643 35.218 L8.493 34.687 L8.356 34.154 L8.232 33.620 L8.122 33.083 L8.028 32.543 L7.955 32.000 L7.907 31.454 L7.889 30.906 L7.907 30.357 L7.966 29.807 L8.068 29.261 L8.216 28.718 L8.411 28.182 L8.651 27.654 L8.932 27.135 L9.252 26.627 L9.606 26.129 L9.987 25.642 L10.390 25.164 L10.812 24.694 L11.249 24.231 L11.698 23.774 L12.158 23.322 L12.631 22.875 L13.119 22.434 L13.623 22.000 L14.147 21.574 L14.694 21.159 L15.266 20.758 L15.866 20.374 L16.493 20.010 L17.149 19.667 L17.830 19.347 L18.536 19.051 L19.262 18.777 L20.004 18.525 L20.760 18.293 L21.525 18.077 L22.298 17.875 L23.076 17.683 L23.857 17.500 L24.643 17.324 L25.432 17.154 L26.227 16.991 L27.029 16.836 L27.838 16.692 L28.655 16.562 L29.481 16.451 L30.315 16.361 L31.155 16.297 L32.000 16.262 L32.847 16.256 L33.693 16.281 L34.536 16.337 L35.373 16.422 L36.202 16.533 L37.022 16.668 L37.833 16.822 L38.634 16.993 L39.426 17.176 L40.210 17.371 L40.987 17.574 L41.758 17.786 L42.523 18.007 L43.281 18.238 L44.031 18.483 L44.770 18.742 L45.496 19.018 L46.203 19.315 L46.889 19.633 L47.551 19.973 L48.183 20.336 L48.785 20.721 L49.356 21.126 L49.895 21.548 L50.403 21.984 L50.884 22.433 L51.340 22.890 L51.776 23.353 L52.196 23.821 L52.602 24.291 L52.997 24.765 L53.382 25.241 L53.757 25.722 L54.119 26.207 L54.467 26.698 L54.795 27.197 L55.098 27.704 L55.370 28.220 L55.608 28.744 L55.806 29.276 L55.961 29.815 L56.072 30.358 L56.138 30.905 L56.163 31.452 L56.147 32.000 Z" fill="none" stroke="#fff" stroke-opacity="0.18" stroke-width="0.055"/>
    <path d="M57.950 32.000 L57.892 32.587 L57.811 33.171 L57.709 33.752 L57.589 34.332 L57.452 34.911 L57.296 35.487 L57.118 36.062 L56.917 36.635 L56.687 37.204 L56.425 37.768 L56.126 38.325 L55.787 38.873 L55.407 39.409 L54.986 39.931 L54.523 40.438 L54.022 40.928 L53.487 41.402 L52.922 41.859 L52.332 42.300 L51.721 42.729 L51.095 43.145 L50.456 43.552 L49.808 43.952 L49.150 44.345 L48.483 44.732 L47.806 45.114 L47.116 45.488 L46.411 45.853 L45.688 46.206 L44.946 46.544 L44.181 46.863 L43.395 47.159 L42.587 47.430 L41.758 47.673 L40.911 47.887 L40.048 48.073 L39.172 48.230 L38.287 48.361 L37.396 48.468 L36.500 48.555 L35.602 48.624 L34.703 48.679 L33.803 48.721 L32.902 48.752 L32.000 48.772 L31.097 48.780 L30.192 48.775 L29.286 48.754 L28.380 48.713 L27.476 48.649 L26.576 48.560 L25.684 48.442 L24.801 48.295 L23.932 48.116 L23.079 47.907 L22.244 47.669 L21.429 47.405 L20.634 47.118 L19.858 46.811 L19.100 46.489 L18.358 46.154 L17.630 45.810 L16.914 45.459 L16.208 45.101 L15.510 44.738 L14.821 44.367 L14.143 43.987 L13.477 43.597 L12.827 43.195 L12.197 42.777 L11.592 42.342 L11.016 41.890 L10.473 41.420 L9.967 40.933 L9.499 40.428 L9.071 39.910 L8.681 39.378 L8.327 38.837 L8.005 38.288 L7.713 37.733 L7.446 37.174 L7.200 36.611 L6.973 36.046 L6.762 35.479 L6.567 34.908 L6.391 34.334 L6.234 33.757 L6.103 33.175 L6.000 32.589 L5.932 32.000 L5.904 31.409 L5.920 30.816 L5.983 30.225 L6.095 29.637 L6.255 29.053 L6.463 28.477 L6.715 27.909 L7.006 27.350 L7.331 26.800 L7.685 26.260 L8.063 25.728 L8.459 25.204 L8.871 24.687 L9.296 24.174 L9.735 23.667 L10.187 23.164 L10.656 22.666 L11.143 22.174 L11.653 21.691 L12.189 21.219 L12.754 20.759 L13.349 20.316 L13.977 19.892 L14.636 19.489 L15.325 19.108 L16.042 18.750 L16.783 18.415 L17.544 18.100 L18.322 17.805 L19.113 17.527 L19.914 17.263 L20.723 17.011 L21.539 16.768 L22.362 16.534 L23.191 16.308 L24.029 16.092 L24.875 15.886 L25.732 15.693 L26.600 15.518 L27.480 15.364 L28.370 15.234 L29.269 15.133 L30.175 15.063 L31.087 15.024 L32.000 15.020 L32.912 15.047 L33.820 15.105 L34.723 15.191 L35.617 15.301 L36.503 15.431 L37.381 15.579 L38.251 15.741 L39.113 15.914 L39.969 16.097 L40.819 16.289 L41.663 16.491 L42.501 16.705 L43.331 16.933 L44.151 17.177 L44.959 17.440 L45.750 17.725 L46.521 18.033 L47.268 18.366 L47.989 18.723 L48.681 19.103 L49.344 19.505 L49.977 19.926 L50.581 20.364 L51.159 20.815 L51.713 21.276 L52.248 21.745 L52.766 22.221 L53.270 22.701 L53.762 23.186 L54.243 23.676 L54.711 24.171 L55.165 24.674 L55.600 25.186 L56.013 25.707 L56.397 26.239 L56.748 26.782 L57.059 27.337 L57.328 27.901 L57.551 28.475 L57.726 29.056 L57.854 29.642 L57.937 30.231 L57.977 30.821 L57.980 31.411 L57.950 32.000 Z" fill="none" stroke="#fff" stroke-opacity="0.18" stroke-width="0.055"/>
    <path d="M59.681 32.000 L59.635 32.626 L59.570 33.250 L59.486 33.873 L59.381 34.495 L59.255 35.117 L59.101 35.736 L58.918 36.353 L58.699 36.966 L58.442 37.574 L58.143 38.173 L57.800 38.763 L57.413 39.341 L56.983 39.905 L56.512 40.454 L56.004 40.989 L55.465 41.508 L54.897 42.014 L54.308 42.508 L53.700 42.990 L53.077 43.464 L52.440 43.930 L51.792 44.389 L51.131 44.842 L50.456 45.289 L49.764 45.727 L49.052 46.155 L48.318 46.569 L47.560 46.967 L46.775 47.343 L45.964 47.696 L45.126 48.022 L44.262 48.318 L43.376 48.584 L42.471 48.820 L41.549 49.027 L40.616 49.206 L39.672 49.360 L38.723 49.493 L37.769 49.606 L36.813 49.704 L35.855 49.788 L34.894 49.860 L33.932 49.919 L32.967 49.966 L32.000 49.997 L31.030 50.010 L30.060 50.003 L29.089 49.971 L28.120 49.913 L27.157 49.824 L26.201 49.705 L25.255 49.553 L24.323 49.370 L23.407 49.158 L22.507 48.919 L21.624 48.655 L20.759 48.372 L19.909 48.073 L19.073 47.760 L18.249 47.438 L17.436 47.106 L16.632 46.767 L15.837 46.420 L15.050 46.064 L14.273 45.697 L13.509 45.316 L12.762 44.920 L12.036 44.506 L11.335 44.071 L10.664 43.616 L10.028 43.139 L9.429 42.642 L8.869 42.125 L8.350 41.590 L7.870 41.039 L7.428 40.477 L7.020 39.904 L6.643 39.323 L6.293 38.737 L5.967 38.145 L5.661 37.550 L5.375 36.951 L5.108 36.349 L4.862 35.742 L4.640 35.130 L4.445 34.513 L4.282 33.890 L4.157 33.263 L4.074 32.633 L4.038 32.000 L4.050 31.367 L4.114 30.734 L4.227 30.106 L4.389 29.482 L4.596 28.865 L4.842 28.255 L5.123 27.654 L5.434 27.060 L5.768 26.474 L6.121 25.894 L6.492 25.320 L6.877 24.750 L7.277 24.184 L7.693 23.622 L8.127 23.064 L8.584 22.513 L9.067 21.969 L9.580 21.435 L10.126 20.915 L10.708 20.410 L11.326 19.923 L11.980 19.457 L12.669 19.012 L13.389 18.590 L14.139 18.191 L14.912 17.813 L15.707 17.455 L16.517 17.114 L17.342 16.788 L18.177 16.475 L19.022 16.173 L19.877 15.881 L20.741 15.600 L21.616 15.330 L22.503 15.073 L23.402 14.833 L24.316 14.611 L25.244 14.413 L26.185 14.242 L27.138 14.102 L28.101 13.993 L29.072 13.919 L30.048 13.879 L31.025 13.872 L32.000 13.897 L32.972 13.949 L33.937 14.027 L34.897 14.125 L35.849 14.240 L36.794 14.370 L37.734 14.511 L38.668 14.662 L39.597 14.824 L40.522 14.996 L41.441 15.182 L42.354 15.382 L43.259 15.601 L44.152 15.840 L45.031 16.103 L45.891 16.392 L46.730 16.707 L47.545 17.049 L48.333 17.417 L49.093 17.808 L49.825 18.222 L50.529 18.654 L51.208 19.101 L51.865 19.562 L52.501 20.032 L53.120 20.511 L53.724 20.996 L54.315 21.489 L54.892 21.988 L55.454 22.496 L55.998 23.014 L56.521 23.542 L57.018 24.083 L57.483 24.638 L57.911 25.206 L58.298 25.787 L58.638 26.382 L58.930 26.987 L59.172 27.602 L59.364 28.225 L59.510 28.852 L59.612 29.482 L59.676 30.113 L59.705 30.743 L59.705 31.372 L59.681 32.000 Z" fill="none" stroke="#fff" stroke-opacity="0.18" stroke-width="0.055"/>
    <path d="M61.412 32.000 L61.397 32.666 L61.361 33.331 L61.301 33.997 L61.213 34.662 L61.092 35.327 L60.933 35.989 L60.734 36.647 L60.489 37.299 L60.198 37.944 L59.859 38.578 L59.475 39.201 L59.047 39.811 L58.578 40.408 L58.075 40.991 L57.541 41.562 L56.981 42.121 L56.400 42.670 L55.800 43.211 L55.183 43.743 L54.550 44.268 L53.901 44.786 L53.232 45.297 L52.543 45.798 L51.830 46.287 L51.090 46.761 L50.320 47.216 L49.519 47.650 L48.687 48.058 L47.824 48.438 L46.932 48.788 L46.013 49.106 L45.071 49.394 L44.110 49.651 L43.134 49.881 L42.146 50.085 L41.150 50.268 L40.149 50.431 L39.142 50.578 L38.133 50.711 L37.120 50.830 L36.104 50.937 L35.084 51.030 L34.060 51.106 L33.032 51.164 L32.000 51.201 L30.966 51.212 L29.931 51.194 L28.898 51.146 L27.870 51.066 L26.849 50.953 L25.838 50.807 L24.838 50.631 L23.853 50.427 L22.882 50.199 L21.925 49.949 L20.981 49.681 L20.050 49.400 L19.130 49.106 L18.219 48.801 L17.316 48.487 L16.422 48.162 L15.536 47.826 L14.662 47.475 L13.800 47.108 L12.957 46.722 L12.135 46.314 L11.339 45.883 L10.575 45.427 L9.845 44.947 L9.155 44.442 L8.504 43.914 L7.895 43.366 L7.326 42.800 L6.796 42.219 L6.301 41.626 L5.838 41.024 L5.403 40.414 L4.994 39.799 L4.606 39.178 L4.240 38.553 L3.895 37.923 L3.572 37.287 L3.276 36.646 L3.008 35.998 L2.775 35.343 L2.581 34.683 L2.431 34.017 L2.328 33.346 L2.276 32.674 L2.275 32.000 L2.325 31.328 L2.424 30.658 L2.568 29.993 L2.753 29.334 L2.972 28.681 L3.222 28.034 L3.496 27.393 L3.791 26.757 L4.105 26.125 L4.435 25.497 L4.783 24.872 L5.150 24.250 L5.540 23.632 L5.956 23.020 L6.403 22.415 L6.884 21.820 L7.404 21.237 L7.964 20.669 L8.566 20.120 L9.210 19.591 L9.893 19.083 L10.613 18.598 L11.365 18.136 L12.147 17.695 L12.952 17.274 L13.778 16.871 L14.620 16.484 L15.476 16.111 L16.344 15.751 L17.225 15.402 L18.117 15.066 L19.023 14.742 L19.943 14.433 L20.879 14.142 L21.831 13.872 L22.801 13.627 L23.786 13.410 L24.787 13.224 L25.801 13.072 L26.825 12.954 L27.857 12.870 L28.893 12.821 L29.931 12.802 L30.967 12.811 L32.000 12.845 L33.029 12.899 L34.052 12.971 L35.071 13.057 L36.086 13.154 L37.097 13.263 L38.105 13.383 L39.109 13.515 L40.111 13.661 L41.108 13.825 L42.098 14.008 L43.078 14.216 L44.046 14.449 L44.998 14.711 L45.931 15.002 L46.841 15.323 L47.726 15.673 L48.584 16.049 L49.416 16.450 L50.221 16.872 L51.002 17.313 L51.759 17.768 L52.497 18.236 L53.216 18.715 L53.918 19.202 L54.605 19.699 L55.277 20.206 L55.931 20.723 L56.565 21.252 L57.174 21.794 L57.755 22.351 L58.302 22.924 L58.809 23.513 L59.273 24.118 L59.689 24.739 L60.054 25.372 L60.369 26.017 L60.634 26.671 L60.852 27.332 L61.026 27.997 L61.161 28.665 L61.262 29.333 L61.334 30.001 L61.381 30.668 L61.406 31.334 L61.412 32.000 Z" fill="none" stroke="#fff" stroke-opacity="0.18" stroke-width="0.055"/>
    <path d="M63.245 32.000 L63.267 32.708 L63.258 33.417 L63.213 34.128 L63.127 34.838 L62.997 35.545 L62.818 36.250 L62.589 36.948 L62.309 37.639 L61.979 38.319 L61.601 38.989 L61.180 39.648 L60.719 40.294 L60.224 40.928 L59.700 41.552 L59.151 42.165 L58.579 42.770 L57.986 43.366 L57.374 43.955 L56.741 44.536 L56.085 45.108 L55.403 45.670 L54.693 46.218 L53.952 46.751 L53.177 47.264 L52.367 47.754 L51.521 48.218 L50.641 48.653 L49.727 49.058 L48.784 49.432 L47.814 49.775 L46.823 50.088 L45.814 50.374 L44.791 50.635 L43.758 50.874 L42.717 51.095 L41.671 51.299 L40.619 51.489 L39.563 51.666 L38.501 51.830 L37.433 51.979 L36.359 52.112 L35.278 52.225 L34.190 52.316 L33.097 52.380 L32.000 52.414 L30.901 52.416 L29.803 52.385 L28.708 52.320 L27.619 52.220 L26.539 52.089 L25.469 51.928 L24.410 51.741 L23.364 51.531 L22.328 51.301 L21.303 51.055 L20.288 50.795 L19.281 50.522 L18.282 50.236 L17.292 49.937 L16.311 49.623 L15.341 49.292 L14.386 48.941 L13.449 48.567 L12.534 48.168 L11.646 47.742 L10.790 47.289 L9.970 46.807 L9.189 46.298 L8.448 45.764 L7.748 45.207 L7.089 44.630 L6.468 44.036 L5.882 43.428 L5.329 42.810 L4.804 42.184 L4.304 41.550 L3.827 40.911 L3.372 40.265 L2.939 39.614 L2.529 38.956 L2.145 38.291 L1.793 37.618 L1.475 36.937 L1.197 36.247 L0.965 35.550 L0.780 34.847 L0.647 34.138 L0.566 33.426 L0.537 32.713 L0.557 32.000 L0.623 31.289 L0.730 30.582 L0.874 29.879 L1.049 29.180 L1.251 28.485 L1.475 27.794 L1.721 27.106 L1.987 26.421 L2.274 25.738 L2.585 25.058 L2.923 24.381 L3.292 23.710 L3.697 23.045 L4.142 22.390 L4.631 21.747 L5.167 21.119 L5.749 20.508 L6.377 19.918 L7.050 19.349 L7.764 18.803 L8.515 18.278 L9.298 17.776 L10.109 17.293 L10.942 16.829 L11.795 16.381 L12.664 15.948 L13.547 15.528 L14.445 15.121 L15.357 14.726 L16.285 14.345 L17.229 13.980 L18.192 13.634 L19.174 13.309 L20.175 13.010 L21.197 12.740 L22.236 12.501 L23.292 12.296 L24.363 12.125 L25.444 11.988 L26.532 11.884 L27.626 11.811 L28.721 11.766 L29.816 11.745 L30.909 11.745 L32.000 11.762 L33.089 11.794 L34.175 11.838 L35.260 11.895 L36.344 11.964 L37.427 12.047 L38.508 12.147 L39.587 12.267 L40.661 12.410 L41.727 12.580 L42.783 12.779 L43.825 13.010 L44.849 13.274 L45.853 13.570 L46.833 13.899 L47.788 14.257 L48.717 14.643 L49.621 15.052 L50.500 15.482 L51.356 15.930 L52.192 16.392 L53.009 16.867 L53.808 17.354 L54.590 17.851 L55.355 18.361 L56.100 18.882 L56.824 19.418 L57.522 19.969 L58.190 20.537 L58.822 21.124 L59.414 21.728 L59.961 22.351 L60.460 22.991 L60.909 23.647 L61.308 24.316 L61.657 24.996 L61.960 25.685 L62.219 26.380 L62.440 27.078 L62.628 27.779 L62.788 28.480 L62.922 29.183 L63.035 29.885 L63.127 30.589 L63.198 31.294 L63.245 32.000 Z" fill="none" stroke="#fff" stroke-opacity="0.18" stroke-width="0.055"/>
    <path d="M65.223 32.000 L65.263 32.753 L65.258 33.509 L65.204 34.264 L65.097 35.018 L64.935 35.768 L64.718 36.513 L64.447 37.249 L64.124 37.977 L63.754 38.694 L63.340 39.400 L62.889 40.095 L62.405 40.781 L61.892 41.456 L61.353 42.122 L60.790 42.781 L60.204 43.431 L59.593 44.072 L58.956 44.704 L58.290 45.325 L57.592 45.933 L56.859 46.524 L56.088 47.095 L55.278 47.643 L54.429 48.166 L53.542 48.661 L52.618 49.125 L51.662 49.560 L50.676 49.964 L49.666 50.340 L48.637 50.690 L47.591 51.015 L46.533 51.320 L45.465 51.607 L44.389 51.878 L43.305 52.136 L42.215 52.380 L41.116 52.610 L40.009 52.825 L38.892 53.023 L37.764 53.200 L36.627 53.352 L35.480 53.477 L34.325 53.570 L33.164 53.630 L32.000 53.654 L30.835 53.642 L29.672 53.594 L28.515 53.512 L27.364 53.399 L26.221 53.257 L25.088 53.090 L23.964 52.901 L22.850 52.694 L21.744 52.469 L20.646 52.230 L19.556 51.975 L18.474 51.704 L17.402 51.414 L16.341 51.105 L15.295 50.773 L14.268 50.414 L13.262 50.028 L12.284 49.612 L11.338 49.165 L10.427 48.687 L9.553 48.180 L8.719 47.645 L7.926 47.086 L7.172 46.505 L6.454 45.906 L5.772 45.292 L5.120 44.666 L4.495 44.030 L3.896 43.387 L3.319 42.736 L2.763 42.079 L2.229 41.415 L1.719 40.742 L1.236 40.060 L0.784 39.368 L0.368 38.666 L-0.007 37.953 L-0.336 37.230 L-0.616 36.497 L-0.843 35.757 L-1.017 35.010 L-1.139 34.259 L-1.209 33.506 L-1.232 32.753 L-1.212 32.000 L-1.154 31.249 L-1.062 30.501 L-0.940 29.755 L-0.792 29.012 L-0.620 28.271 L-0.424 27.531 L-0.202 26.793 L0.048 26.058 L0.331 25.325 L0.649 24.597 L1.010 23.876 L1.415 23.163 L1.870 22.463 L2.375 21.777 L2.933 21.108 L3.541 20.458 L4.197 19.829 L4.899 19.222 L5.640 18.636 L6.416 18.072 L7.223 17.527 L8.054 17.001 L8.906 16.490 L9.777 15.994 L10.664 15.511 L11.567 15.041 L12.487 14.583 L13.424 14.140 L14.381 13.712 L15.358 13.304 L16.358 12.917 L17.381 12.556 L18.428 12.223 L19.496 11.922 L20.585 11.654 L21.692 11.420 L22.814 11.220 L23.948 11.053 L25.090 10.916 L26.238 10.808 L27.388 10.723 L28.540 10.660 L29.693 10.615 L30.846 10.585 L32.000 10.570 L33.154 10.569 L34.310 10.582 L35.467 10.613 L36.624 10.663 L37.781 10.736 L38.935 10.836 L40.083 10.965 L41.223 11.128 L42.351 11.326 L43.464 11.560 L44.557 11.830 L45.629 12.135 L46.677 12.473 L47.700 12.840 L48.699 13.234 L49.675 13.650 L50.628 14.086 L51.560 14.538 L52.473 15.005 L53.368 15.484 L54.246 15.976 L55.105 16.482 L55.945 17.001 L56.763 17.537 L57.554 18.090 L58.314 18.661 L59.039 19.253 L59.724 19.866 L60.365 20.499 L60.958 21.152 L61.503 21.822 L61.998 22.508 L62.445 23.207 L62.846 23.917 L63.206 24.634 L63.528 25.357 L63.818 26.085 L64.079 26.815 L64.315 27.547 L64.528 28.282 L64.719 29.019 L64.888 29.759 L65.030 30.502 L65.144 31.249 L65.223 32.000 Z" fill="none" stroke="#fff" stroke-opacity="0.18" stroke-width="0.055"/>
    <path d="M67.274 32.000 L67.299 32.800 L67.266 33.600 L67.175 34.399 L67.024 35.194 L66.814 35.984 L66.550 36.765 L66.235 37.538 L65.873 38.302 L65.471 39.055 L65.033 39.799 L64.563 40.533 L64.065 41.259 L63.541 41.977 L62.990 42.687 L62.412 43.388 L61.805 44.081 L61.166 44.762 L60.491 45.429 L59.779 46.081 L59.025 46.714 L58.229 47.324 L57.391 47.910 L56.511 48.469 L55.592 49.000 L54.637 49.501 L53.649 49.975 L52.635 50.421 L51.597 50.842 L50.541 51.240 L49.470 51.618 L48.387 51.979 L47.292 52.325 L46.187 52.657 L45.072 52.975 L43.946 53.278 L42.807 53.565 L41.655 53.834 L40.488 54.079 L39.307 54.299 L38.112 54.488 L36.905 54.644 L35.687 54.764 L34.462 54.846 L33.232 54.889 L32.000 54.895 L30.769 54.864 L29.543 54.800 L28.321 54.705 L27.107 54.583 L25.901 54.437 L24.702 54.270 L23.510 54.084 L22.326 53.880 L21.150 53.659 L19.981 53.419 L18.822 53.159 L17.673 52.876 L16.539 52.567 L15.423 52.230 L14.328 51.862 L13.260 51.463 L12.221 51.030 L11.216 50.564 L10.247 50.067 L9.316 49.541 L8.422 48.989 L7.566 48.413 L6.745 47.818 L5.956 47.208 L5.196 46.584 L4.462 45.949 L3.752 45.305 L3.064 44.653 L2.396 43.992 L1.751 43.323 L1.129 42.643 L0.536 41.951 L-0.026 41.247 L-0.551 40.530 L-1.033 39.799 L-1.468 39.054 L-1.852 38.297 L-2.182 37.529 L-2.457 36.751 L-2.677 35.967 L-2.844 35.177 L-2.961 34.384 L-3.034 33.589 L-3.065 32.794 L-3.059 32.000 L-3.022 31.207 L-2.954 30.415 L-2.858 29.624 L-2.734 28.834 L-2.580 28.045 L-2.394 27.258 L-2.170 26.473 L-1.905 25.692 L-1.595 24.917 L-1.234 24.150 L-0.820 23.394 L-0.351 22.652 L0.173 21.925 L0.752 21.217 L1.382 20.528 L2.059 19.860 L2.779 19.212 L3.536 18.585 L4.324 17.975 L5.139 17.383 L5.977 16.806 L6.834 16.242 L7.710 15.691 L8.604 15.152 L9.516 14.626 L10.449 14.114 L11.404 13.617 L12.384 13.139 L13.390 12.683 L14.423 12.252 L15.483 11.849 L16.571 11.478 L17.683 11.140 L18.818 10.836 L19.973 10.565 L21.144 10.328 L22.327 10.122 L23.520 9.944 L24.720 9.791 L25.925 9.660 L27.133 9.548 L28.345 9.454 L29.560 9.377 L30.778 9.315 L32.000 9.272 L33.225 9.248 L34.453 9.247 L35.682 9.272 L36.911 9.327 L38.137 9.416 L39.356 9.540 L40.565 9.703 L41.761 9.906 L42.941 10.146 L44.100 10.425 L45.238 10.737 L46.354 11.082 L47.446 11.454 L48.516 11.851 L49.564 12.267 L50.593 12.702 L51.604 13.152 L52.597 13.616 L53.573 14.094 L54.532 14.586 L55.471 15.094 L56.388 15.620 L57.280 16.165 L58.141 16.731 L58.968 17.320 L59.756 17.931 L60.501 18.566 L61.200 19.222 L61.852 19.899 L62.455 20.594 L63.012 21.305 L63.524 22.029 L63.995 22.762 L64.430 23.504 L64.832 24.253 L65.204 25.006 L65.551 25.763 L65.873 26.525 L66.171 27.291 L66.443 28.062 L66.686 28.839 L66.895 29.621 L67.067 30.409 L67.195 31.203 L67.274 32.000 Z" fill="none" stroke="#fff" stroke-opacity="0.18" stroke-width="0.055"/>
    <path d="M69.259 32.000 L69.240 32.844 L69.159 33.686 L69.017 34.525 L68.817 35.358 L68.564 36.183 L68.262 37.000 L67.918 37.809 L67.537 38.609 L67.122 39.401 L66.678 40.185 L66.205 40.962 L65.703 41.731 L65.173 42.493 L64.611 43.246 L64.014 43.988 L63.379 44.719 L62.703 45.434 L61.983 46.132 L61.217 46.809 L60.405 47.463 L59.547 48.091 L58.647 48.693 L57.708 49.268 L56.733 49.816 L55.727 50.338 L54.695 50.836 L53.640 51.313 L52.568 51.770 L51.479 52.210 L50.376 52.635 L49.259 53.044 L48.128 53.440 L46.982 53.819 L45.819 54.180 L44.638 54.521 L43.439 54.836 L42.220 55.124 L40.984 55.378 L39.730 55.597 L38.461 55.778 L37.180 55.918 L35.890 56.018 L34.595 56.078 L33.297 56.099 L32.000 56.086 L30.706 56.040 L29.417 55.965 L28.133 55.865 L26.855 55.742 L25.584 55.599 L24.319 55.437 L23.060 55.255 L21.809 55.052 L20.565 54.828 L19.332 54.579 L18.111 54.302 L16.906 53.995 L15.721 53.656 L14.560 53.282 L13.426 52.874 L12.324 52.431 L11.254 51.955 L10.219 51.448 L9.219 50.913 L8.254 50.354 L7.321 49.775 L6.417 49.177 L5.542 48.565 L4.691 47.941 L3.862 47.306 L3.054 46.661 L2.268 46.005 L1.503 45.337 L0.764 44.656 L0.053 43.961 L-0.624 43.251 L-1.262 42.523 L-1.856 41.779 L-2.401 41.017 L-2.892 40.240 L-3.328 39.448 L-3.706 38.643 L-4.027 37.828 L-4.293 37.005 L-4.507 36.176 L-4.673 35.343 L-4.795 34.509 L-4.879 33.673 L-4.927 32.836 L-4.942 32.000 L-4.926 31.164 L-4.878 30.327 L-4.796 29.491 L-4.679 28.656 L-4.521 27.822 L-4.317 26.991 L-4.065 26.165 L-3.759 25.346 L-3.396 24.537 L-2.975 23.739 L-2.497 22.955 L-1.961 22.188 L-1.372 21.439 L-0.734 20.708 L-0.052 19.996 L0.669 19.302 L1.422 18.625 L2.204 17.963 L3.010 17.315 L3.838 16.680 L4.687 16.056 L5.556 15.444 L6.446 14.844 L7.361 14.257 L8.301 13.686 L9.271 13.133 L10.271 12.602 L11.303 12.096 L12.368 11.619 L13.465 11.173 L14.593 10.761 L15.748 10.383 L16.928 10.039 L18.129 9.729 L19.347 9.451 L20.579 9.201 L21.821 8.978 L23.072 8.778 L24.330 8.600 L25.594 8.441 L26.864 8.300 L28.140 8.179 L29.421 8.077 L30.708 7.998 L32.000 7.945 L33.296 7.921 L34.594 7.930 L35.891 7.975 L37.185 8.058 L38.471 8.182 L39.746 8.348 L41.008 8.554 L42.252 8.798 L43.478 9.079 L44.683 9.392 L45.868 9.734 L47.032 10.101 L48.178 10.489 L49.305 10.896 L50.415 11.318 L51.510 11.756 L52.588 12.209 L53.651 12.677 L54.695 13.164 L55.718 13.669 L56.717 14.196 L57.687 14.747 L58.624 15.322 L59.523 15.924 L60.381 16.551 L61.194 17.204 L61.961 17.879 L62.681 18.576 L63.355 19.292 L63.985 20.024 L64.574 20.768 L65.127 21.523 L65.645 22.287 L66.134 23.058 L66.595 23.836 L67.028 24.620 L67.435 25.411 L67.812 26.209 L68.156 27.015 L68.464 27.829 L68.729 28.651 L68.945 29.480 L69.109 30.316 L69.214 31.157 L69.259 32.000 Z" fill="none" stroke="#fff" stroke-opacity="0.18" stroke-width="0.055"/>
    <path d="M71.077 32.000 L71.011 32.884 L70.886 33.764 L70.707 34.639 L70.479 35.508 L70.207 36.369 L69.897 37.224 L69.553 38.072 L69.178 38.913 L68.774 39.747 L68.339 40.576 L67.873 41.398 L67.374 42.213 L66.836 43.019 L66.258 43.814 L65.634 44.596 L64.963 45.361 L64.242 46.108 L63.471 46.833 L62.650 47.534 L61.782 48.211 L60.871 48.862 L59.920 49.488 L58.934 50.089 L57.918 50.666 L56.875 51.223 L55.810 51.761 L54.725 52.281 L53.622 52.785 L52.500 53.273 L51.360 53.746 L50.201 54.200 L49.021 54.635 L47.818 55.047 L46.592 55.432 L45.342 55.786 L44.070 56.106 L42.776 56.387 L41.462 56.629 L40.132 56.828 L38.789 56.986 L37.436 57.102 L36.078 57.179 L34.718 57.219 L33.358 57.227 L32.000 57.205 L30.646 57.156 L29.295 57.085 L27.950 56.992 L26.608 56.879 L25.272 56.746 L23.940 56.591 L22.615 56.412 L21.298 56.207 L19.991 55.974 L18.698 55.708 L17.422 55.408 L16.166 55.072 L14.935 54.699 L13.731 54.290 L12.556 53.846 L11.414 53.370 L10.303 52.863 L9.223 52.331 L8.173 51.776 L7.151 51.201 L6.155 50.610 L5.182 50.004 L4.232 49.385 L3.302 48.753 L2.393 48.108 L1.508 47.448 L0.649 46.772 L-0.179 46.078 L-0.972 45.365 L-1.724 44.632 L-2.430 43.878 L-3.084 43.104 L-3.683 42.310 L-4.224 41.497 L-4.705 40.669 L-5.127 39.828 L-5.493 38.976 L-5.805 38.115 L-6.067 37.249 L-6.283 36.379 L-6.459 35.506 L-6.597 34.631 L-6.701 33.755 L-6.771 32.878 L-6.807 32.000 L-6.807 31.121 L-6.768 30.242 L-6.686 29.362 L-6.557 28.485 L-6.375 27.610 L-6.138 26.740 L-5.842 25.878 L-5.485 25.026 L-5.069 24.185 L-4.593 23.359 L-4.063 22.548 L-3.482 21.753 L-2.855 20.975 L-2.188 20.212 L-1.486 19.464 L-0.754 18.730 L0.005 18.009 L0.788 17.299 L1.594 16.599 L2.425 15.911 L3.281 15.234 L4.165 14.570 L5.081 13.922 L6.030 13.293 L7.015 12.685 L8.038 12.103 L9.100 11.551 L10.200 11.030 L11.335 10.543 L12.504 10.090 L13.703 9.673 L14.927 9.290 L16.174 8.940 L17.438 8.619 L18.716 8.326 L20.006 8.058 L21.306 7.813 L22.615 7.588 L23.933 7.384 L25.258 7.201 L26.592 7.040 L27.934 6.904 L29.283 6.795 L30.639 6.718 L32.000 6.676 L33.363 6.671 L34.725 6.707 L36.084 6.785 L37.435 6.906 L38.775 7.068 L40.102 7.269 L41.413 7.507 L42.708 7.778 L43.984 8.079 L45.243 8.404 L46.486 8.752 L47.713 9.118 L48.925 9.502 L50.124 9.901 L51.308 10.318 L52.478 10.752 L53.631 11.205 L54.765 11.681 L55.875 12.181 L56.958 12.707 L58.009 13.262 L59.024 13.846 L59.998 14.460 L60.929 15.102 L61.814 15.771 L62.653 16.464 L63.447 17.179 L64.197 17.914 L64.905 18.664 L65.576 19.428 L66.213 20.203 L66.817 20.988 L67.391 21.781 L67.936 22.584 L68.451 23.395 L68.933 24.216 L69.379 25.047 L69.784 25.888 L70.144 26.739 L70.451 27.600 L70.703 28.470 L70.893 29.347 L71.019 30.229 L71.081 31.114 L71.077 32.000 Z" fill="none" stroke="#fff" stroke-opacity="0.18" stroke-width="0.055"/>
    <path d="M72.748 32.000 L72.658 32.921 L72.519 33.838 L72.337 34.749 L72.117 35.656 L71.861 36.557 L71.574 37.454 L71.255 38.345 L70.904 39.233 L70.520 40.115 L70.098 40.992 L69.635 41.861 L69.127 42.721 L68.570 43.569 L67.961 44.403 L67.297 45.220 L66.578 46.017 L65.805 46.793 L64.980 47.544 L64.105 48.272 L63.187 48.975 L62.229 49.654 L61.236 50.311 L60.213 50.947 L59.163 51.564 L58.088 52.162 L56.991 52.744 L55.872 53.309 L54.730 53.857 L53.565 54.385 L52.374 54.892 L51.156 55.374 L49.911 55.827 L48.637 56.248 L47.336 56.633 L46.009 56.979 L44.659 57.284 L43.287 57.546 L41.899 57.765 L40.498 57.942 L39.088 58.081 L37.672 58.182 L36.254 58.251 L34.835 58.290 L33.416 58.303 L32.000 58.293 L30.586 58.261 L29.174 58.208 L27.764 58.134 L26.357 58.037 L24.953 57.916 L23.555 57.767 L22.164 57.588 L20.783 57.374 L19.415 57.125 L18.065 56.837 L16.735 56.510 L15.429 56.145 L14.148 55.742 L12.896 55.305 L11.673 54.835 L10.478 54.337 L9.311 53.813 L8.170 53.268 L7.054 52.704 L5.960 52.122 L4.888 51.524 L3.838 50.911 L2.809 50.281 L1.806 49.633 L0.830 48.965 L-0.114 48.277 L-1.021 47.565 L-1.884 46.830 L-2.700 46.070 L-3.462 45.287 L-4.168 44.480 L-4.814 43.652 L-5.399 42.806 L-5.925 41.943 L-6.393 41.067 L-6.806 40.180 L-7.170 39.286 L-7.487 38.386 L-7.763 37.482 L-8.000 36.574 L-8.202 35.664 L-8.370 34.752 L-8.502 33.837 L-8.596 32.919 L-8.651 32.000 L-8.660 31.079 L-8.620 30.157 L-8.526 29.237 L-8.374 28.319 L-8.161 27.406 L-7.887 26.500 L-7.549 25.603 L-7.152 24.717 L-6.697 23.844 L-6.189 22.985 L-5.634 22.139 L-5.035 21.308 L-4.400 20.489 L-3.731 19.682 L-3.033 18.887 L-2.307 18.101 L-1.553 17.326 L-0.771 16.562 L0.041 15.809 L0.887 15.069 L1.770 14.345 L2.691 13.640 L3.656 12.957 L4.663 12.301 L5.716 11.674 L6.812 11.079 L7.949 10.519 L9.126 9.994 L10.337 9.504 L11.578 9.049 L12.845 8.628 L14.133 8.236 L15.440 7.873 L16.761 7.535 L18.095 7.221 L19.440 6.929 L20.796 6.659 L22.163 6.410 L23.541 6.185 L24.929 5.986 L26.328 5.816 L27.736 5.679 L29.152 5.578 L30.575 5.515 L32.000 5.494 L33.425 5.516 L34.848 5.580 L36.263 5.687 L37.669 5.833 L39.063 6.017 L40.445 6.234 L41.812 6.481 L43.165 6.753 L44.504 7.049 L45.831 7.364 L47.145 7.698 L48.448 8.049 L49.739 8.420 L51.016 8.811 L52.278 9.224 L53.523 9.662 L54.745 10.128 L55.941 10.624 L57.106 11.153 L58.236 11.714 L59.326 12.309 L60.373 12.936 L61.376 13.594 L62.333 14.280 L63.245 14.991 L64.113 15.724 L64.939 16.476 L65.727 17.244 L66.479 18.026 L67.198 18.820 L67.885 19.625 L68.541 20.441 L69.164 21.268 L69.752 22.106 L70.302 22.956 L70.808 23.819 L71.266 24.694 L71.671 25.582 L72.017 26.480 L72.301 27.389 L72.519 28.305 L72.672 29.226 L72.759 30.151 L72.783 31.076 L72.748 32.000 Z" fill="none" stroke="#fff" stroke-opacity="0.18" stroke-width="0.055"/>
    <path d="M74.396 32.000 L74.320 32.958 L74.205 33.913 L74.054 34.866 L73.869 35.815 L73.651 36.761 L73.398 37.705 L73.107 38.646 L72.776 39.582 L72.399 40.513 L71.972 41.437 L71.491 42.350 L70.952 43.251 L70.353 44.136 L69.693 45.003 L68.974 45.850 L68.197 46.675 L67.367 47.477 L66.487 48.255 L65.563 49.010 L64.600 49.744 L63.602 50.456 L62.574 51.149 L61.517 51.824 L60.434 52.482 L59.325 53.121 L58.189 53.742 L57.026 54.344 L55.833 54.922 L54.610 55.475 L53.354 55.998 L52.067 56.489 L50.747 56.942 L49.398 57.357 L48.020 57.730 L46.618 58.060 L45.195 58.348 L43.755 58.595 L42.302 58.803 L40.840 58.976 L39.372 59.115 L37.901 59.226 L36.427 59.311 L34.952 59.373 L33.476 59.413 L32.000 59.431 L30.523 59.428 L29.045 59.401 L27.568 59.347 L26.092 59.264 L24.620 59.148 L23.154 58.995 L21.698 58.804 L20.255 58.573 L18.828 58.299 L17.422 57.984 L16.038 57.629 L14.679 57.236 L13.346 56.809 L12.039 56.350 L10.758 55.863 L9.501 55.351 L8.268 54.818 L7.057 54.264 L5.868 53.691 L4.701 53.100 L3.557 52.488 L2.439 51.856 L1.349 51.201 L0.293 50.522 L-0.724 49.817 L-1.698 49.084 L-2.623 48.324 L-3.494 47.537 L-4.307 46.723 L-5.062 45.886 L-5.756 45.027 L-6.390 44.149 L-6.968 43.256 L-7.491 42.350 L-7.966 41.435 L-8.394 40.512 L-8.782 39.584 L-9.132 38.650 L-9.446 37.712 L-9.725 36.771 L-9.968 35.825 L-10.173 34.874 L-10.336 33.920 L-10.453 32.961 L-10.518 32.000 L-10.528 31.037 L-10.477 30.073 L-10.363 29.112 L-10.185 28.154 L-9.942 27.203 L-9.636 26.259 L-9.270 25.326 L-8.848 24.403 L-8.375 23.492 L-7.857 22.593 L-7.298 21.704 L-6.702 20.827 L-6.073 19.959 L-5.411 19.101 L-4.718 18.253 L-3.991 17.415 L-3.228 16.589 L-2.426 15.776 L-1.583 14.979 L-0.694 14.201 L0.243 13.446 L1.230 12.718 L2.267 12.019 L3.353 11.353 L4.485 10.720 L5.661 10.123 L6.876 9.562 L8.125 9.034 L9.404 8.540 L10.707 8.076 L12.031 7.640 L13.372 7.229 L14.729 6.842 L16.100 6.477 L17.483 6.134 L18.881 5.814 L20.291 5.518 L21.716 5.248 L23.155 5.007 L24.606 4.800 L26.070 4.630 L27.544 4.499 L29.026 4.410 L30.512 4.364 L32.000 4.362 L33.486 4.402 L34.967 4.483 L36.440 4.601 L37.905 4.753 L39.359 4.937 L40.803 5.147 L42.236 5.381 L43.660 5.637 L45.073 5.913 L46.477 6.210 L47.871 6.529 L49.253 6.871 L50.621 7.238 L51.973 7.635 L53.303 8.063 L54.609 8.526 L55.885 9.024 L57.126 9.560 L58.328 10.133 L59.489 10.742 L60.606 11.385 L61.678 12.059 L62.705 12.762 L63.688 13.489 L64.631 14.238 L65.534 15.005 L66.402 15.788 L67.236 16.585 L68.037 17.395 L68.806 18.218 L69.541 19.053 L70.240 19.902 L70.899 20.765 L71.515 21.643 L72.080 22.536 L72.592 23.443 L73.044 24.364 L73.434 25.297 L73.758 26.241 L74.016 27.193 L74.209 28.152 L74.339 29.113 L74.411 30.076 L74.428 31.039 L74.396 32.000 Z" fill="none" stroke="#fff" stroke-opacity="0.18" stroke-width="0.055"/>
    <path d="M76.158 32.000 L76.123 32.999 L76.051 33.997 L75.943 34.995 L75.796 35.991 L75.607 36.986 L75.373 37.979 L75.088 38.969 L74.747 39.952 L74.347 40.927 L73.883 41.891 L73.353 42.841 L72.758 43.775 L72.097 44.690 L71.375 45.585 L70.593 46.457 L69.759 47.308 L68.876 48.136 L67.950 48.943 L66.986 49.730 L65.988 50.498 L64.958 51.247 L63.899 51.979 L62.810 52.693 L61.692 53.389 L60.542 54.064 L59.360 54.717 L58.143 55.343 L56.890 55.941 L55.601 56.505 L54.276 57.033 L52.916 57.523 L51.524 57.971 L50.103 58.379 L48.656 58.744 L47.189 59.070 L45.705 59.358 L44.208 59.611 L42.701 59.832 L41.187 60.024 L39.667 60.191 L38.142 60.335 L36.613 60.456 L35.080 60.554 L33.542 60.629 L32.000 60.679 L30.455 60.700 L28.907 60.689 L27.359 60.642 L25.813 60.556 L24.273 60.428 L22.743 60.257 L21.225 60.040 L19.723 59.779 L18.240 59.475 L16.779 59.130 L15.341 58.748 L13.927 58.331 L12.537 57.884 L11.170 57.409 L9.826 56.910 L8.503 56.388 L7.202 55.845 L5.923 55.280 L4.667 54.692 L3.437 54.081 L2.236 53.445 L1.069 52.781 L-0.059 52.088 L-1.144 51.365 L-2.181 50.611 L-3.164 49.828 L-4.091 49.015 L-4.960 48.176 L-5.771 47.313 L-6.524 46.429 L-7.221 45.527 L-7.866 44.611 L-8.463 43.683 L-9.016 42.746 L-9.529 41.801 L-10.005 40.849 L-10.446 39.891 L-10.851 38.927 L-11.219 37.957 L-11.548 36.979 L-11.834 35.995 L-12.071 35.004 L-12.255 34.007 L-12.380 33.005 L-12.442 32.000 L-12.439 30.993 L-12.367 29.987 L-12.227 28.984 L-12.022 27.987 L-11.752 26.996 L-11.424 26.013 L-11.041 25.040 L-10.610 24.076 L-10.133 23.122 L-9.616 22.177 L-9.061 21.241 L-8.469 20.315 L-7.840 19.398 L-7.173 18.490 L-6.466 17.594 L-5.714 16.712 L-4.915 15.845 L-4.066 14.998 L-3.163 14.173 L-2.205 13.375 L-1.193 12.605 L-0.126 11.867 L0.991 11.163 L2.156 10.492 L3.363 9.857 L4.608 9.254 L5.885 8.684 L7.190 8.142 L8.518 7.628 L9.866 7.139 L11.232 6.672 L12.615 6.228 L14.014 5.804 L15.429 5.404 L16.861 5.027 L18.311 4.677 L19.779 4.357 L21.264 4.071 L22.766 3.822 L24.284 3.613 L25.814 3.447 L27.354 3.324 L28.900 3.246 L30.450 3.211 L32.000 3.218 L33.547 3.264 L35.090 3.345 L36.626 3.458 L38.155 3.600 L39.677 3.767 L41.192 3.959 L42.699 4.175 L44.198 4.413 L45.689 4.676 L47.170 4.966 L48.639 5.286 L50.092 5.638 L51.525 6.026 L52.935 6.452 L54.316 6.918 L55.664 7.424 L56.975 7.972 L58.245 8.558 L59.473 9.182 L60.658 9.840 L61.799 10.528 L62.898 11.243 L63.956 11.982 L64.977 12.741 L65.963 13.517 L66.915 14.309 L67.835 15.115 L68.723 15.936 L69.577 16.771 L70.396 17.623 L71.174 18.490 L71.909 19.374 L72.594 20.276 L73.225 21.195 L73.796 22.131 L74.306 23.082 L74.750 24.048 L75.128 25.024 L75.442 26.010 L75.693 27.003 L75.886 28.000 L76.024 28.999 L76.112 30.000 L76.156 31.000 L76.158 32.000 Z" fill="none" stroke="#fff" stroke-opacity="0.18" stroke-width="0.055"/>
    <path d="M32 0V64M0 32H64" fill="none" stroke="#fff" stroke-opacity="0.10" stroke-width="0.05"/>
</g>
<g transform="translate(32 32)">
  <g transform="rotate(45)">
    <g transform="scale(1.55)">
      <g transform="translate(-9.549 -9.5495)">
        <path fill="#fff" fill-rule="nonzero" d="M11.731 3.43c1.295 2.776 4.11 4.706 7.367 4.706v2.827h-.028c-4.479 0-8.124 3.65-8.124 8.136H8.122v-.002c0-4.096 2.255-7.675 5.588-9.556a11 11 0 0 1-3.387-2.992c.616-.97 1.09-2.02 1.408-3.12M10.946 0c0 2.929-1.138 5.68-3.207 7.752a11 11 0 0 1-2.346 1.793c1.32.751 2.469 1.77 3.375 2.98a12.2 12.2 0 0 0-1.415 3.101c-1.25-2.655-3.894-4.529-6.98-4.669q-.187.006-.373.006V8.12q.188 0 .373.006a8.07 8.07 0 0 0 5.372-2.374A8.08 8.08 0 0 0 8.122 0z"/>
      </g>
    </g>
  </g>
</g>
</svg>
