<svg xmlns="http://www.w3.org/2000/svg" width="250" height="70" viewBox="0 0 250 70" role="img" aria-label="seams">
  <g fill="#fff" fill-rule="nonzero" transform="translate(0 55.1) scale(0.070000 -0.070000)">
    <path d="M232 -10Q177 -10 136.0 6.0Q95 22 66.5 46.0Q38 70 21 92L106 166Q123 138 154.5 114.5Q186 91 233 91Q270 91 290.5 105.5Q311 120 311 142Q311 160 298.0 171.5Q285 183 263.0 190.5Q241 198 214 205Q186 213 156.0 223.0Q126 233 101.0 249.5Q76 266 60.5 292.0Q45 318 45 357Q45 422 96.0 462.5Q147 503 231 503Q290 503 338.0 479.5Q386 456 414 412L337 351Q319 380 289.5 394.5Q260 409 227 409Q198 409 179.5 398.0Q161 387 161 368Q161 355 169.5 346.0Q178 337 197.5 330.5Q217 324 249 316Q279 309 311.0 299.0Q343 289 371.0 272.0Q399 255 416.0 227.0Q433 199 433 156Q433 107 408.0 69.5Q383 32 338.0 11.0Q293 -10 232 -10Z" transform="translate(0 0)"/>
    <path d="M281 -10Q217 -10 171.0 11.0Q125 32 95.5 67.5Q66 103 52.0 148.5Q38 194 38 244Q38 292 52.0 338.0Q66 384 94.0 421.0Q122 458 166.5 480.5Q211 503 273 503Q331 503 374.0 483.5Q417 464 445.0 429.5Q473 395 487.5 349.0Q502 303 502 251Q502 244 501.5 231.5Q501 219 499 205H162Q167 152 201.5 125.0Q236 98 288 98Q326 98 362.0 111.5Q398 125 426 150L488 66Q453 39 422.0 22.0Q391 5 357.5 -2.5Q324 -10 281 -10ZM379 267Q381 275 382.5 283.0Q384 291 384 298Q384 319 376.0 337.5Q368 356 354.0 370.0Q340 384 320.5 391.5Q301 399 276 399Q239 399 214.0 384.0Q189 369 176.5 345.5Q164 322 161 297H421Z" transform="translate(452 0)"/>
    <path d="M377 0 367 74V311Q367 355 339.5 376.5Q312 398 265 398Q226 398 185.5 382.5Q145 367 114 339L51 424Q103 466 157.5 484.5Q212 503 275 503Q377 503 434.0 452.0Q491 401 491 311V0ZM228 -10Q174 -10 131.5 10.0Q89 30 64.5 67.0Q40 104 40 152Q40 195 57.5 225.5Q75 256 104 272Q129 287 159.5 293.0Q190 299 225 299H378V207H243Q227 207 211.5 204.5Q196 202 185 193Q175 186 170.0 175.5Q165 165 165 152Q165 124 187.0 107.0Q209 90 246 90Q279 90 306.5 104.5Q334 119 350.5 144.5Q367 170 367 203L400 137Q387 85 360.5 52.5Q334 20 300.0 5.0Q266 -10 228 -10Z" transform="translate(973 0)"/>
    <path d="M61 0V493H186V365L159 344Q166 391 183.0 422.0Q200 453 223.5 470.5Q247 488 272.5 495.5Q298 503 323 503Q362 503 397.0 488.5Q432 474 458.0 439.0Q484 404 494 343L420 316Q435 386 463.5 427.0Q492 468 529.5 485.5Q567 503 609 503Q672 503 711.0 475.0Q750 447 768.5 403.5Q787 360 787 311V0H663V281Q663 318 653.5 343.5Q644 369 626.0 382.0Q608 395 579 395Q549 395 528.0 379.0Q507 363 496.5 331.0Q486 299 486 249V0H362V283Q362 339 341.5 367.0Q321 395 282 395Q251 395 229.5 379.0Q208 363 197.0 331.0Q186 299 186 249V0Z" transform="translate(1499 0)"/>
    <path d="M232 -10Q177 -10 136.0 6.0Q95 22 66.5 46.0Q38 70 21 92L106 166Q123 138 154.5 114.5Q186 91 233 91Q270 91 290.5 105.5Q311 120 311 142Q311 160 298.0 171.5Q285 183 263.0 190.5Q241 198 214 205Q186 213 156.0 223.0Q126 233 101.0 249.5Q76 266 60.5 292.0Q45 318 45 357Q45 422 96.0 462.5Q147 503 231 503Q290 503 338.0 479.5Q386 456 414 412L337 351Q319 380 289.5 394.5Q260 409 227 409Q198 409 179.5 398.0Q161 387 161 368Q161 355 169.5 346.0Q178 337 197.5 330.5Q217 324 249 316Q279 309 311.0 299.0Q343 289 371.0 272.0Q399 255 416.0 227.0Q433 199 433 156Q433 107 408.0 69.5Q383 32 338.0 11.0Q293 -10 232 -10Z" transform="translate(2322 0)"/>
  </g>
  <svg x="200.58" y="13.85" width="48" height="48" viewBox="19.969586 19.967394 24.047676 24.047676" aria-hidden="true">
    <g transform="translate(32 32) rotate(45) scale(1.55) translate(-9.549 -9.5495)">
      <path fill="#fff" stroke="#fff" stroke-width="0.25" stroke-linejoin="round" fill-rule="nonzero" d="M11.731 3.43c1.295 2.776 4.11 4.706 7.367 4.706v2.827h-.028c-4.479 0-8.124 3.65-8.124 8.136H8.122v-.002c0-4.096 2.255-7.675 5.588-9.556a11 11 0 0 1-3.387-2.992c.616-.97 1.09-2.02 1.408-3.12M10.946 0c0 2.929-1.138 5.68-3.207 7.752a11 11 0 0 1-2.346 1.793c1.32.751 2.469 1.77 3.375 2.98a12.2 12.2 0 0 0-1.415 3.101c-1.25-2.655-3.894-4.529-6.98-4.669q-.187.006-.373.006V8.12q.188 0 .373.006a8.07 8.07 0 0 0 5.372-2.374A8.08 8.08 0 0 0 8.122 0z"/>
    </g>
  </svg>
</svg>
