<svg xmlns="http://www.w3.org/2000/svg" width="257" height="70" viewBox="0 0 257 70" role="img" aria-label="Seams">
  <g fill="#0a0a0a" transform="translate(0 55.1) scale(0.066000 -0.066000)">
    <path d="M296 -11C332 -11 366 -6 398 4C430 14 458.3333282470703 28 483.0 46C510.3333282470703 67.33332824707031 531.3333282470703 92.5 546.0 121.5C560.6666717529297 150.5 568.0 182.3333282470703 568.0 217.0C568.0 251.6666717529297 561.1666717529297 281.5 547.5 306.5C533.8333282470703 331.5 513.0 352.3333282470703 485.0 369.0C469.0 379.0 449.8333282470703 388.0 427.5 396.0C405.1666717529297 404.0 367.0 414.0 313.0 426.0C283.6666717529297 432.6666717529297 262.5 437.8333282470703 249.5 441.5C236.5 445.1666717529297 225.6666717529297 448.6666717529297 217.0 452.0C197.0 460.0 182.6666717529297 469.6666717529297 174.0 481.0C165.3333282470703 492.3333282470703 161.0 506.6666717529297 161.0 524.0C161.0 552.6666717529297 173.0 575.8333282470703 197.0 593.5C221.0 611.1666717529297 252.3333282470703 620.0 291.0 620.0C328.3333282470703 620.0 361.3333282470703 611.5 390.0 594.5C418.6666717529297 577.5 444.6666717529297 551.0 468.0 515.0L562.0 596.0C536.0 636.6666717529297 499.1666717529297 669.0 451.5 693.0C403.8333282470703 717.0 351.6666717529297 729.0 295.0 729.0C260.3333282470703 729.0 227.6666717529297 724.3333282470703 197.0 715.0C166.3333282470703 705.6666717529297 139.6666717529297 692.0 117.0 674.0C90.33332824707031 654.0 70.16667175292969 630.1666717529297 56.5 602.5C42.83332824707031 574.8333282470703 36.0 544.3333282470703 36.0 511.0C36.0 479.6666717529297 41.83332824707031 452.3333282470703 53.5 429.0C65.16667175292969 405.6666717529297 82.66667175292969 386.0 106.0 370.0C122.0 359.3333282470703 141.1666717529297 349.6666717529297 163.5 341.0C185.8333282470703 332.3333282470703 218.0 323.0 260.0 313.0C266.0 311.6666717529297 277.6666717529297 308.8333282470703 295.0 304.5C312.3333282470703 300.1666717529297 325.6666717529297 297.0 335.0 295.0C352.3333282470703 290.3333282470703 366.6666717529297 285.8333282470703 378.0 281.5C389.3333282470703 277.1666717529297 399.0 272.3333282470703 407.0 267.0C419.0 259.6666717529297 427.8333282470703 250.8333282470703 433.5 240.5C439.1666717529297 230.1666717529297 442.0 218.0 442.0 204.0C442.0 171.3333282470703 429.1666717529297 145.5 403.5 126.5C377.8333282470703 107.5 343.3333282470703 98.0 300.0 98.0C259.3333282470703 98.0 221.0 108.66667175292969 185.0 130.0C149.0 151.3333282470703 118.33332824707031 181.6666717529297 93.0 221.0L-5.0 140.0C22.333328247070312 94.66667175292969 63.66667175292969 58.16667175292969 119.0 30.5C174.3333282470703 2.8333282470703125 233.3333282470703 -11.0 296.0 -11.0Z" transform="translate(0 0)"/>
    <path d="M285 -11C337 -11 382.8333282470703 2 422.5 28C462.1666717529297 54 491.3333282470703 90 510.0 136L407.0 175C399.0 149 384.1666717529297 128.5 362.5 113.5C340.8333282470703 98.5 315.0 91.0 285.0 91.0C246.3333282470703 91.0 214.5 104.0 189.5 130.0C164.5 156.0 149.6666717529297 191.3333282470703 145.0 236.0H513.0V276.0C513.0 353.3333282470703 492.0 415.8333282470703 450.0 463.5C408.0 511.1666717529297 351.3333282470703 535.0 280.0 535.0C244.0 535.0 210.3333282470703 528.0 179.0 514.0C147.6666717529297 500.0 120.33332824707031 479.6666717529297 97.0 453.0C75.66667175292969 428.3333282470703 59.16667175292969 399.5 47.5 366.5C35.83332824707031 333.5 30.0 298.6666717529297 30.0 262.0C30.0 223.3333282470703 35.83332824707031 187.5 47.5 154.5C59.16667175292969 121.5 76.0 92.66667175292969 98.0 68.0C121.33332824707031 42.66667175292969 149.0 23.166671752929688 181.0 9.5C213.0 -4.1666717529296875 247.6666717529297 -11.0 285.0 -11.0ZM279.0 434.0C313.6666717529297 434.0 341.0 424.1666717529297 361.0 404.5C381.0 384.8333282470703 391.3333282470703 358.6666717529297 392.0 326.0H151.0C159.6666717529297 360.6666717529297 175.1666717529297 387.3333282470703 197.5 406.0C219.8333282470703 424.6666717529297 247.0 434.0 279.0 434.0Z" transform="translate(590 0)"/>
    <path d="M358 50C367.3333282470703 28 384.1666717529297 13 408.5 5C432.8333282470703 -3 466.3333282470703 -4.6666717529296875 509.0 0.0V93.0C492.3333282470703 91.0 480.5 92.66667175292969 473.5 98.0C466.5 103.33332824707031 463.0 113.33332824707031 463.0 128.0V354.0C463.0 412.6666717529297 445.6666717529297 457.5 411.0 488.5C376.3333282470703 519.5 326.3333282470703 535.0 261.0 535.0C207.0 535.0 160.5 521.0 121.5 493.0C82.5 465.0 56.0 427.3333282470703 42.0 380.0L155.0 354.0C162.3333282470703 380.6666717529297 174.1666717529297 400.1666717529297 190.5 412.5C206.8333282470703 424.8333282470703 228.6666717529297 431.0 256.0 431.0C286.0 431.0 308.5 424.1666717529297 323.5 410.5C338.5 396.8333282470703 346.0 376.6666717529297 346.0 350.0V341.0L201.0 311.0C141.0 298.3333282470703 96.66667175292969 278.5 68.0 251.5C39.33332824707031 224.5 25.0 189.3333282470703 25.0 146.0C25.0 100.66667175292969 41.66667175292969 63.5 75.0 34.5C108.33332824707031 5.5 150.6666717529297 -9.0 202.0 -9.0C235.3333282470703 -9.0 265.5 -3.8333282470703125 292.5 6.5C319.5 16.833328247070312 341.3333282470703 31.333328247070312 358.0 50.0ZM220.0 87.0C196.6666717529297 87.0 178.1666717529297 92.66667175292969 164.5 104.0C150.8333282470703 115.33332824707031 144.0 131.0 144.0 151.0C144.0 170.3333282470703 150.6666717529297 185.6666717529297 164.0 197.0C177.3333282470703 208.3333282470703 200.3333282470703 217.6666717529297 233.0 225.0L346.0 249.0V185.0C346.0 155.6666717529297 334.0 132.0 310.0 114.0C286.0 96.0 256.0 87.0 220.0 87.0Z" transform="translate(1130 0)"/>
    <path d="M287 423C315.6666717529297 423 337.5 413.5 352.5 394.5C367.5 375.5 375.0 347.6666717529297 375.0 311.0V0.0H495.0V308.0C495.0 342.0 505.0 369.6666717529297 525.0 391.0C545.0 412.3333282470703 569.6666717529297 423.0 599.0 423.0C627.6666717529297 423.0 649.5 413.5 664.5 394.5C679.5 375.5 687.0 347.6666717529297 687.0 311.0V0.0H807.0V346.0C807.0 402.6666717529297 790.6666717529297 448.3333282470703 758.0 483.0C725.3333282470703 517.6666717529297 682.3333282470703 535.0 629.0 535.0C597.6666717529297 535.0 568.5 529.0 541.5 517.0C514.5 505.0 489.3333282470703 486.6666717529297 466.0 462.0C450.6666717529297 486.0 431.1666717529297 504.1666717529297 407.5 516.5C383.8333282470703 528.8333282470703 357.0 535.0 327.0 535.0C297.6666717529297 535.0 270.8333282470703 529.5 246.5 518.5C222.1666717529297 507.5 201.0 491.0 183.0 469.0V525.0H63.0V0.0H183.0V308.0C183.0 342.0 193.0 369.6666717529297 213.0 391.0C233.0 412.3333282470703 257.6666717529297 423.0 287.0 423.0Z" transform="translate(1628 0)"/>
    <path d="M249 -11C311 -11 362.5 5.3333282470703125 403.5 38.0C444.5 70.66667175292969 465.0 112.33332824707031 465.0 163.0C465.0 189.6666717529297 459.5 212.6666717529297 448.5 232.0C437.5 251.3333282470703 420.6666717529297 267.3333282470703 398.0 280.0C385.3333282470703 286.6666717529297 370.6666717529297 292.8333282470703 354.0 298.5C337.3333282470703 304.1666717529297 307.3333282470703 311.6666717529297 264.0 321.0C242.0 325.6666717529297 227.1666717529297 329.0 219.5 331.0C211.8333282470703 333.0 205.3333282470703 334.6666717529297 200.0 336.0C186.0 341.3333282470703 175.8333282470703 347.3333282470703 169.5 354.0C163.1666717529297 360.6666717529297 160.0 369.3333282470703 160.0 380.0C160.0 397.3333282470703 167.3333282470703 411.1666717529297 182.0 421.5C196.6666717529297 431.8333282470703 216.3333282470703 437.0 241.0 437.0C269.6666717529297 437.0 296.0 430.5 320.0 417.5C344.0 404.5 363.6666717529297 386.3333282470703 379.0 363.0L460.0 436.0C440.6666717529297 466.0 411.6666717529297 490.0 373.0 508.0C334.3333282470703 526.0 292.6666717529297 535.0 248.0 535.0C188.0 535.0 138.8333282470703 519.5 100.5 488.5C62.16667175292969 457.5 43.0 417.6666717529297 43.0 369.0C43.0 344.3333282470703 47.66667175292969 323.0 57.0 305.0C66.33332824707031 287.0 80.33332824707031 271.6666717529297 99.0 259.0C111.66667175292969 251.0 126.66667175292969 244.1666717529297 144.0 238.5C161.3333282470703 232.8333282470703 187.0 226.3333282470703 221.0 219.0C242.3333282470703 214.3333282470703 259.5 210.6666717529297 272.5 208.0C285.5 205.3333282470703 294.0 203.3333282470703 298.0 202.0C316.6666717529297 196.6666717529297 329.6666717529297 190.1666717529297 337.0 182.5C344.3333282470703 174.8333282470703 348.0 164.6666717529297 348.0 152.0C348.0 131.3333282470703 339.1666717529297 115.33332824707031 321.5 104.0C303.8333282470703 92.66667175292969 280.0 87.0 250.0 87.0C220.0 87.0 191.0 94.83332824707031 163.0 110.5C135.0 126.16667175292969 113.33332824707031 146.6666717529297 98.0 172.0L8.0 100.0C30.666671752929688 66.0 63.66667175292969 39.0 107.0 19.0C150.3333282470703 -1.0 197.6666717529297 -11.0 249.0 -11.0Z" transform="translate(2479 0)"/>
  </g>
  <svg x="208" y="7" width="48" height="48" viewBox="19.969586 19.967394 24.047676 24.047676" aria-hidden="true">
    <g transform="translate(32 32) rotate(45) scale(1.55) translate(-9.549 -9.5495)">
      <path fill="#157f5f" fill-rule="nonzero" d="M11.731 3.43c1.295 2.776 4.11 4.706 7.367 4.706v2.827h-.028c-4.479 0-8.124 3.65-8.124 8.136H8.122v-.002c0-4.096 2.255-7.675 5.588-9.556a11 11 0 0 1-3.387-2.992c.616-.97 1.09-2.02 1.408-3.12M10.946 0c0 2.929-1.138 5.68-3.207 7.752a11 11 0 0 1-2.346 1.793c1.32.751 2.469 1.77 3.375 2.98a12.2 12.2 0 0 0-1.415 3.101c-1.25-2.655-3.894-4.529-6.98-4.669q-.187.006-.373.006V8.12q.188 0 .373.006a8.07 8.07 0 0 0 5.372-2.374A8.08 8.08 0 0 0 8.122 0z"/>
    </g>
  </svg>
</svg>
