<svg viewBox="0 0 1600 600" xmlns="http://www.w3.org/2000/svg">
  <defs>
    <linearGradient id="bgGrad" x1="0%" y1="0%" x2="0%" y2="100%">
      <stop offset="0%" stop-color="#2a3243" />
      <stop offset="100%" stop-color="#181e29" />
    </linearGradient>
    <filter id="glow" x="-20%" y="-20%" width="140%" height="140%">
      <feGaussianBlur stdDeviation="6" result="blur" />
      <feComposite in="SourceGraphic" in2="blur" operator="over" />
    </filter>
  </defs>
  <rect width="100%" height="100%" fill="url(#bgGrad)"/>
<g stroke="rgba(200, 225, 255, 0.05)" stroke-width="1">
<line x1="0" y1="0" x2="1600" y2="0"/>
<line x1="0" y1="0" x2="0" y2="600"/>
<line x1="0" y1="30" x2="1600" y2="30"/>
<line x1="61.53846153846154" y1="0" x2="61.53846153846154" y2="600"/>
<line x1="0" y1="60" x2="1600" y2="60"/>
<line x1="123.07692307692308" y1="0" x2="123.07692307692308" y2="600"/>
<line x1="0" y1="90" x2="1600" y2="90"/>
<line x1="184.6153846153846" y1="0" x2="184.6153846153846" y2="600"/>
<line x1="0" y1="120" x2="1600" y2="120"/>
<line x1="246.15384615384616" y1="0" x2="246.15384615384616" y2="600"/>
<line x1="0" y1="150" x2="1600" y2="150"/>
<line x1="307.6923076923077" y1="0" x2="307.6923076923077" y2="600"/>
<line x1="0" y1="180" x2="1600" y2="180"/>
<line x1="369.2307692307692" y1="0" x2="369.2307692307692" y2="600"/>
<line x1="0" y1="210" x2="1600" y2="210"/>
<line x1="430.7692307692308" y1="0" x2="430.7692307692308" y2="600"/>
<line x1="0" y1="240" x2="1600" y2="240"/>
<line x1="492.3076923076923" y1="0" x2="492.3076923076923" y2="600"/>
<line x1="0" y1="270" x2="1600" y2="270"/>
<line x1="553.8461538461538" y1="0" x2="553.8461538461538" y2="600"/>
<line x1="0" y1="300" x2="1600" y2="300"/>
<line x1="615.3846153846154" y1="0" x2="615.3846153846154" y2="600"/>
<line x1="0" y1="330" x2="1600" y2="330"/>
<line x1="676.9230769230769" y1="0" x2="676.9230769230769" y2="600"/>
<line x1="0" y1="360" x2="1600" y2="360"/>
<line x1="738.4615384615385" y1="0" x2="738.4615384615385" y2="600"/>
<line x1="0" y1="390" x2="1600" y2="390"/>
<line x1="800" y1="0" x2="800" y2="600"/>
<line x1="0" y1="420" x2="1600" y2="420"/>
<line x1="861.5384615384615" y1="0" x2="861.5384615384615" y2="600"/>
<line x1="0" y1="450" x2="1600" y2="450"/>
<line x1="923.0769230769231" y1="0" x2="923.0769230769231" y2="600"/>
<line x1="0" y1="480" x2="1600" y2="480"/>
<line x1="984.6153846153846" y1="0" x2="984.6153846153846" y2="600"/>
<line x1="0" y1="510" x2="1600" y2="510"/>
<line x1="1046.1538461538462" y1="0" x2="1046.1538461538462" y2="600"/>
<line x1="0" y1="540" x2="1600" y2="540"/>
<line x1="1107.6923076923076" y1="0" x2="1107.6923076923076" y2="600"/>
<line x1="0" y1="570" x2="1600" y2="570"/>
<line x1="1169.2307692307693" y1="0" x2="1169.2307692307693" y2="600"/>
<line x1="0" y1="600" x2="1600" y2="600"/>
<line x1="1230.7692307692307" y1="0" x2="1230.7692307692307" y2="600"/>
<line x1="0" y1="630" x2="1600" y2="630"/>
<line x1="1292.3076923076924" y1="0" x2="1292.3076923076924" y2="600"/>
<line x1="0" y1="660" x2="1600" y2="660"/>
<line x1="1353.8461538461538" y1="0" x2="1353.8461538461538" y2="600"/>
<line x1="0" y1="690" x2="1600" y2="690"/>
<line x1="1415.3846153846155" y1="0" x2="1415.3846153846155" y2="600"/>
<line x1="0" y1="720" x2="1600" y2="720"/>
<line x1="1476.923076923077" y1="0" x2="1476.923076923077" y2="600"/>
<line x1="0" y1="750" x2="1600" y2="750"/>
<line x1="1538.4615384615386" y1="0" x2="1538.4615384615386" y2="600"/>
<line x1="0" y1="780" x2="1600" y2="780"/>
<line x1="1600" y1="0" x2="1600" y2="600"/>
<path d="M -100 200 L 300 200 L 400 300 L 1700 300" fill="none" stroke="rgba(100, 150, 255, 0.1)" stroke-width="2"/>
<path d="M 500 700 L 500 400 L 600 300 L 600 -100" fill="none" stroke="rgba(100, 150, 255, 0.1)" stroke-width="2"/>
</g>
  <g id="phone-back-0">
    <g stroke="rgba(200, 225, 255, 0.3)" stroke-width="1" stroke-dasharray="2 2">
      <line x1="276.92089999999996" y1="412" x2="259.6003999999999" y2="422"/>
      <line x1="387.77209999999997" y1="476" x2="370.4516" y2="486"/>
      <line x1="276.92089999999996" y1="124" x2="259.6003999999999" y2="134"/>
      <line x1="387.77209999999997" y1="188" x2="370.4516" y2="198"/>
    </g>
    <g transform="matrix(0.866025, 0.5, 0, 1, 332.35, 300.00)">
      <rect x="-80" y="-160" width="160" height="320" rx="16" fill="rgba(32, 38, 51, 0.2)" stroke="rgba(100, 150, 255, 0.3)" stroke-width="1.5"/>
    </g>
  </g>
  <g id="phone-back-1">
    <g stroke="rgba(200, 225, 255, 0.3)" stroke-width="1" stroke-dasharray="2 2">
      <line x1="761.8949" y1="372" x2="744.5744" y2="382"/>
      <line x1="872.7461" y1="436" x2="855.4256" y2="446"/>
      <line x1="761.8949" y1="84" x2="744.5744" y2="94"/>
      <line x1="872.7461" y1="148" x2="855.4256" y2="158"/>
    </g>
    <g transform="matrix(0.866025, 0.5, 0, 1, 817.32, 260.00)">
      <rect x="-80" y="-160" width="160" height="320" rx="16" fill="rgba(32, 38, 51, 0.2)" stroke="rgba(100, 150, 255, 0.3)" stroke-width="1.5"/>
    </g>
  </g>
  <g id="phone-back-2">
    <g stroke="rgba(200, 225, 255, 0.3)" stroke-width="1" stroke-dasharray="2 2">
      <line x1="1246.8689" y1="412" x2="1229.5484000000001" y2="422"/>
      <line x1="1357.7201" y1="476" x2="1340.3996000000002" y2="486"/>
      <line x1="1246.8689" y1="124" x2="1229.5484000000001" y2="134"/>
      <line x1="1357.7201" y1="188" x2="1340.3996000000002" y2="198"/>
    </g>
    <g transform="matrix(0.866025, 0.5, 0, 1, 1302.29, 300.00)">
      <rect x="-80" y="-160" width="160" height="320" rx="16" fill="rgba(32, 38, 51, 0.2)" stroke="rgba(100, 150, 255, 0.3)" stroke-width="1.5"/>
    </g>
  </g>
  <path d="M 63.87874999999997 135 L 315.02599999999995 310 L 470.91049999999996 220 L 730.718 310 L 800 270 L 886.6025 220 L 1163.7305000000001 380 L 1284.9740000000002 310 L 1536.1212500000001 485 " fill="none" stroke="rgba(80, 150, 255, 0.2)" stroke-width="3" stroke-linejoin="round"/>
  <path d="M 63.87874999999997 135 L 315.02599999999995 310 L 470.91049999999996 220 L 730.718 310 L 800 270 L 886.6025 220 L 1163.7305000000001 380 L 1284.9740000000002 310 L 1536.1212500000001 485 " fill="none" stroke="#5debff" stroke-width="4" stroke-linejoin="round" filter="url(#glow)" stroke-dasharray="100 753.5815314718798" stroke-dashoffset="1707.1630629437595">
    <animate attributeName="stroke-dashoffset" values="1707.1630629437595;0" dur="4s" repeatCount="indefinite" />
  </path>
  <g id="phone-front-0">
    <g transform="matrix(0.866025, 0.5, 0, 1, 315.03, 310.00)">
      <rect x="-80" y="-160" width="160" height="320" rx="16" fill="#1a1f2b" stroke="rgba(180, 210, 255, 0.8)" stroke-width="1.5"/>
<rect x="-60" y="-130" width="120" height="50" rx="8" fill="none" stroke="rgba(200, 225, 255, 0.3)" stroke-width="1.5"/>
<rect x="-60" y="-60" width="120" height="20" rx="4" fill="none" stroke="rgba(200, 225, 255, 0.5)" stroke-width="1.5"/>
<rect x="-60" y="-30" width="120" height="20" rx="4" fill="none" stroke="rgba(200, 225, 255, 0.5)" stroke-width="1.5"/>
<rect x="-60" y="0" width="120" height="20" rx="4" fill="none" stroke="rgba(200, 225, 255, 0.5)" stroke-width="1.5"/>
<rect x="-40" y="50" width="80" height="28" rx="14" fill="rgba(80, 150, 255, 0.2)" stroke="rgba(100, 180, 255, 0.8)" stroke-width="1"/>
      <path d="M -70 -140 L 60 -140" fill="none" stroke="rgba(255,255,255,0.15)" stroke-width="3" stroke-linecap="round"/>
    </g>
  </g>
  <g id="phone-front-1">
    <g transform="matrix(0.866025, 0.5, 0, 1, 800.00, 270.00)">
      <rect x="-80" y="-160" width="160" height="320" rx="16" fill="#1a1f2b" stroke="rgba(180, 210, 255, 0.8)" stroke-width="1.5"/>
<rect x="-60" y="-130" width="120" height="50" rx="8" fill="none" stroke="rgba(200, 225, 255, 0.3)" stroke-width="1.5"/>
<circle cx="0" cy="-20" r="30" fill="none" stroke="rgba(100, 180, 255, 0.8)" stroke-width="2" stroke-dasharray="10 5"/>
<rect x="-40" y="50" width="80" height="12" rx="6" fill="none" stroke="rgba(200, 225, 255, 0.3)" stroke-width="1.5"/>
      <path d="M -70 -140 L 60 -140" fill="none" stroke="rgba(255,255,255,0.15)" stroke-width="3" stroke-linecap="round"/>
    </g>
  </g>
  <g id="phone-front-2">
    <g transform="matrix(0.866025, 0.5, 0, 1, 1284.97, 310.00)">
      <rect x="-80" y="-160" width="160" height="320" rx="16" fill="#1a1f2b" stroke="rgba(180, 210, 255, 0.8)" stroke-width="1.5"/>
<rect x="-60" y="-130" width="120" height="50" rx="8" fill="none" stroke="rgba(200, 225, 255, 0.3)" stroke-width="1.5"/>
<circle cx="0" cy="-20" r="30" fill="rgba(100, 255, 150, 0.1)" stroke="rgba(100, 255, 150, 0.8)" stroke-width="2"/>
<path d="M-10 -20 L-4 -14 L12 -30" fill="none" stroke="rgba(100, 255, 150, 0.8)" stroke-width="3" stroke-linecap="round" stroke-linejoin="round"/>
<rect x="-40" y="50" width="80" height="28" rx="14" fill="rgba(100, 255, 150, 0.2)" stroke="rgba(100, 255, 150, 0.8)" stroke-width="1"/>
      <path d="M -70 -140 L 60 -140" fill="none" stroke="rgba(255,255,255,0.15)" stroke-width="3" stroke-linecap="round"/>
    </g>
  </g>
  <circle cx="838.8908742215933" cy="369.2687907623815" r="1.5" fill="#aaccff" opacity="0.5">
    <animate attributeName="cy" values="369.2687907623815;329.2687907623815;369.2687907623815" dur="4.6098786186672465s" repeatCount="indefinite" />
    <animate attributeName="opacity" values="0.1;0.8;0.1" dur="4.6098786186672465s" repeatCount="indefinite" />
  </circle>
  <circle cx="1473.1233295286352" cy="529.2545133867666" r="1.5" fill="#aaccff" opacity="0.5">
    <animate attributeName="cy" values="529.2545133867666;489.2545133867666;529.2545133867666" dur="6.167985607934304s" repeatCount="indefinite" />
    <animate attributeName="opacity" values="0.1;0.8;0.1" dur="6.167985607934304s" repeatCount="indefinite" />
  </circle>
  <circle cx="1121.7009751221071" cy="441.6874926824745" r="1.5" fill="#aaccff" opacity="0.5">
    <animate attributeName="cy" values="441.6874926824745;401.6874926824745;441.6874926824745" dur="6.4057983249388775s" repeatCount="indefinite" />
    <animate attributeName="opacity" values="0.1;0.8;0.1" dur="6.4057983249388775s" repeatCount="indefinite" />
  </circle>
  <circle cx="475.16443384983717" cy="208.11060476086357" r="1.5" fill="#aaccff" opacity="0.5">
    <animate attributeName="cy" values="208.11060476086357;168.11060476086357;208.11060476086357" dur="6.529945384828769s" repeatCount="indefinite" />
    <animate attributeName="opacity" values="0.1;0.8;0.1" dur="6.529945384828769s" repeatCount="indefinite" />
  </circle>
  <circle cx="451.7344098759013" cy="389.0962401894149" r="1.5" fill="#aaccff" opacity="0.5">
    <animate attributeName="cy" values="389.0962401894149;349.0962401894149;389.0962401894149" dur="3.5880786372671736s" repeatCount="indefinite" />
    <animate attributeName="opacity" values="0.1;0.8;0.1" dur="3.5880786372671736s" repeatCount="indefinite" />
  </circle>
  <circle cx="976.6908363614219" cy="345.93970053896044" r="1.5" fill="#aaccff" opacity="0.5">
    <animate attributeName="cy" values="345.93970053896044;305.93970053896044;345.93970053896044" dur="6.214678768064775s" repeatCount="indefinite" />
    <animate attributeName="opacity" values="0.1;0.8;0.1" dur="6.214678768064775s" repeatCount="indefinite" />
  </circle>
  <circle cx="658.3043128218239" cy="521.0232305235197" r="1.5" fill="#aaccff" opacity="0.5">
    <animate attributeName="cy" values="521.0232305235197;481.0232305235197;521.0232305235197" dur="4.561009361552487s" repeatCount="indefinite" />
    <animate attributeName="opacity" values="0.1;0.8;0.1" dur="4.561009361552487s" repeatCount="indefinite" />
  </circle>
  <circle cx="701.0785175211568" cy="383.1298688898955" r="1.5" fill="#aaccff" opacity="0.5">
    <animate attributeName="cy" values="383.1298688898955;343.1298688898955;383.1298688898955" dur="3.464309723428407s" repeatCount="indefinite" />
    <animate attributeName="opacity" values="0.1;0.8;0.1" dur="3.464309723428407s" repeatCount="indefinite" />
  </circle>
  <circle cx="248.0578486109041" cy="186.64168145972204" r="1.5" fill="#aaccff" opacity="0.5">
    <animate attributeName="cy" values="186.64168145972204;146.64168145972204;186.64168145972204" dur="3.339857583443064s" repeatCount="indefinite" />
    <animate attributeName="opacity" values="0.1;0.8;0.1" dur="3.339857583443064s" repeatCount="indefinite" />
  </circle>
  <circle cx="1340.0843715294454" cy="364.5360991236246" r="1.5" fill="#aaccff" opacity="0.5">
    <animate attributeName="cy" values="364.5360991236246;324.5360991236246;364.5360991236246" dur="3.2784088217761047s" repeatCount="indefinite" />
    <animate attributeName="opacity" values="0.1;0.8;0.1" dur="3.2784088217761047s" repeatCount="indefinite" />
  </circle>
  <circle cx="1328.3972831704903" cy="574.6753369953037" r="1.5" fill="#aaccff" opacity="0.5">
    <animate attributeName="cy" values="574.6753369953037;534.6753369953037;574.6753369953037" dur="4.636655988610718s" repeatCount="indefinite" />
    <animate attributeName="opacity" values="0.1;0.8;0.1" dur="4.636655988610718s" repeatCount="indefinite" />
  </circle>
  <circle cx="112.85400785963873" cy="169.9082696908826" r="1.5" fill="#aaccff" opacity="0.5">
    <animate attributeName="cy" values="169.9082696908826;129.9082696908826;169.9082696908826" dur="6.1977343553962525s" repeatCount="indefinite" />
    <animate attributeName="opacity" values="0.1;0.8;0.1" dur="6.1977343553962525s" repeatCount="indefinite" />
  </circle>
  <circle cx="444.59364444114414" cy="31.058648478405075" r="1.5" fill="#aaccff" opacity="0.5">
    <animate attributeName="cy" values="31.058648478405075;-8.941351521594925;31.058648478405075" dur="4.46435567197352s" repeatCount="indefinite" />
    <animate attributeName="opacity" values="0.1;0.8;0.1" dur="4.46435567197352s" repeatCount="indefinite" />
  </circle>
  <circle cx="147.69560263946494" cy="185.909750343676" r="1.5" fill="#aaccff" opacity="0.5">
    <animate attributeName="cy" values="185.909750343676;145.909750343676;185.909750343676" dur="4.3203315410546175s" repeatCount="indefinite" />
    <animate attributeName="opacity" values="0.1;0.8;0.1" dur="4.3203315410546175s" repeatCount="indefinite" />
  </circle>
  <circle cx="347.8061930727615" cy="211.37181415832265" r="1.5" fill="#aaccff" opacity="0.5">
    <animate attributeName="cy" values="211.37181415832265;171.37181415832265;211.37181415832265" dur="6.237191099596485s" repeatCount="indefinite" />
    <animate attributeName="opacity" values="0.1;0.8;0.1" dur="6.237191099596485s" repeatCount="indefinite" />
  </circle>
</svg>