<?xml version="1.0" encoding="UTF-8"?>
<svg xmlns="http://www.w3.org/2000/svg" width="1024" height="407" viewBox="0 0 1024 407">
  <path fill="var(--security-diagram-canvas, #2a3144)" d="M0 0h1024v407H0z"/>
  <g stroke="var(--security-diagram-line-muted, #5c6781)" stroke-width="1.3" fill="none" stroke-linecap="round" stroke-linejoin="round">
    <path d="M26 0V216Q26 224 34 224H115"/>
    <path d="M866 136H954Q962 136 962 128V20Q962 12 970 12H1024"/>
    <path d="M830 418H772V464Q772 472 780 472H1024"/>
  </g>
  <g stroke="var(--security-diagram-line, #d4dbea)" stroke-width="1.8" fill="none" stroke-linecap="round" stroke-linejoin="round">
    <path d="M232 226H263"/>
    <path d="M263 226V166H293"/>
    <path d="M263 226H293"/>
    <path d="M263 226V285H293"/>
    <path d="M409 225H474V330H540"/>
    <path d="M657 318H703V136H749"/>
    <path d="M657 331H772V359H713"/>
    <path d="M772 359V418H713"/>
  </g>
  <g stroke="var(--security-diagram-package-strong, #c4b6dd)" stroke-width="1.4" fill="var(--security-diagram-package, #2a2433)">
    <rect x="115" y="212" width="117" height="29" rx="4"/>
    <rect x="293" y="152" width="116" height="29" rx="4"/>
    <rect x="293" y="211" width="116" height="29" rx="4"/>
    <rect x="293" y="271" width="116" height="29" rx="4"/>
    <rect x="540" y="302" width="117" height="57" rx="4"/>
    <rect x="749" y="121" width="117" height="29" rx="4"/>
    <rect x="713" y="344" width="117" height="29" rx="4"/>
    <rect x="713" y="404" width="117" height="29" rx="4"/>
  </g>
</svg>
