<?xml version="1.0" encoding="UTF-8"?>
<svg xmlns="http://www.w3.org/2000/svg" width="1024" height="407" viewBox="0 0 1024 407">
  <rect x="0" y="0" width="1024" height="407" fill="var(--security-diagram-canvas, #2a3144)"/>
  <g stroke="var(--security-diagram-line-muted, #5c6781)" stroke-width="1" fill="none" opacity="0.42" vector-effect="non-scaling-stroke">
    <line x1="16" y1="0" x2="16" y2="407"/>
    <line x1="99" y1="0" x2="99" y2="407"/>
    <line x1="182" y1="0" x2="182" y2="407"/>
    <line x1="265" y1="0" x2="265" y2="407"/>
    <line x1="348" y1="0" x2="348" y2="407"/>
    <line x1="431" y1="0" x2="431" y2="407"/>
    <line x1="514" y1="0" x2="514" y2="407"/>
    <line x1="597" y1="0" x2="597" y2="407"/>
    <line x1="680" y1="0" x2="680" y2="407"/>
    <line x1="763" y1="0" x2="763" y2="407"/>
    <line x1="846" y1="0" x2="846" y2="407"/>
    <line x1="929" y1="0" x2="929" y2="407"/>
    <line x1="1012" y1="0" x2="1012" y2="407"/>
    <line x1="0" y1="72" x2="1024" y2="72"/>
    <line x1="0" y1="150" x2="1024" y2="150"/>
    <line x1="0" y1="228" x2="1024" y2="228"/>
    <line x1="0" y1="306" x2="1024" y2="306"/>
    <line x1="0" y1="384" x2="1024" y2="384"/>
  </g>
  <g stroke="var(--security-diagram-line, #d4dbea)" stroke-width="1.14" fill="none" stroke-linecap="round" stroke-linejoin="round" opacity="0.9" vector-effect="non-scaling-stroke">
    <polyline points="512,114 516.33,115.56 520.67,117.11 525,118.67 529.33,120.22 533.67,121.78 538,123.33 542.33,124.89 546.67,126.44 551,128 555.33,129.56 559.67,131.11 564,132.67 568.33,134.22 572.67,135.78 577,137.33 581.33,138.89 585.67,140.44 590,142 594.33,143.56 598.67,145.11 603,146.67 607.33,148.22 611.67,149.78 616,151.33 620.33,152.89 624.67,154.44 629,156 633.33,157.56 637.67,159.11 642,160.67 646.33,162.22 650.67,163.78 655,165.33 659.33,166.89 663.67,168.44 668,170 672.33,171.56 676.67,173.11 681,174.67 685.33,176.22 689.67,177.78 694,179.33 698.33,180.89 702.67,182.44 707,184 711.33,185.56 715.67,187.11 720,188.67 724.33,190.22 728.67,191.78 733,193.33 737.33,194.88 741.67,196.43 746,197.98 750.33,199.53 754.67,201.08 759,202.62 763.33,204.16 767.67,205.7 772,207.24 776.33,208.78 780.67,210.32 785,211.87 789.33,213.42 793.67,214.98 798,216.54 802.33,218.11 806.67,219.68 811,221.25 815.33,222.82 819.67,224.39 824,225.96"/>
    <polyline points="501.6,117.73 505.93,119.29 510.27,120.84 514.6,122.4 518.93,123.96 523.27,125.51 527.6,127.07 531.93,128.62 536.27,130.18 540.6,131.73 544.93,133.29 549.27,134.84 553.6,136.4 557.93,137.96 562.27,139.51 566.6,141.07 570.93,142.62 575.27,144.18 579.6,145.73 583.93,147.29 588.27,148.84 592.6,150.4 596.93,151.96 601.27,153.51 605.6,155.07 609.93,156.62 614.27,158.18 618.6,159.73 622.93,161.29 627.27,162.84 631.6,164.4 635.93,165.96 640.27,167.51 644.6,169.07 648.93,170.62 653.27,172.18 657.6,173.73 661.93,175.29 666.27,176.84 670.6,178.4 674.93,179.96 679.27,181.51 683.6,183.07 687.93,184.62 692.27,186.18 696.6,187.73 700.93,189.29 705.27,190.84 709.6,192.4 713.93,193.95 718.27,195.5 722.6,197.05 726.93,198.59 731.27,200.13 735.6,201.66 739.93,203.17 744.27,204.68 748.6,206.18 752.93,207.66 757.27,209.14 761.6,210.62 765.93,212.1 770.27,213.59 774.6,215.1 778.93,216.64 783.27,218.2 787.6,219.79 791.93,221.39 796.27,223.02 800.6,224.65 804.93,226.29 809.27,227.92 813.6,229.54"/>
    <polyline points="491.2,121.47 495.53,123.02 499.87,124.58 504.2,126.13 508.53,127.69 512.87,129.24 517.2,130.8 521.53,132.36 525.87,133.91 530.2,135.47 534.53,137.02 538.87,138.58 543.2,140.13 547.53,141.69 551.87,143.24 556.2,144.8 560.53,146.36 564.87,147.91 569.2,149.47 573.53,151.02 577.87,152.58 582.2,154.13 586.53,155.69 590.87,157.24 595.2,158.8 599.53,160.36 603.87,161.91 608.2,163.47 612.53,165.02 616.87,166.58 621.2,168.13 625.53,169.69 629.87,171.24 634.2,172.8 638.53,174.36 642.87,175.91 647.2,177.47 651.53,179.02 655.87,180.58 660.2,182.13 664.53,183.69 668.87,185.24 673.2,186.8 677.53,188.36 681.87,189.91 686.2,191.47 690.53,193.02 694.87,194.58 699.2,196.13 703.53,197.67 707.87,199.21 712.2,200.73 716.53,202.24 720.87,203.72 725.2,205.17 729.53,206.58 733.87,207.95 738.2,209.28 742.53,210.56 746.87,211.82 751.2,213.07 755.53,214.34 759.87,215.65 764.2,217.04 768.53,218.51 772.87,220.09 777.2,221.76 781.53,223.52 785.87,225.34 790.2,227.2 794.53,229.06 798.87,230.9 803.2,232.71"/>
    <polyline points="480.8,125.2 485.13,126.76 489.47,128.31 493.8,129.87 498.13,131.42 502.47,132.98 506.8,134.53 511.13,136.09 515.47,137.64 519.8,139.2 524.13,140.76 528.47,142.31 532.8,143.87 537.13,145.42 541.47,146.98 545.8,148.53 550.13,150.09 554.47,151.64 558.8,153.2 563.13,154.76 567.47,156.31 571.8,157.87 576.13,159.42 580.47,160.98 584.8,162.53 589.13,164.09 593.47,165.64 597.8,167.2 602.13,168.76 606.47,170.31 610.8,171.87 615.13,173.42 619.47,174.98 623.8,176.53 628.13,178.09 632.47,179.64 636.8,181.2 641.13,182.76 645.47,184.31 649.8,185.87 654.13,187.42 658.47,188.98 662.8,190.53 667.13,192.09 671.47,193.64 675.8,195.2 680.13,196.76 684.47,198.31 688.8,199.85 693.13,201.37 697.47,202.87 701.8,204.33 706.13,205.74 710.47,207.07 714.8,208.31 719.13,209.42 723.47,210.41 727.8,211.26 732.13,212 736.47,212.65 740.8,213.27 745.13,213.95 749.47,214.77 753.8,215.8 758.13,217.11 762.47,218.72 766.8,220.63 771.13,222.8 775.47,225.15 779.8,227.61 784.13,230.1 788.47,232.54 792.8,234.88"/>
    <polyline points="470.4,128.93 474.73,130.49 479.07,132.04 483.4,133.6 487.73,135.16 492.07,136.71 496.4,138.27 500.73,139.82 505.07,141.38 509.4,142.93 513.73,144.49 518.07,146.04 522.4,147.6 526.73,149.16 531.07,150.71 535.4,152.27 539.73,153.82 544.07,155.38 548.4,156.93 552.73,158.49 557.07,160.04 561.4,161.6 565.73,163.16 570.07,164.71 574.4,166.27 578.73,167.82 583.07,169.38 587.4,170.93 591.73,172.49 596.07,174.04 600.4,175.6 604.73,177.16 609.07,178.71 613.4,180.27 617.73,181.82 622.07,183.38 626.4,184.93 630.73,186.49 635.07,188.04 639.4,189.6 643.73,191.16 648.07,192.71 652.4,194.27 656.73,195.82 661.07,197.38 665.4,198.93 669.73,200.49 674.07,202.04 678.4,203.56 682.73,205.03 687.07,206.44 691.4,207.76 695.73,208.96 700.07,209.98 704.4,210.77 708.73,211.28 713.07,211.47 717.4,211.33 721.73,210.9 726.07,210.28 730.4,209.59 734.73,209.03 739.07,208.79 743.4,209.07 747.73,210.01 752.07,211.69 756.4,214.08 760.73,217.1 765.07,220.58 769.4,224.33 773.73,228.13 778.07,231.83 782.4,235.29"/>
    <polyline points="460,132.67 464.33,134.22 468.67,135.78 473,137.33 477.33,138.89 481.67,140.44 486,142 490.33,143.56 494.67,145.11 499,146.67 503.33,148.22 507.67,149.78 512,151.33 516.33,152.89 520.67,154.44 525,156 529.33,157.56 533.67,159.11 538,160.67 542.33,162.22 546.67,163.78 551,165.33 555.33,166.89 559.67,168.44 564,170 568.33,171.56 572.67,173.11 577,174.67 581.33,176.22 585.67,177.78 590,179.33 594.33,180.89 598.67,182.44 603,184 607.33,185.56 611.67,187.11 616,188.67 620.33,190.22 624.67,191.78 629,193.33 633.33,194.89 637.67,196.44 642,198 646.33,199.56 650.67,201.11 655,202.67 659.33,204.22 663.67,205.78 668,207.23 672.33,208.6 676.67,209.87 681,210.98 685.33,211.86 689.67,212.39 694,212.49 698.33,212.05 702.67,211 707,209.33 711.33,207.1 715.67,204.48 720,201.75 724.33,199.25 728.67,197.37 733,196.47 737.33,196.83 741.67,198.59 746,201.73 750.33,206.07 754.67,211.3 759,217.04 763.33,222.91 767.67,228.57 772,233.77"/>
    <polyline points="449.6,136.4 453.93,137.96 458.27,139.51 462.6,141.07 466.93,142.62 471.27,144.18 475.6,145.73 479.93,147.29 484.27,148.84 488.6,150.4 492.93,151.96 497.27,153.51 501.6,155.07 505.93,156.62 510.27,158.18 514.6,159.73 518.93,161.29 523.27,162.84 527.6,164.4 531.93,165.96 536.27,167.51 540.6,169.07 544.93,170.62 549.27,172.18 553.6,173.73 557.93,175.29 562.27,176.84 566.6,178.4 570.93,179.96 575.27,181.51 579.6,183.07 583.93,184.62 588.27,186.18 592.6,187.73 596.93,189.29 601.27,190.84 605.6,192.4 609.93,193.96 614.27,195.51 618.6,197.07 622.93,198.62 627.27,200.18 631.6,201.73 635.93,203.29 640.27,204.84 644.6,206.4 648.93,207.96 653.27,209.39 657.6,210.72 661.93,211.97 666.27,213.07 670.6,213.94 674.93,214.46 679.27,214.48 683.6,213.84 687.93,212.39 692.27,210.02 696.6,206.7 700.93,202.55 705.27,197.8 709.6,192.86 713.93,188.27 718.27,184.61 722.6,182.42 726.93,182.14 731.27,183.99 735.6,187.94 739.93,193.7 744.27,200.82 748.6,208.73 752.93,216.83 757.27,224.63 761.6,231.75"/>
    <polyline points="439.2,140.13 443.53,141.69 447.87,143.24 452.2,144.8 456.53,146.36 460.87,147.91 465.2,149.47 469.53,151.02 473.87,152.58 478.2,154.13 482.53,155.69 486.87,157.24 491.2,158.8 495.53,160.36 499.87,161.91 504.2,163.47 508.53,165.02 512.87,166.58 517.2,168.13 521.53,169.69 525.87,171.24 530.2,172.8 534.53,174.36 538.87,175.91 543.2,177.47 547.53,179.02 551.87,180.58 556.2,182.13 560.53,183.69 564.87,185.24 569.2,186.8 573.53,188.36 577.87,189.91 582.2,191.47 586.53,193.02 590.87,194.58 595.2,196.13 599.53,197.69 603.87,199.24 608.2,200.8 612.53,202.36 616.87,203.91 621.2,205.47 625.53,207.02 629.87,208.58 634.2,210.04 638.53,211.27 642.87,212.47 647.2,213.63 651.53,214.71 655.87,215.64 660.2,216.33 664.53,216.62 668.87,216.36 673.2,215.33 677.53,213.34 681.87,210.27 686.2,206.07 690.53,200.84 694.87,194.9 699.2,188.72 703.53,182.94 707.87,178.25 712.2,175.33 716.53,174.69 720.87,176.6 725.2,181.03 729.53,187.65 733.87,195.91 738.2,205.12 742.53,214.57 746.87,223.67 751.2,231.95"/>
    <polyline points="428.8,143.87 433.13,145.42 437.47,146.98 441.8,148.53 446.13,150.09 450.47,151.64 454.8,153.2 459.13,154.76 463.47,156.31 467.8,157.87 472.13,159.42 476.47,160.98 480.8,162.53 485.13,164.09 489.47,165.64 493.8,167.2 498.13,168.76 502.47,170.31 506.8,171.87 511.13,173.42 515.47,174.98 519.8,176.53 524.13,178.09 528.47,179.64 532.8,181.2 537.13,182.76 541.47,184.31 545.8,185.87 550.13,187.42 554.47,188.98 558.8,190.53 563.13,192.09 567.47,193.64 571.8,195.2 576.13,196.76 580.47,198.31 584.8,199.87 589.13,201.42 593.47,202.98 597.8,204.53 602.13,206.09 606.47,207.64 610.8,209.2 615.13,210.73 619.47,211.59 623.8,212.41 628.13,213.21 632.47,214.01 636.8,214.83 641.13,215.64 645.47,216.4 649.8,217.03 654.13,217.39 658.47,217.3 662.8,216.57 667.13,215 671.47,212.43 675.8,208.8 680.13,204.21 684.47,198.9 688.8,193.34 693.13,188.11 697.47,183.88 701.8,181.3 706.13,180.86 710.47,182.83 714.8,187.19 719.13,193.63 723.47,201.62 727.8,210.52 732.13,219.65 736.47,228.44 740.8,236.45"/>
    <polyline points="418.4,147.6 422.73,149.16 427.07,150.71 431.4,152.27 435.73,153.82 440.07,155.38 444.4,156.93 448.73,158.49 453.07,160.04 457.4,161.6 461.73,163.16 466.07,164.71 470.4,166.27 474.73,167.82 479.07,169.38 483.4,170.93 487.73,172.49 492.07,174.04 496.4,175.6 500.73,177.16 505.07,178.71 509.4,180.27 513.73,181.82 518.07,183.38 522.4,184.93 526.73,186.49 531.07,188.04 535.4,189.6 539.73,191.16 544.07,192.71 548.4,194.27 552.73,195.82 557.07,197.38 561.4,198.93 565.73,200.49 570.07,202.04 574.4,203.6 578.73,205.16 583.07,206.71 587.4,208.27 591.73,209.82 596.07,211.38 600.4,212.2 604.73,212.32 609.07,212.31 613.4,212.22 617.73,212.14 622.07,212.13 626.4,212.25 630.73,212.56 635.07,213.06 639.4,213.7 643.73,214.41 648.07,215.02 652.4,215.37 656.73,215.24 661.07,214.47 665.4,212.95 669.73,210.7 674.07,207.87 678.4,204.77 682.73,201.82 687.07,199.52 691.4,198.37 695.73,198.74 700.07,200.86 704.4,204.72 708.73,210.11 713.07,216.65 717.4,223.84 721.73,231.2 726.07,238.28 730.4,244.77"/>
    <polyline points="408,151.33 412.33,152.89 416.67,154.44 421,156 425.33,157.56 429.67,159.11 434,160.67 438.33,162.22 442.67,163.78 447,165.33 451.33,166.89 455.67,168.44 460,170 464.33,171.56 468.67,173.11 473,174.67 477.33,176.22 481.67,177.78 486,179.33 490.33,180.89 494.67,182.44 499,184 503.33,185.56 507.67,187.11 512,188.67 516.33,190.22 520.67,191.78 525,193.33 529.33,194.89 533.67,196.44 538,198 542.33,199.56 546.67,201.11 551,202.67 555.33,204.22 559.67,205.78 564,207.33 568.33,208.89 572.67,210.44 577,212 581.33,213.56 585.67,213.2 590,212.2 594.33,210.86 598.67,209.27 603,207.54 607.33,205.85 611.67,204.36 616,203.24 620.33,202.62 624.67,202.62 629,203.27 633.33,204.51 637.67,206.25 642,208.29 646.33,210.41 650.67,212.39 655,214.05 659.33,215.26 663.67,216.03 668,216.46 672.33,216.76 676.67,217.22 681,218.14 685.33,219.75 689.67,222.23 694,225.6 698.33,229.77 702.67,234.54 707,239.64 711.33,244.79 715.67,249.74 720,254.3"/>
    <polyline points="397.6,155.07 401.93,156.62 406.27,158.18 410.6,159.73 414.93,161.29 419.27,162.84 423.6,164.4 427.93,165.96 432.27,167.51 436.6,169.07 440.93,170.62 445.27,172.18 449.6,173.73 453.93,175.29 458.27,176.84 462.6,178.4 466.93,179.96 471.27,181.51 475.6,183.07 479.93,184.62 484.27,186.18 488.6,187.73 492.93,189.29 497.27,190.84 501.6,192.4 505.93,193.96 510.27,195.51 514.6,197.07 518.93,198.62 523.27,200.18 527.6,201.73 531.93,203.29 536.27,204.84 540.6,206.4 544.93,207.96 549.27,209.51 553.6,211.07 557.93,212.62 562.27,214.18 566.6,215.43 570.93,213.9 575.27,211.65 579.6,208.7 583.93,205.16 588.27,201.17 592.6,196.98 596.93,192.86 601.27,189.13 605.6,186.11 609.93,184.1 614.27,183.3 618.6,183.86 622.93,185.77 627.27,188.92 631.6,193.09 635.93,197.98 640.27,203.26 644.6,208.61 648.93,213.74 653.27,218.47 657.6,222.71 661.93,226.47 666.27,229.86 670.6,233 674.93,236.07 679.27,239.19 683.6,242.43 687.93,245.82 692.27,249.31 696.6,252.83 700.93,256.28 705.27,259.57 709.6,262.64"/>
    <polyline points="387.2,158.8 391.53,160.36 395.87,161.91 400.2,163.47 404.53,165.02 408.87,166.58 413.2,168.13 417.53,169.69 421.87,171.24 426.2,172.8 430.53,174.36 434.87,175.91 439.2,177.47 443.53,179.02 447.87,180.58 452.2,182.13 456.53,183.69 460.87,185.24 465.2,186.8 469.53,188.36 473.87,189.91 478.2,191.47 482.53,193.02 486.87,194.58 491.2,196.13 495.53,197.69 499.87,199.24 504.2,200.8 508.53,202.36 512.87,203.91 517.2,205.47 521.53,207.02 525.87,208.58 530.2,210.13 534.53,211.69 538.87,213.24 543.2,214.8 547.53,216.36 551.87,215.84 556.2,213.81 560.53,210.76 564.87,206.63 569.2,201.44 573.53,195.31 577.87,188.5 582.2,181.35 586.53,174.31 590.87,167.89 595.2,162.6 599.53,158.9 603.87,157.15 608.2,157.58 612.53,160.23 616.87,164.96 621.2,171.47 625.53,179.35 629.87,188.1 634.2,197.21 638.53,206.22 642.87,214.76 647.2,222.58 651.53,229.54 655.87,235.62 660.2,240.87 664.53,245.41 668.87,249.38 673.2,252.91 677.53,256.11 681.87,259.05 686.2,261.78 690.53,264.34 694.87,266.73 699.2,268.97"/>
    <polyline points="376.8,162.53 381.13,164.09 385.47,165.64 389.8,167.2 394.13,168.76 398.47,170.31 402.8,171.87 407.13,173.42 411.47,174.98 415.8,176.53 420.13,178.09 424.47,179.64 428.8,181.2 433.13,182.76 437.47,184.31 441.8,185.87 446.13,187.42 450.47,188.98 454.8,190.53 459.13,192.09 463.47,193.64 467.8,195.2 472.13,196.76 476.47,198.31 480.8,199.87 485.13,201.42 489.47,202.98 493.8,204.53 498.13,206.09 502.47,207.64 506.8,209.2 511.13,210.76 515.47,212.31 519.8,213.26 524.13,213.31 528.47,213.15 532.8,212.7 537.13,211.78 541.47,210.13 545.8,207.48 550.13,203.58 554.47,198.26 558.8,191.47 563.13,183.36 567.47,174.24 571.8,164.6 576.13,155.05 580.47,146.29 584.8,139.02 589.13,133.88 593.47,131.36 597.8,131.77 602.13,135.17 606.47,141.4 610.8,150.08 615.13,160.64 619.47,172.44 623.8,184.79 628.13,197.08 632.47,208.77 636.8,219.49 641.13,229 645.47,237.23 649.8,244.18 654.13,249.98 658.47,254.8 662.8,258.8 667.13,262.16 671.47,265.03 675.8,267.55 680.13,269.8 684.47,271.85 688.8,273.76"/>
    <polyline points="366.4,166.27 370.73,167.82 375.07,169.38 379.4,170.93 383.73,172.49 388.07,174.04 392.4,175.6 396.73,177.16 401.07,178.71 405.4,180.27 409.73,181.82 414.07,183.38 418.4,184.93 422.73,186.49 427.07,188.04 431.4,189.6 435.73,191.16 440.07,192.71 444.4,194.27 448.73,195.82 453.07,197.38 457.4,198.93 461.73,200.49 466.07,202.04 470.4,203.6 474.73,205.16 479.07,206.71 483.4,207.66 487.73,208.12 492.07,208 496.4,207.27 500.73,206.01 505.07,204.4 509.4,202.7 513.73,201.15 518.07,199.93 522.4,199.03 526.73,198.26 531.07,197.22 535.4,195.42 539.73,192.36 544.07,187.65 548.4,181.12 552.73,172.85 557.07,163.19 561.4,152.71 565.73,142.18 570.07,132.44 574.4,124.34 578.73,118.63 583.07,115.91 587.4,116.53 591.73,120.59 596.07,127.88 600.4,137.96 604.73,150.19 609.07,163.84 613.4,178.12 617.73,192.31 622.07,205.82 626.4,218.19 630.73,229.14 635.07,238.57 639.4,246.49 643.73,253.03 648.07,258.37 652.4,262.72 656.73,266.27 661.07,269.23 665.4,271.75 669.73,273.95 674.07,275.94 678.4,277.77"/>
    <polyline points="356,170 360.33,171.56 364.67,173.11 369,174.67 373.33,176.22 377.67,177.78 382,179.33 386.33,180.89 390.67,182.44 395,184 399.33,185.56 403.67,187.11 408,188.67 412.33,190.22 416.67,191.77 421,193.26 425.33,194.7 429.67,196.05 434,197.29 438.33,198.4 442.67,199.36 447,200.2 451.33,200.95 455.67,201.62 460,202.22 464.33,202.68 468.67,202.88 473,202.59 477.33,201.59 481.67,199.68 486,196.8 490.33,193.11 494.67,188.97 499,184.95 503.33,181.62 507.67,179.45 512,178.58 516.33,178.84 520.67,179.67 525,180.32 529.33,179.98 533.67,177.97 538,173.91 542.33,167.77 546.67,159.86 551,150.8 555.33,141.42 559.67,132.61 564,125.28 568.33,120.24 572.67,118.08 577,119.16 581.33,123.59 585.67,131.15 590,141.42 594.33,153.76 598.67,167.46 603,181.74 607.33,195.9 611.67,209.36 616,221.68 620.33,232.6 624.67,242.01 629,249.93 633.33,256.48 637.67,261.84 642,266.21 646.33,269.79 650.67,272.78 655,275.32 659.33,277.55 663.67,279.56 668,281.41"/>
    <polyline points="345.6,173.73 349.93,175.29 354.27,176.84 358.6,178.4 362.93,179.95 367.27,181.51 371.6,183.06 375.93,184.61 380.27,186.16 384.6,187.71 388.93,189.25 393.27,190.77 397.6,192.28 401.93,193.74 406.27,195.14 410.6,196.41 414.93,197.5 419.27,198.35 423.6,198.86 427.93,198.99 432.27,198.74 436.6,198.13 440.93,197.29 445.27,196.36 449.6,195.46 453.93,194.63 458.27,193.77 462.6,192.65 466.93,190.92 471.27,188.25 475.6,184.47 479.93,179.7 484.27,174.39 488.6,169.27 492.93,165.18 497.27,162.81 501.6,162.52 505.93,164.16 510.27,167.14 514.6,170.54 518.93,173.35 523.27,174.71 527.6,174.05 531.93,171.23 536.27,166.51 540.6,160.45 544.93,153.82 549.27,147.47 553.6,142.24 557.93,138.82 562.27,137.77 566.6,139.4 570.93,143.77 575.27,150.72 579.6,159.89 583.93,170.73 588.27,182.66 592.6,195.03 596.93,207.28 601.27,218.91 605.6,229.59 609.93,239.1 614.27,247.36 618.6,254.39 622.93,260.3 627.27,265.23 631.6,269.34 635.93,272.81 640.27,275.77 644.6,278.36 648.93,280.67 653.27,282.77 657.6,284.72"/>
    <polyline points="335.2,177.47 339.53,179.02 343.87,180.57 348.2,182.12 352.53,183.67 356.87,185.22 361.2,186.76 365.53,188.29 369.87,189.81 374.2,191.32 378.53,192.8 382.87,194.25 387.2,195.64 391.53,196.94 395.87,198.09 400.2,199.01 404.53,199.6 408.87,199.72 413.2,199.25 417.53,198.1 421.87,196.26 426.2,193.85 430.53,191.09 434.87,188.31 439.2,185.86 443.53,183.97 447.87,182.7 452.2,181.86 456.53,181.03 460.87,179.75 465.2,177.63 469.53,174.57 473.87,170.87 478.2,167.16 482.53,164.23 486.87,162.82 491.2,163.38 495.53,165.89 499.87,169.87 504.2,174.5 508.53,178.88 512.87,182.16 517.2,183.83 521.53,183.69 525.87,181.92 530.2,178.96 534.53,175.41 538.87,171.94 543.2,169.17 547.53,167.65 551.87,167.75 556.2,169.7 560.53,173.54 564.87,179.14 569.2,186.23 573.53,194.46 577.87,203.4 582.2,212.61 586.53,221.73 590.87,230.43 595.2,238.5 599.53,245.79 603.87,252.28 608.2,257.98 612.53,262.96 616.87,267.31 621.2,271.15 625.53,274.55 629.87,277.6 634.2,280.38 638.53,282.92 642.87,285.28 647.2,287.48"/>
    <polyline points="324.8,181.2 329.13,182.75 333.47,184.3 337.8,185.84 342.13,187.37 346.47,188.9 350.8,190.4 355.13,191.88 359.47,193.33 363.8,194.73 368.13,196.07 372.47,197.33 376.8,198.48 381.13,199.47 385.47,200.24 389.8,200.69 394.13,200.7 398.47,200.11 402.8,198.78 407.13,196.63 411.47,193.67 415.8,190.06 420.13,186.14 424.47,182.37 428.8,179.28 433.13,177.29 437.47,176.6 441.8,177.1 446.13,178.41 450.47,179.94 454.8,181.15 459.13,181.68 463.47,181.48 467.8,180.88 472.13,180.39 476.47,180.59 480.8,181.89 485.13,184.37 489.47,187.81 493.8,191.73 498.13,195.54 502.47,198.68 506.8,200.82 511.13,201.8 515.47,201.74 519.8,200.92 524.13,199.7 528.47,198.5 532.8,197.69 537.13,197.57 541.47,198.35 545.8,200.16 550.13,202.98 554.47,206.75 558.8,211.31 563.13,216.45 567.47,221.97 571.8,227.64 576.13,233.29 580.47,238.8 584.8,244.06 589.13,249.05 593.47,253.76 597.8,258.21 602.13,262.43 606.47,266.45 610.8,270.28 615.13,273.93 619.47,277.41 623.8,280.7 628.13,283.79 632.47,286.68 636.8,289.38"/>
    <polyline points="314.4,184.92 318.73,186.47 323.07,188 327.4,189.53 331.73,191.03 336.07,192.5 340.4,193.93 344.73,195.29 349.07,196.56 353.4,197.73 357.73,198.75 362.07,199.61 366.4,200.26 370.73,200.67 375.07,200.79 379.4,200.55 383.73,199.87 388.07,198.67 392.4,196.86 396.73,194.42 401.07,191.39 405.4,187.99 409.73,184.55 414.07,181.52 418.4,179.42 422.73,178.66 427.07,179.46 431.4,181.74 435.73,185.17 440.07,189.21 444.4,193.24 448.73,196.8 453.07,199.63 457.4,201.75 461.73,203.39 466.07,204.89 470.4,206.55 474.73,208.53 479.07,210.82 483.4,213.26 487.73,215.62 492.07,217.68 496.4,219.26 500.73,220.33 505.07,220.93 509.4,221.18 513.73,221.26 518.07,221.33 522.4,221.54 526.73,221.99 531.07,222.76 535.4,223.87 539.73,225.29 544.07,226.99 548.4,228.92 552.73,231.02 557.07,233.26 561.4,235.61 565.73,238.09 570.07,240.72 574.4,243.55 578.73,246.63 583.07,249.98 587.4,253.63 591.73,257.55 596.07,261.7 600.4,266.01 604.73,270.39 609.07,274.74 613.4,278.97 617.73,283 622.07,286.77 626.4,290.25"/>
    <polyline points="304,188.64 308.33,190.17 312.67,191.69 317,193.17 321.33,194.62 325.67,195.99 330,197.26 334.33,198.4 338.67,199.35 343,200.07 347.33,200.51 351.67,200.61 356,200.35 360.33,199.69 364.67,198.65 369,197.24 373.33,195.48 377.67,193.44 382,191.18 386.33,188.79 390.67,186.42 395,184.29 399.33,182.65 403.67,181.81 408,182.08 412.33,183.65 416.67,186.6 421,190.79 425.33,195.89 429.67,201.43 434,206.94 438.33,211.97 442.67,216.27 447,219.74 451.33,222.47 455.67,224.63 460,226.43 464.33,228.04 468.67,229.55 473,231.01 477.33,232.38 481.67,233.64 486,234.75 490.33,235.69 494.67,236.49 499,237.16 503.33,237.73 507.67,238.21 512,238.61 516.33,238.9 520.67,239.05 525,239.05 529.33,238.86 533.67,238.49 538,237.96 542.33,237.35 546.67,236.75 551,236.3 555.33,236.16 559.67,236.5 564,237.47 568.33,239.19 572.67,241.71 577,245.06 581.33,249.15 585.67,253.89 590,259.11 594.33,264.61 598.67,270.21 603,275.72 607.33,280.99 611.67,285.9 616,290.39"/>
    <polyline points="293.6,192.35 297.93,193.87 302.27,195.35 306.6,196.78 310.93,198.13 315.27,199.36 319.6,200.4 323.93,201.2 328.27,201.67 332.6,201.73 336.93,201.27 341.27,200.23 345.6,198.58 349.93,196.3 354.27,193.47 358.6,190.2 362.93,186.69 367.27,183.17 371.6,179.9 375.93,177.17 380.27,175.24 384.6,174.36 388.93,174.7 393.27,176.4 397.6,179.49 401.93,183.89 406.27,189.42 410.6,195.77 414.93,202.57 419.27,209.42 423.6,215.91 427.93,221.76 432.27,226.77 436.6,230.9 440.93,234.19 445.27,236.77 449.6,238.8 453.93,240.45 458.27,241.84 462.6,243.07 466.93,244.2 471.27,245.26 475.6,246.26 479.93,247.21 484.27,248.09 488.6,248.86 492.93,249.47 497.27,249.87 501.6,249.98 505.93,249.71 510.27,249.01 514.6,247.81 518.93,246.11 523.27,243.94 527.6,241.39 531.93,238.61 536.27,235.81 540.6,233.24 544.93,231.16 549.27,229.85 553.6,229.54 557.93,230.4 562.27,232.51 566.6,235.89 570.93,240.42 575.27,245.93 579.6,252.17 583.93,258.88 588.27,265.77 592.6,272.57 596.93,279.08 601.27,285.13 605.6,290.62"/>
    <polyline points="283.2,196.06 287.53,197.56 291.87,199 296.2,200.37 300.53,201.61 304.87,202.67 309.2,203.46 313.53,203.87 317.87,203.79 322.2,203.07 326.53,201.58 330.87,199.23 335.2,195.95 339.53,191.78 343.87,186.82 348.2,181.3 352.53,175.57 356.87,170.05 361.2,165.2 365.53,161.5 369.87,159.35 374.2,159.05 378.53,160.77 382.87,164.48 387.2,170.02 391.53,177.06 395.87,185.19 400.2,193.9 404.53,202.73 408.87,211.22 413.2,219.03 417.53,225.93 421.87,231.81 426.2,236.65 430.53,240.56 434.87,243.66 439.2,246.13 443.53,248.11 447.87,249.76 452.2,251.19 456.53,252.47 460.87,253.66 465.2,254.77 469.53,255.8 473.87,256.72 478.2,257.47 482.53,257.98 486.87,258.16 491.2,257.9 495.53,257.11 499.87,255.7 504.2,253.62 508.53,250.87 512.87,247.51 517.2,243.67 521.53,239.54 525.87,235.39 530.2,231.54 534.53,228.32 538.87,226.05 543.2,225.02 547.53,225.43 551.87,227.38 556.2,230.86 560.53,235.75 564.87,241.83 569.2,248.8 573.53,256.34 577.87,264.1 582.2,271.78 586.53,279.12 590.87,285.92 595.2,292.07"/>
    <polyline points="272.8,199.78 277.13,201.26 281.47,202.67 285.8,203.99 290.13,205.15 294.47,206.08 298.8,206.66 303.13,206.77 307.47,206.24 311.8,204.92 316.13,202.62 320.47,199.22 324.8,194.66 329.13,188.96 333.47,182.28 337.8,174.93 342.13,167.36 346.47,160.11 350.8,153.81 355.13,149.07 359.47,146.41 363.8,146.18 368.13,148.56 372.47,153.46 376.8,160.59 381.13,169.48 385.47,179.54 389.8,190.15 394.13,200.71 398.47,210.73 402.8,219.84 407.13,227.82 411.47,234.59 415.8,240.18 420.13,244.7 424.47,248.33 428.8,251.24 433.13,253.6 437.47,255.56 441.8,257.25 446.13,258.75 450.47,260.12 454.8,261.37 459.13,262.49 463.47,263.46 467.8,264.22 472.13,264.68 476.47,264.75 480.8,264.34 485.13,263.34 489.47,261.68 493.8,259.32 498.13,256.25 502.47,252.55 506.8,248.35 511.13,243.87 515.47,239.39 519.8,235.23 524.13,231.74 528.47,229.25 532.8,228.05 537.13,228.34 541.47,230.23 545.8,233.69 550.13,238.61 554.47,244.74 558.8,251.8 563.13,259.43 567.47,267.29 571.8,275.07 576.13,282.5 580.47,289.39 584.8,295.6"/>
    <polyline points="262.4,203.51 266.73,204.98 271.07,206.39 275.4,207.69 279.73,208.83 284.07,209.72 288.4,210.24 292.73,210.26 297.07,209.61 301.4,208.11 305.73,205.57 310.07,201.87 314.4,196.92 318.73,190.77 323.07,183.57 327.4,175.67 331.73,167.54 336.07,159.76 340.4,153.01 344.73,147.94 349.07,145.1 353.4,144.88 357.73,147.43 362.07,152.68 366.4,160.28 370.73,169.72 375.07,180.37 379.4,191.55 383.73,202.65 388.07,213.15 392.4,222.68 396.73,231.03 401.07,238.11 405.4,243.98 409.73,248.76 414.07,252.61 418.4,255.73 422.73,258.29 427.07,260.44 431.4,262.3 435.73,263.94 440.07,265.43 444.4,266.79 448.73,268.01 453.07,269.07 457.4,269.91 461.73,270.46 466.07,270.65 470.4,270.39 474.73,269.6 479.07,268.21 483.4,266.19 487.73,263.55 492.07,260.35 496.4,256.71 500.73,252.83 505.07,248.97 509.4,245.4 513.73,242.44 518.07,240.37 522.4,239.46 526.73,239.89 531.07,241.73 535.4,244.97 539.73,249.5 544.07,255.11 548.4,261.53 552.73,268.47 557.07,275.6 561.4,282.65 565.73,289.39 570.07,295.65 574.4,301.31"/>
    <polyline points="252,207.25 256.33,208.73 260.67,210.16 265,211.49 269.33,212.68 273.67,213.64 278,214.28 282.33,214.48 286.67,214.07 291,212.91 295.33,210.83 299.67,207.7 304,203.47 308.33,198.16 312.67,191.93 317,185.05 321.33,177.97 325.67,171.21 330,165.36 334.33,161 338.67,158.64 343,158.62 347.33,161.07 351.67,165.92 356,172.88 360.33,181.47 364.67,191.14 369,201.28 373.33,211.35 377.67,220.88 382,229.55 386.33,237.17 390.67,243.68 395,249.11 399.33,253.58 403.67,257.24 408,260.26 412.33,262.77 416.67,264.92 421,266.81 425.33,268.51 429.67,270.06 434,271.5 438.33,272.82 442.67,273.99 447,274.99 451.33,275.76 455.67,276.24 460,276.36 464.33,276.07 468.67,275.32 473,274.09 477.33,272.37 481.67,270.23 486,267.75 490.33,265.1 494.67,262.47 499,260.07 503.33,258.14 507.67,256.92 512,256.58 516.33,257.28 520.67,259.06 525,261.93 529.33,265.78 533.67,270.46 538,275.77 542.33,281.45 546.67,287.29 551,293.07 555.33,298.6 559.67,303.75 564,308.45"/>
    <polyline points="241.6,211.01 245.93,212.51 250.27,213.97 254.6,215.36 258.93,216.64 263.27,217.76 267.6,218.63 271.93,219.18 276.27,219.28 280.6,218.81 284.93,217.66 289.27,215.73 293.6,212.97 297.93,209.41 302.27,205.16 306.6,200.42 310.93,195.53 315.27,190.87 319.6,186.89 323.93,184.02 328.27,182.63 332.6,183 336.93,185.21 341.27,189.22 345.6,194.79 349.93,201.6 354.27,209.21 358.6,217.18 362.93,225.09 367.27,232.61 371.6,239.49 375.93,245.58 380.27,250.85 384.6,255.32 388.93,259.07 393.27,262.22 397.6,264.89 401.93,267.18 406.27,269.2 410.6,271.03 414.93,272.72 419.27,274.3 423.6,275.79 427.93,277.19 432.27,278.5 436.6,279.67 440.93,280.7 445.27,281.52 449.6,282.11 453.93,282.42 458.27,282.41 462.6,282.09 466.93,281.44 471.27,280.52 475.6,279.37 479.93,278.11 484.27,276.87 488.6,275.78 492.93,275.02 497.27,274.73 501.6,275.03 505.93,276.02 510.27,277.75 514.6,280.19 518.93,283.29 523.27,286.94 527.6,291 531.93,295.32 536.27,299.73 540.6,304.09 544.93,308.29 549.27,312.24 553.6,315.88"/>
    <polyline points="231.2,214.76 235.53,216.28 239.87,217.78 244.2,219.23 248.53,220.62 252.87,221.9 257.2,223.04 261.53,223.97 265.87,224.62 270.2,224.91 274.53,224.78 278.87,224.17 283.2,223.04 287.53,221.4 291.87,219.33 296.2,216.95 300.53,214.48 304.87,212.15 309.2,210.23 313.53,209.01 317.87,208.72 322.2,209.52 326.53,211.48 330.87,214.56 335.2,218.62 339.53,223.45 343.87,228.79 348.2,234.35 352.53,239.88 356.87,245.17 361.2,250.05 365.53,254.45 369.87,258.34 374.2,261.72 378.53,264.66 382.87,267.21 387.2,269.47 391.53,271.5 395.87,273.35 400.2,275.08 404.53,276.73 408.87,278.31 413.2,279.83 417.53,281.3 421.87,282.71 426.2,284.05 430.53,285.29 434.87,286.42 439.2,287.41 443.53,288.23 447.87,288.88 452.2,289.34 456.53,289.62 460.87,289.73 465.2,289.72 469.53,289.64 473.87,289.58 478.2,289.61 482.53,289.82 486.87,290.32 491.2,291.16 495.53,292.4 499.87,294.06 504.2,296.14 508.53,298.6 512.87,301.37 517.2,304.38 521.53,307.54 525.87,310.74 530.2,313.92 534.53,317 538.87,319.94 543.2,322.69"/>
    <polyline points="220.8,218.51 225.13,220.05 229.47,221.58 233.8,223.08 238.13,224.55 242.47,225.96 246.8,227.3 251.13,228.53 255.47,229.61 259.8,230.52 264.13,231.19 268.47,231.62 272.8,231.77 277.13,231.66 281.47,231.32 285.8,230.83 290.13,230.27 294.47,229.79 298.8,229.53 303.13,229.63 307.47,230.21 311.8,231.37 316.13,233.12 320.47,235.47 324.8,238.33 329.13,241.6 333.47,245.13 337.8,248.78 342.13,252.42 346.47,255.92 350.8,259.22 355.13,262.27 359.47,265.04 363.8,267.56 368.13,269.84 372.47,271.92 376.8,273.85 381.13,275.65 385.47,277.36 389.8,279.01 394.13,280.62 398.47,282.19 402.8,283.73 407.13,285.24 411.47,286.72 415.8,288.17 420.13,289.57 424.47,290.9 428.8,292.17 433.13,293.36 437.47,294.46 441.8,295.46 446.13,296.37 450.47,297.2 454.8,297.97 459.13,298.71 463.47,299.45 467.8,300.24 472.13,301.13 476.47,302.15 480.8,303.36 485.13,304.76 489.47,306.37 493.8,308.2 498.13,310.21 502.47,312.39 506.8,314.67 511.13,317.03 515.47,319.42 519.8,321.79 524.13,324.11 528.47,326.35 532.8,328.5"/>
    <polyline points="210.4,222.26 214.73,223.81 219.07,225.35 223.4,226.88 227.73,228.4 232.07,229.89 236.4,231.36 240.73,232.77 245.07,234.12 249.4,235.39 253.73,236.57 258.07,237.63 262.4,238.57 266.73,239.4 271.07,240.13 275.4,240.79 279.73,241.42 284.07,242.09 288.4,242.85 292.73,243.76 297.07,244.89 301.4,246.26 305.73,247.91 310.07,249.8 314.4,251.93 318.73,254.23 323.07,256.65 327.4,259.12 331.73,261.59 336.07,264 340.4,266.32 344.73,268.52 349.07,270.61 353.4,272.59 357.73,274.46 362.07,276.25 366.4,277.97 370.73,279.63 375.07,281.26 379.4,282.86 383.73,284.43 388.07,285.99 392.4,287.54 396.73,289.08 401.07,290.6 405.4,292.11 409.73,293.6 414.07,295.06 418.4,296.49 422.73,297.88 427.07,299.24 431.4,300.55 435.73,301.83 440.07,303.06 444.4,304.28 448.73,305.48 453.07,306.68 457.4,307.9 461.73,309.17 466.07,310.5 470.4,311.9 474.73,313.4 479.07,314.98 483.4,316.66 487.73,318.41 492.07,320.24 496.4,322.12 500.73,324.02 505.07,325.94 509.4,327.85 513.73,329.73 518.07,331.59 522.4,333.4"/>
    <polyline points="200,226 204.33,227.55 208.67,229.1 213,230.65 217.33,232.19 221.67,233.72 226,235.25 230.33,236.75 234.67,238.23 239,239.68 243.33,241.1 247.67,242.48 252,243.81 256.33,245.1 260.67,246.36 265,247.58 269.33,248.8 273.67,250.03 278,251.29 282.33,252.61 286.67,254.01 291,255.5 295.33,257.09 299.67,258.76 304,260.53 308.33,262.35 312.67,264.23 317,266.12 321.33,268 325.67,269.87 330,271.71 334.33,273.5 338.67,275.25 343,276.96 347.33,278.64 351.67,280.28 356,281.89 360.33,283.49 364.67,285.07 369,286.64 373.33,288.2 377.67,289.76 382,291.31 386.33,292.86 390.67,294.4 395,295.94 399.33,297.47 403.67,298.99 408,300.5 412.33,301.99 416.67,303.47 421,304.94 425.33,306.39 429.67,307.82 434,309.25 438.33,310.67 442.67,312.09 447,313.52 451.33,314.97 455.67,316.44 460,317.94 464.33,319.48 468.67,321.04 473,322.65 477.33,324.28 481.67,325.94 486,327.62 490.33,329.3 494.67,330.99 499,332.68 503.33,334.36 507.67,336.03 512,337.68"/>
    <polyline points="512,114 507.67,115.56 503.33,117.11 499,118.67 494.67,120.22 490.33,121.78 486,123.33 481.67,124.89 477.33,126.44 473,128 468.67,129.56 464.33,131.11 460,132.67 455.67,134.22 451.33,135.78 447,137.33 442.67,138.89 438.33,140.44 434,142 429.67,143.56 425.33,145.11 421,146.67 416.67,148.22 412.33,149.78 408,151.33 403.67,152.89 399.33,154.44 395,156 390.67,157.56 386.33,159.11 382,160.67 377.67,162.22 373.33,163.78 369,165.33 364.67,166.89 360.33,168.44 356,170 351.67,171.56 347.33,173.11 343,174.67 338.67,176.22 334.33,177.78 330,179.33 325.67,180.88 321.33,182.44 317,183.99 312.67,185.54 308.33,187.09 304,188.64 299.67,190.19 295.33,191.74 291,193.28 286.67,194.83 282.33,196.37 278,197.92 273.67,199.47 269.33,201.02 265,202.57 260.67,204.13 256.33,205.69 252,207.25 247.67,208.81 243.33,210.38 239,211.95 234.67,213.51 230.33,215.08 226,216.64 221.67,218.2 217.33,219.76 213,221.32 208.67,222.88 204.33,224.44 200,226"/>
    <polyline points="522.4,117.73 518.07,119.29 513.73,120.84 509.4,122.4 505.07,123.96 500.73,125.51 496.4,127.07 492.07,128.62 487.73,130.18 483.4,131.73 479.07,133.29 474.73,134.84 470.4,136.4 466.07,137.96 461.73,139.51 457.4,141.07 453.07,142.62 448.73,144.18 444.4,145.73 440.07,147.29 435.73,148.84 431.4,150.4 427.07,151.96 422.73,153.51 418.4,155.07 414.07,156.62 409.73,158.18 405.4,159.73 401.07,161.29 396.73,162.84 392.4,164.4 388.07,165.96 383.73,167.51 379.4,169.07 375.07,170.62 370.73,172.18 366.4,173.73 362.07,175.29 357.73,176.84 353.4,178.4 349.07,179.95 344.73,181.5 340.4,183.06 336.07,184.6 331.73,186.15 327.4,187.69 323.07,189.23 318.73,190.76 314.4,192.29 310.07,193.81 305.73,195.32 301.4,196.84 297.07,198.35 292.73,199.86 288.4,201.38 284.07,202.91 279.73,204.44 275.4,205.99 271.07,207.55 266.73,209.12 262.4,210.7 258.07,212.3 253.73,213.89 249.4,215.49 245.07,217.09 240.73,218.69 236.4,220.28 232.07,221.87 227.73,223.45 223.4,225.02 219.07,226.59 214.73,228.16 210.4,229.72"/>
    <polyline points="532.8,121.47 528.47,123.02 524.13,124.58 519.8,126.13 515.47,127.69 511.13,129.24 506.8,130.8 502.47,132.36 498.13,133.91 493.8,135.47 489.47,137.02 485.13,138.58 480.8,140.13 476.47,141.69 472.13,143.24 467.8,144.8 463.47,146.36 459.13,147.91 454.8,149.47 450.47,151.02 446.13,152.58 441.8,154.13 437.47,155.69 433.13,157.24 428.8,158.8 424.47,160.36 420.13,161.91 415.8,163.47 411.47,165.02 407.13,166.58 402.8,168.13 398.47,169.69 394.13,171.24 389.8,172.8 385.47,174.36 381.13,175.91 376.8,177.47 372.47,179.02 368.13,180.58 363.8,182.13 359.47,183.68 355.13,185.22 350.8,186.76 346.47,188.29 342.13,189.81 337.8,191.31 333.47,192.8 329.13,194.27 324.8,195.72 320.47,197.15 316.13,198.56 311.8,199.96 307.47,201.36 303.13,202.76 298.8,204.18 294.47,205.62 290.13,207.1 285.8,208.63 281.47,210.2 277.13,211.81 272.8,213.47 268.47,215.16 264.13,216.86 259.8,218.58 255.47,220.29 251.13,222 246.8,223.69 242.47,225.35 238.13,227 233.8,228.63 229.47,230.24 225.13,231.83 220.8,233.42"/>
    <polyline points="543.2,125.2 538.87,126.76 534.53,128.31 530.2,129.87 525.87,131.42 521.53,132.98 517.2,134.53 512.87,136.09 508.53,137.64 504.2,139.2 499.87,140.76 495.53,142.31 491.2,143.87 486.87,145.42 482.53,146.98 478.2,148.53 473.87,150.09 469.53,151.64 465.2,153.2 460.87,154.76 456.53,156.31 452.2,157.87 447.87,159.42 443.53,160.98 439.2,162.53 434.87,164.09 430.53,165.64 426.2,167.2 421.87,168.76 417.53,170.31 413.2,171.87 408.87,173.42 404.53,174.98 400.2,176.53 395.87,178.09 391.53,179.64 387.2,181.2 382.87,182.76 378.53,184.3 374.2,185.85 369.87,187.38 365.53,188.9 361.2,190.4 356.87,191.88 352.53,193.33 348.2,194.73 343.87,196.08 339.53,197.38 335.2,198.61 330.87,199.78 326.53,200.89 322.2,201.97 317.87,203.04 313.53,204.12 309.2,205.25 304.87,206.46 300.53,207.79 296.2,209.25 291.87,210.85 287.53,212.59 283.2,214.45 278.87,216.4 274.53,218.42 270.2,220.47 265.87,222.51 261.53,224.52 257.2,226.48 252.87,228.39 248.53,230.23 244.2,232 239.87,233.73 235.53,235.41 231.2,237.05"/>
    <polyline points="553.6,128.93 549.27,130.49 544.93,132.04 540.6,133.6 536.27,135.16 531.93,136.71 527.6,138.27 523.27,139.82 518.93,141.38 514.6,142.93 510.27,144.49 505.93,146.04 501.6,147.6 497.27,149.16 492.93,150.71 488.6,152.27 484.27,153.82 479.93,155.38 475.6,156.93 471.27,158.49 466.93,160.04 462.6,161.6 458.27,163.16 453.93,164.71 449.6,166.27 445.27,167.82 440.93,169.38 436.6,170.93 432.27,172.49 427.93,174.04 423.6,175.6 419.27,177.16 414.93,178.71 410.6,180.27 406.27,181.82 401.93,183.38 397.6,184.93 393.27,186.49 388.93,188.02 384.6,189.54 380.27,191.04 375.93,192.5 371.6,193.92 367.27,195.28 362.93,196.56 358.6,197.72 354.27,198.76 349.93,199.65 345.6,200.37 341.27,200.94 336.93,201.37 332.6,201.71 328.27,202.01 323.93,202.35 319.6,202.82 315.27,203.5 310.93,204.46 306.6,205.77 302.27,207.43 297.93,209.45 293.6,211.78 289.27,214.35 284.93,217.09 280.6,219.9 276.27,222.7 271.93,225.43 267.6,228.03 263.27,230.48 258.93,232.77 254.6,234.9 250.27,236.89 245.93,238.76 241.6,240.54"/>
    <polyline points="564,132.67 559.67,134.22 555.33,135.78 551,137.33 546.67,138.89 542.33,140.44 538,142 533.67,143.56 529.33,145.11 525,146.67 520.67,148.22 516.33,149.78 512,151.33 507.67,152.89 503.33,154.44 499,156 494.67,157.56 490.33,159.11 486,160.67 481.67,162.22 477.33,163.78 473,165.33 468.67,166.89 464.33,168.44 460,170 455.67,171.56 451.33,173.11 447,174.67 442.67,176.22 438.33,177.78 434,179.33 429.67,180.89 425.33,182.44 421,184 416.67,185.56 412.33,187.11 408,188.67 403.67,190.2 399.33,191.69 395,193.15 390.67,194.56 386.33,195.9 382,197.15 377.67,198.27 373.33,199.22 369,199.95 364.67,200.41 360.33,200.55 356,200.35 351.67,199.81 347.33,198.98 343,197.93 338.67,196.81 334.33,195.76 330,194.98 325.67,194.66 321.33,194.94 317,195.95 312.67,197.73 308.33,200.27 304,203.47 299.67,207.2 295.33,211.29 291,215.53 286.67,219.76 282.33,223.83 278,227.64 273.67,231.12 269.33,234.25 265,237.05 260.67,239.54 256.33,241.78 252,243.81"/>
    <polyline points="574.4,136.4 570.07,137.96 565.73,139.51 561.4,141.07 557.07,142.62 552.73,144.18 548.4,145.73 544.07,147.29 539.73,148.84 535.4,150.4 531.07,151.96 526.73,153.51 522.4,155.07 518.07,156.62 513.73,158.18 509.4,159.73 505.07,161.29 500.73,162.84 496.4,164.4 492.07,165.96 487.73,167.51 483.4,169.07 479.07,170.62 474.73,172.18 470.4,173.73 466.07,175.29 461.73,176.84 457.4,178.4 453.07,179.96 448.73,181.51 444.4,183.07 440.07,184.62 435.73,186.18 431.4,187.73 427.07,189.29 422.73,190.84 418.4,192.37 414.07,193.78 409.73,195.14 405.4,196.42 401.07,197.62 396.73,198.7 392.4,199.63 388.07,200.35 383.73,200.8 379.4,200.9 375.07,200.53 370.73,199.63 366.4,198.13 362.07,196.02 357.73,193.38 353.4,190.35 349.07,187.15 344.73,184.07 340.4,181.46 336.07,179.64 331.73,178.91 327.4,179.47 323.07,181.42 318.73,184.73 314.4,189.23 310.07,194.68 305.73,200.77 301.4,207.15 297.07,213.51 292.73,219.59 288.4,225.19 284.07,230.21 279.73,234.6 275.4,238.39 271.07,241.64 266.73,244.43 262.4,246.85"/>
    <polyline points="584.8,140.13 580.47,141.69 576.13,143.24 571.8,144.8 567.47,146.36 563.13,147.91 558.8,149.47 554.47,151.02 550.13,152.58 545.8,154.13 541.47,155.69 537.13,157.24 532.8,158.8 528.47,160.36 524.13,161.91 519.8,163.47 515.47,165.02 511.13,166.58 506.8,168.13 502.47,169.69 498.13,171.24 493.8,172.8 489.47,174.36 485.13,175.91 480.8,177.47 476.47,179.02 472.13,180.58 467.8,182.13 463.47,183.69 459.13,185.24 454.8,186.8 450.47,188.36 446.13,189.91 441.8,191.47 437.47,193.02 433.13,194.55 428.8,195.79 424.47,196.9 420.13,197.86 415.8,198.67 411.47,199.32 407.13,199.82 402.8,200.16 398.47,200.29 394.13,200.13 389.8,199.56 385.47,198.43 381.13,196.57 376.8,193.87 372.47,190.27 368.13,185.83 363.8,180.75 359.47,175.36 355.13,170.1 350.8,165.48 346.47,162.02 342.13,160.16 337.8,160.22 333.47,162.36 329.13,166.53 324.8,172.51 320.47,179.91 316.13,188.26 311.8,197.07 307.47,205.85 303.13,214.21 298.8,221.86 294.47,228.63 290.13,234.47 285.8,239.39 281.47,243.5 277.13,246.92 272.8,249.78"/>
    <polyline points="595.2,143.87 590.87,145.42 586.53,146.98 582.2,148.53 577.87,150.09 573.53,151.64 569.2,153.2 564.87,154.76 560.53,156.31 556.2,157.87 551.87,159.42 547.53,160.98 543.2,162.53 538.87,164.09 534.53,165.64 530.2,167.2 525.87,168.76 521.53,170.31 517.2,171.87 512.87,173.42 508.53,174.98 504.2,176.53 499.87,178.09 495.53,179.64 491.2,181.2 486.87,182.76 482.53,184.31 478.2,185.87 473.87,187.42 469.53,188.98 465.2,190.53 460.87,192.09 456.53,193.64 452.2,195.2 447.87,196.76 443.53,197.9 439.2,198.6 434.87,198.99 430.53,199.04 426.2,198.78 421.87,198.29 417.53,197.65 413.2,196.95 408.87,196.24 404.53,195.5 400.2,194.58 395.87,193.26 391.53,191.25 387.2,188.31 382.87,184.25 378.53,179.06 374.2,172.94 369.87,166.28 365.53,159.64 361.2,153.67 356.87,149.06 352.53,146.4 348.2,146.11 343.87,148.41 339.53,153.25 335.2,160.36 330.87,169.26 326.53,179.37 322.2,190.05 317.87,200.71 313.53,210.84 309.2,220.08 304.87,228.22 300.53,235.18 296.2,240.99 291.87,245.77 287.53,249.68 283.2,252.89"/>
    <polyline points="605.6,147.6 601.27,149.16 596.93,150.71 592.6,152.27 588.27,153.82 583.93,155.38 579.6,156.93 575.27,158.49 570.93,160.04 566.6,161.6 562.27,163.16 557.93,164.71 553.6,166.27 549.27,167.82 544.93,169.38 540.6,170.93 536.27,172.49 531.93,174.04 527.6,175.6 523.27,177.16 518.93,178.71 514.6,180.27 510.27,181.82 505.93,183.38 501.6,184.93 497.27,186.49 492.93,188.04 488.6,189.6 484.27,191.16 479.93,192.71 475.6,194.27 471.27,195.82 466.93,197.38 462.6,198.93 458.27,200.49 453.93,200.87 449.6,200.66 445.27,199.83 440.93,198.38 436.6,196.41 432.27,194.11 427.93,191.75 423.6,189.63 419.27,187.98 414.93,186.87 410.6,186.21 406.27,185.68 401.93,184.84 397.6,183.22 393.27,180.47 388.93,176.39 384.6,171.1 380.27,164.96 375.93,158.57 371.6,152.67 367.27,148.02 362.93,145.29 358.6,144.98 354.27,147.35 349.93,152.38 345.6,159.79 341.27,169.09 336.93,179.67 332.6,190.85 328.27,202.01 323.93,212.61 319.6,222.29 315.27,230.8 310.93,238.06 306.6,244.12 302.27,249.08 297.93,253.13 293.6,256.44"/>
    <polyline points="616,151.33 611.67,152.89 607.33,154.44 603,156 598.67,157.56 594.33,159.11 590,160.67 585.67,162.22 581.33,163.78 577,165.33 572.67,166.89 568.33,168.44 564,170 559.67,171.56 555.33,173.11 551,174.67 546.67,176.22 542.33,177.78 538,179.33 533.67,180.89 529.33,182.44 525,184 520.67,185.56 516.33,187.11 512,188.67 507.67,190.22 503.33,191.78 499,193.33 494.67,194.89 490.33,196.44 486,198 481.67,199.56 477.33,201.11 473,202.67 468.67,204.04 464.33,203.54 460,202.22 455.67,199.99 451.33,196.9 447,193.14 442.67,189.05 438.33,185.11 434,181.81 429.67,179.58 425.33,178.62 421,178.85 416.67,179.91 412.33,181.2 408,182.08 403.67,181.95 399.33,180.48 395,177.62 390.67,173.64 386.33,169.1 382,164.68 377.67,161.14 373.33,159.13 369,159.16 364.67,161.49 360.33,166.14 356,172.88 351.67,181.28 347.33,190.8 343,200.86 338.67,210.91 334.33,220.47 330,229.21 325.67,236.92 321.33,243.53 317,249.07 312.67,253.65 308.33,257.42 304,260.53"/>
    <polyline points="626.4,155.07 622.07,156.62 617.73,158.18 613.4,159.73 609.07,161.29 604.73,162.84 600.4,164.4 596.07,165.96 591.73,167.51 587.4,169.07 583.07,170.62 578.73,172.18 574.4,173.73 570.07,175.29 565.73,176.84 561.4,178.4 557.07,179.96 552.73,181.51 548.4,183.07 544.07,184.62 539.73,186.18 535.4,187.73 531.07,189.29 526.73,190.84 522.4,192.4 518.07,193.96 513.73,195.51 509.4,197.07 505.07,198.62 500.73,200.18 496.4,201.73 492.07,203.29 487.73,204.84 483.4,206.4 479.07,206.8 474.73,205.3 470.4,202.83 466.07,199.43 461.73,195.22 457.4,190.52 453.07,185.78 448.73,181.56 444.4,178.42 440.07,176.79 435.73,176.88 431.4,178.58 427.07,181.46 422.73,184.89 418.4,188.15 414.07,190.58 409.73,191.78 405.4,191.62 401.07,190.28 396.73,188.17 392.4,185.88 388.07,184.02 383.73,183.16 379.4,183.7 375.07,185.89 370.73,189.77 366.4,195.17 362.07,201.8 357.73,209.26 353.4,217.12 349.07,224.96 344.73,232.45 340.4,239.34 336.07,245.46 331.73,250.76 327.4,255.27 323.07,259.07 318.73,262.27 314.4,264.98"/>
    <polyline points="636.8,158.8 632.47,160.36 628.13,161.91 623.8,163.47 619.47,165.02 615.13,166.58 610.8,168.13 606.47,169.69 602.13,171.24 597.8,172.8 593.47,174.36 589.13,175.91 584.8,177.47 580.47,179.02 576.13,180.58 571.8,182.13 567.47,183.69 563.13,185.24 558.8,186.8 554.47,188.36 550.13,189.91 545.8,191.47 541.47,193.02 537.13,194.58 532.8,196.13 528.47,197.69 524.13,199.24 519.8,200.8 515.47,202.36 511.13,203.91 506.8,205.47 502.47,207.02 498.13,208.58 493.8,209.19 489.47,207.12 485.13,204.07 480.8,200.14 476.47,195.58 472.13,190.77 467.8,186.17 463.47,182.3 459.13,179.65 454.8,178.58 450.47,179.29 446.13,181.72 441.8,185.58 437.47,190.37 433.13,195.49 428.8,200.31 424.47,204.34 420.13,207.24 415.8,208.95 411.47,209.6 407.13,209.51 402.8,209.1 398.47,208.8 394.13,209.02 389.8,210.04 385.47,212.05 381.13,215.07 376.8,219.03 372.47,223.75 368.13,228.98 363.8,234.45 359.47,239.92 355.13,245.16 350.8,250.03 346.47,254.42 342.13,258.31 337.8,261.7 333.47,264.65 329.13,267.23 324.8,269.5"/>
    <polyline points="647.2,162.53 642.87,164.09 638.53,165.64 634.2,167.2 629.87,168.76 625.53,170.31 621.2,171.87 616.87,173.42 612.53,174.98 608.2,176.53 603.87,178.09 599.53,179.64 595.2,181.2 590.87,182.76 586.53,184.31 582.2,185.87 577.87,187.42 573.53,188.98 569.2,190.53 564.87,192.09 560.53,193.64 556.2,195.2 551.87,196.76 547.53,198.31 543.2,199.87 538.87,201.42 534.53,202.98 530.2,204.53 525.87,206.09 521.53,207.64 517.2,209.2 512.87,210.76 508.53,211.18 504.2,208.16 499.87,203.84 495.53,198.41 491.2,192.3 486.87,186.1 482.53,180.54 478.2,176.34 473.87,174.07 469.53,174.05 465.2,176.33 460.87,180.63 456.53,186.46 452.2,193.21 447.87,200.23 443.53,206.94 439.2,212.89 434.87,217.82 430.53,221.62 426.2,224.35 421.87,226.19 417.53,227.4 413.2,228.27 408.87,229.09 404.53,230.1 400.2,231.49 395.87,233.35 391.53,235.72 387.2,238.56 382.87,241.79 378.53,245.27 374.2,248.88 369.87,252.47 365.53,255.95 361.2,259.24 356.87,262.27 352.53,265.04 348.2,267.56 343.87,269.84 339.53,271.93 335.2,273.86"/>
    <polyline points="657.6,166.27 653.27,167.82 648.93,169.38 644.6,170.93 640.27,172.49 635.93,174.04 631.6,175.6 627.27,177.16 622.93,178.71 618.6,180.27 614.27,181.82 609.93,183.38 605.6,184.93 601.27,186.49 596.93,188.04 592.6,189.6 588.27,191.16 583.93,192.71 579.6,194.27 575.27,195.82 570.93,197.38 566.6,198.93 562.27,200.49 557.93,202.04 553.6,203.6 549.27,205.16 544.93,206.71 540.6,208.27 536.27,209.82 531.93,211.38 527.6,212.93 523.27,213.85 518.93,210.52 514.6,205.51 510.27,198.93 505.93,191.14 501.6,182.84 497.27,174.97 492.93,168.57 488.6,164.59 484.27,163.66 479.93,165.97 475.6,171.25 471.27,178.82 466.93,187.79 462.6,197.23 458.27,206.33 453.93,214.51 449.6,221.46 445.27,227.1 440.93,231.51 436.6,234.88 432.27,237.45 427.93,239.47 423.6,241.16 419.27,242.7 414.93,244.25 410.6,245.9 406.27,247.71 401.93,249.72 397.6,251.9 393.27,254.23 388.93,256.66 384.6,259.14 380.27,261.6 375.93,264 371.6,266.32 367.27,268.53 362.93,270.61 358.6,272.59 354.27,274.46 349.93,276.25 345.6,277.97"/>
    <polyline points="668,170 663.67,171.56 659.33,173.11 655,174.67 650.67,176.22 646.33,177.78 642,179.33 637.67,180.89 633.33,182.44 629,184 624.67,185.56 620.33,187.11 616,188.67 611.67,190.22 607.33,191.78 603,193.33 598.67,194.89 594.33,196.44 590,198 585.67,199.56 581.33,201.11 577,202.67 572.67,204.22 568.33,205.78 564,207.33 559.67,208.89 555.33,210.44 551,212 546.67,213.56 542.33,215.11 538,216.01 533.67,213.41 529.33,209.21 525,203.33 520.67,195.9 516.33,187.39 512,178.58 507.67,170.5 503.33,164.27 499,160.84 494.67,160.84 490.33,164.36 486,170.99 481.67,179.91 477.33,190.1 473,200.53 468.67,210.37 464.33,219.09 460,226.43 455.67,232.41 451.33,237.18 447,240.98 442.67,244.05 438.33,246.61 434,248.83 429.67,250.85 425.33,252.76 421,254.62 416.67,256.48 412.33,258.35 408,260.26 403.67,262.18 399.33,264.11 395,266.05 390.67,267.96 386.33,269.85 382,271.69 377.67,273.49 373.33,275.25 369,276.96 364.67,278.63 360.33,280.27 356,281.89"/>
    <polyline points="678.4,173.73 674.07,175.29 669.73,176.84 665.4,178.4 661.07,179.96 656.73,181.51 652.4,183.07 648.07,184.62 643.73,186.18 639.4,187.73 635.07,189.29 630.73,190.84 626.4,192.4 622.07,193.96 617.73,195.51 613.4,197.07 609.07,198.62 604.73,200.18 600.4,201.73 596.07,203.29 591.73,204.84 587.4,206.4 583.07,207.96 578.73,209.51 574.4,211.07 570.07,212.62 565.73,214.18 561.4,215.73 557.07,215.88 552.73,214.87 548.4,212.95 544.07,209.95 539.73,205.75 535.4,200.37 531.07,193.96 526.73,186.96 522.4,180 518.07,173.92 513.73,169.58 509.4,167.71 505.07,168.75 500.73,172.71 496.4,179.21 492.07,187.54 487.73,196.86 483.4,206.32 479.07,215.27 474.73,223.27 470.4,230.14 466.07,235.9 461.73,240.67 457.4,244.64 453.07,248 448.73,250.91 444.4,253.48 440.07,255.82 435.73,257.99 431.4,260.03 427.07,261.98 422.73,263.87 418.4,265.7 414.07,267.49 409.73,269.26 405.4,270.99 401.07,272.7 396.73,274.39 392.4,276.06 388.07,277.7 383.73,279.33 379.4,280.94 375.07,282.54 370.73,284.12 366.4,285.7"/>
    <polyline points="688.8,177.47 684.47,179.02 680.13,180.58 675.8,182.13 671.47,183.69 667.13,185.24 662.8,186.8 658.47,188.36 654.13,189.91 649.8,191.47 645.47,193.02 641.13,194.58 636.8,196.13 632.47,197.69 628.13,199.24 623.8,200.8 619.47,202.36 615.13,203.91 610.8,205.47 606.47,207.02 602.13,208.58 597.8,210.13 593.47,211.69 589.13,212.99 584.8,213.35 580.47,213.24 576.13,212.58 571.8,211.34 567.47,209.48 563.13,207 558.8,203.91 554.47,200.24 550.13,196.07 545.8,191.54 541.47,186.87 537.13,182.39 532.8,178.53 528.47,175.76 524.13,174.55 519.8,175.24 515.47,177.99 511.13,182.71 506.8,189.06 502.47,196.55 498.13,204.59 493.8,212.64 489.47,220.29 485.13,227.25 480.8,233.4 476.47,238.75 472.13,243.38 467.8,247.39 463.47,250.9 459.13,254.02 454.8,256.82 450.47,259.37 446.13,261.72 441.8,263.9 437.47,265.95 433.13,267.9 428.8,269.76 424.47,271.56 420.13,273.3 415.8,275.01 411.47,276.68 407.13,278.32 402.8,279.95 398.47,281.56 394.13,283.15 389.8,284.74 385.47,286.31 381.13,287.88 376.8,289.45"/>
    <polyline points="699.2,181.2 694.87,182.76 690.53,184.31 686.2,185.87 681.87,187.42 677.53,188.98 673.2,190.53 668.87,192.09 664.53,193.64 660.2,195.2 655.87,196.76 651.53,198.31 647.2,199.87 642.87,201.42 638.53,202.98 634.2,204.53 629.87,206.09 625.53,207.64 621.2,209.2 616.87,210.69 612.53,211.64 608.2,212.21 603.87,212.29 599.53,211.78 595.2,210.56 590.87,208.56 586.53,205.74 582.2,202.14 577.87,197.83 573.53,192.99 569.2,187.83 564.87,182.63 560.53,177.66 556.2,173.26 551.87,169.72 547.53,167.32 543.2,166.31 538.87,166.87 534.53,169.08 530.2,172.93 525.87,178.28 521.53,184.86 517.2,192.32 512.87,200.26 508.53,208.28 504.2,216.05 499.87,223.32 495.53,229.94 491.2,235.86 486.87,241.1 482.53,245.71 478.2,249.77 473.87,253.38 469.53,256.61 465.2,259.53 460.87,262.2 456.53,264.65 452.2,266.94 447.87,269.08 443.53,271.12 439.2,273.07 434.87,274.94 430.53,276.75 426.2,278.51 421.87,280.23 417.53,281.92 413.2,283.58 408.87,285.22 404.53,286.83 400.2,288.43 395.87,290.02 391.53,291.6 387.2,293.17"/>
    <polyline points="709.6,184.93 705.27,186.49 700.93,188.04 696.6,189.6 692.27,191.16 687.93,192.71 683.6,194.27 679.27,195.82 674.93,197.38 670.6,198.93 666.27,200.49 661.93,202.04 657.6,203.6 653.27,205.16 648.93,206.71 644.6,208.27 640.27,209.75 635.93,211.02 631.6,212.07 627.27,212.79 622.93,213.06 618.6,212.73 614.27,211.63 609.93,209.6 605.6,206.51 601.27,202.29 596.93,196.93 592.6,190.52 588.27,183.27 583.93,175.51 579.6,167.66 575.27,160.21 570.93,153.69 566.6,148.57 562.27,145.27 557.93,144.08 553.6,145.15 549.27,148.46 544.93,153.83 540.6,160.95 536.27,169.42 531.93,178.78 527.6,188.55 523.27,198.3 518.93,207.67 514.6,216.39 510.27,224.3 505.93,231.34 501.6,237.51 497.27,242.88 492.93,247.55 488.6,251.63 484.27,255.22 479.93,258.43 475.6,261.34 471.27,264.02 466.93,266.53 462.6,268.91 458.27,271.18 453.93,273.37 449.6,275.48 445.27,277.54 440.93,279.53 436.6,281.46 432.27,283.34 427.93,285.16 423.6,286.94 419.27,288.67 414.93,290.36 410.6,292.02 406.27,293.66 401.93,295.27 397.6,296.86"/>
    <polyline points="720,188.67 715.67,190.22 711.33,191.78 707,193.33 702.67,194.89 698.33,196.44 694,197.99 689.67,199.54 685.33,201.09 681,202.64 676.67,204.18 672.33,205.71 668,207.23 663.67,208.72 659.33,210.16 655,211.53 650.67,212.77 646.33,213.81 642,214.55 637.67,214.84 633.33,214.52 629,213.4 624.67,211.27 620.33,207.93 616,203.24 611.67,197.09 607.33,189.51 603,180.66 598.67,170.85 594.33,160.52 590,150.27 585.67,140.77 581.33,132.71 577,126.72 572.67,123.31 568.33,122.8 564,125.28 559.67,130.63 555.33,138.5 551,148.36 546.67,159.61 542.33,171.6 538,183.71 533.67,195.43 529.33,206.35 525,216.2 520.67,224.85 516.33,232.3 512,238.61 507.67,243.91 503.33,248.38 499,252.19 494.67,255.5 490.33,258.47 486,261.22 481.67,263.83 477.33,266.37 473,268.89 468.67,271.39 464.33,273.89 460,276.36 455.67,278.8 451.33,281.18 447,283.48 442.67,285.7 438.33,287.82 434,289.85 429.67,291.8 425.33,293.65 421,295.44 416.67,297.17 412.33,298.85 408,300.5"/>
    <polyline points="730.4,192.4 726.07,193.95 721.73,195.5 717.4,197.05 713.07,198.59 708.73,200.13 704.4,201.65 700.07,203.16 695.73,204.65 691.4,206.11 687.07,207.55 682.73,208.96 678.4,210.34 674.07,211.68 669.73,212.96 665.4,214.16 661.07,215.24 656.73,216.1 652.4,216.65 648.07,216.73 643.73,216.15 639.4,214.7 635.07,212.12 630.73,208.22 626.4,202.8 622.07,195.79 617.73,187.2 613.4,177.23 609.07,166.24 604.73,154.75 600.4,143.44 596.07,133.06 591.73,124.38 587.4,118.11 583.07,114.8 578.73,114.78 574.4,118.11 570.07,124.6 565.73,133.79 561.4,145.08 557.07,157.72 552.73,170.96 548.4,184.11 544.07,196.58 539.73,207.93 535.4,217.9 531.07,226.38 526.73,233.39 522.4,239.07 518.07,243.63 513.73,247.31 509.4,250.35 505.07,252.99 500.73,255.43 496.4,257.83 492.07,260.31 487.73,262.94 483.4,265.73 479.07,268.68 474.73,271.75 470.4,274.89 466.07,278.03 461.73,281.12 457.4,284.1 453.07,286.94 448.73,289.61 444.4,292.1 440.07,294.43 435.73,296.59 431.4,298.61 427.07,300.52 422.73,302.33 418.4,304.06"/>
    <polyline points="740.8,196.12 736.47,197.67 732.13,199.21 727.8,200.74 723.47,202.24 719.13,203.72 714.8,205.16 710.47,206.54 706.13,207.86 701.8,209.09 697.47,210.25 693.13,211.32 688.8,212.32 684.47,213.26 680.13,214.17 675.8,215.04 671.47,215.87 667.13,216.6 662.8,217.15 658.47,217.37 654.13,217.07 649.8,216.02 645.47,213.95 641.13,210.63 636.8,205.87 632.47,199.56 628.13,191.72 623.8,182.54 619.47,172.37 615.13,161.72 610.8,151.25 606.47,141.68 602.13,133.78 597.8,128.19 593.47,125.44 589.13,125.83 584.8,129.4 580.47,135.93 576.13,144.97 571.8,155.87 567.47,167.92 563.13,180.37 558.8,192.53 554.47,203.82 550.13,213.82 545.8,222.31 541.47,229.2 537.13,234.56 532.8,238.58 528.47,241.52 524.13,243.69 519.8,245.4 515.47,246.94 511.13,248.57 506.8,250.49 502.47,252.81 498.13,255.61 493.8,258.87 489.47,262.54 485.13,266.52 480.8,270.68 476.47,274.92 472.13,279.09 467.8,283.11 463.47,286.89 459.13,290.39 454.8,293.59 450.47,296.49 446.13,299.12 441.8,301.49 437.47,303.66 433.13,305.67 428.8,307.54"/>
    <polyline points="751.2,199.84 746.87,201.37 742.53,202.88 738.2,204.36 733.87,205.78 729.53,207.12 725.2,208.35 720.87,209.44 716.53,210.34 712.2,211.03 707.87,211.51 703.53,211.78 699.2,211.89 694.87,211.92 690.53,211.95 686.2,212.09 681.87,212.41 677.53,212.94 673.2,213.65 668.87,214.42 664.53,215.06 660.2,215.3 655.87,214.86 651.53,213.45 647.2,210.82 642.87,206.85 638.53,201.51 634.2,194.94 629.87,187.43 625.53,179.43 621.2,171.49 616.87,164.24 612.53,158.29 608.2,154.21 603.87,152.41 599.53,153.14 595.2,156.42 590.87,162.04 586.53,169.6 582.2,178.57 577.87,188.3 573.53,198.16 569.2,207.55 564.87,215.99 560.53,223.14 556.2,228.8 551.87,232.94 547.53,235.67 543.2,237.22 538.87,237.9 534.53,238.05 530.2,238.04 525.87,238.23 521.53,238.88 517.2,240.24 512.87,242.43 508.53,245.48 504.2,249.37 499.87,253.97 495.53,259.1 491.2,264.57 486.87,270.17 482.53,275.7 478.2,281.01 473.87,285.96 469.53,290.49 465.2,294.57 460.87,298.18 456.53,301.37 452.2,304.18 447.87,306.68 443.53,308.92 439.2,310.95"/>
    <polyline points="761.6,203.55 757.27,205.05 752.93,206.5 748.6,207.89 744.27,209.16 739.93,210.25 735.6,211.11 731.27,211.65 726.93,211.8 722.6,211.51 718.27,210.74 713.93,209.56 709.6,208.05 705.27,206.4 700.93,204.84 696.6,203.63 692.27,203 687.93,203.13 683.6,204.07 679.27,205.74 674.93,207.93 670.6,210.32 666.27,212.51 661.93,214.13 657.6,214.83 653.27,214.39 648.93,212.73 644.6,209.9 640.27,206.13 635.93,201.75 631.6,197.2 627.27,192.97 622.93,189.53 618.6,187.31 614.27,186.61 609.93,187.6 605.6,190.29 601.27,194.52 596.93,199.98 592.6,206.27 588.27,212.9 583.93,219.38 579.6,225.27 575.27,230.2 570.93,233.91 566.6,236.29 562.27,237.35 557.93,237.23 553.6,236.17 549.27,234.51 544.93,232.64 540.6,230.94 536.27,229.8 531.93,229.54 527.6,230.38 523.27,232.47 518.93,235.81 514.6,240.33 510.27,245.84 505.93,252.1 501.6,258.84 497.27,265.77 492.93,272.61 488.6,279.16 484.27,285.24 479.93,290.76 475.6,295.67 471.27,299.97 466.93,303.7 462.6,306.93 458.27,309.73 453.93,312.2 449.6,314.39"/>
    <polyline points="772,207.24 767.67,208.7 763.33,210.09 759,211.35 754.67,212.42 750.33,213.2 746,213.56 741.67,213.38 737.33,212.54 733,210.94 728.67,208.54 724.33,205.41 720,201.75 715.67,197.87 711.33,194.18 707,191.15 702.67,189.23 698.33,188.76 694,189.9 689.67,192.62 685.33,196.66 681,201.6 676.67,206.89 672.33,212 668,216.46 663.67,219.9 659.33,222.15 655,223.2 650.67,223.18 646.33,222.37 642,221.1 637.67,219.74 633.33,218.65 629,218.13 624.67,218.4 620.33,219.58 616,221.68 611.67,224.59 607.33,228.09 603,231.9 598.67,235.7 594.33,239.14 590,241.93 585.67,243.81 581.33,244.62 577,244.28 572.67,242.86 568.33,240.51 564,237.47 559.67,234.1 555.33,230.77 551,227.89 546.67,225.84 542.33,224.95 538,225.45 533.67,227.46 529.33,230.99 525,235.92 520.67,242.03 516.33,249.03 512,256.58 507.67,264.36 503.33,272.04 499,279.38 494.67,286.18 490.33,292.33 486,297.76 481.67,302.49 477.33,306.56 473,310.05 468.67,313.05 464.33,315.65 460,317.94"/>
    <polyline points="782.4,210.94 778.07,212.37 773.73,213.7 769.4,214.86 765.07,215.76 760.73,216.26 756.4,216.2 752.07,215.41 747.73,213.72 743.4,210.99 739.07,207.18 734.73,202.39 730.4,196.87 726.07,191.06 721.73,185.52 717.4,180.91 713.07,177.84 708.73,176.81 704.4,178.09 700.07,181.65 695.73,187.21 691.4,194.25 687.07,202.09 682.73,210.05 678.4,217.52 674.07,224.05 669.73,229.37 665.4,233.4 661.07,236.25 656.73,238.12 652.4,239.28 648.07,240.03 643.73,240.65 639.4,241.37 635.07,242.34 630.73,243.67 626.4,245.35 622.07,247.33 617.73,249.46 613.4,251.57 609.07,253.45 604.73,254.89 600.4,255.69 596.07,255.68 591.73,254.77 587.4,252.93 583.07,250.23 578.73,246.83 574.4,242.95 570.07,238.93 565.73,235.1 561.4,231.86 557.07,229.56 552.73,228.49 548.4,228.89 544.07,230.85 539.73,234.36 535.4,239.3 531.07,245.44 526.73,252.48 522.4,260.08 518.07,267.9 513.73,275.64 509.4,283.01 505.07,289.85 500.73,296.02 496.4,301.47 492.07,306.21 487.73,310.29 483.4,313.79 479.07,316.79 474.73,319.39 470.4,321.68"/>
    <polyline points="792.8,214.67 788.47,216.09 784.13,217.4 779.8,218.54 775.47,219.39 771.13,219.81 766.8,219.64 762.47,218.68 758.13,216.74 753.8,213.69 749.47,209.47 745.13,204.19 740.8,198.12 736.47,191.74 732.13,185.65 727.8,180.56 723.47,177.15 719.13,175.97 714.8,177.31 710.47,181.19 706.13,187.29 701.8,195.09 697.47,203.89 693.13,212.96 688.8,221.66 684.47,229.52 680.13,236.22 675.8,241.68 671.47,245.96 667.13,249.21 662.8,251.67 658.47,253.57 654.13,255.14 649.8,256.56 645.47,257.95 641.13,259.37 636.8,260.85 632.47,262.35 628.13,263.78 623.8,265.05 619.47,266.02 615.13,266.56 610.8,266.54 606.47,265.88 602.13,264.5 597.8,262.42 593.47,259.69 589.13,256.45 584.8,252.9 580.47,249.3 576.13,245.96 571.8,243.18 567.47,241.26 563.13,240.47 558.8,240.99 554.47,242.89 550.13,246.16 545.8,250.68 541.47,256.26 537.13,262.62 532.8,269.47 528.47,276.51 524.13,283.47 519.8,290.11 515.47,296.28 511.13,301.86 506.8,306.82 502.47,311.15 498.13,314.9 493.8,318.14 489.47,320.95 485.13,323.41 480.8,325.6"/>
    <polyline points="803.2,218.42 798.87,219.87 794.53,221.22 790.2,222.41 785.87,223.37 781.53,223.97 777.2,224.05 772.87,223.47 768.53,222.05 764.2,219.67 759.87,216.3 755.53,212.02 751.2,207.06 746.87,201.82 742.53,196.83 738.2,192.69 733.87,189.99 729.53,189.2 725.2,190.59 720.87,194.16 716.53,199.68 712.2,206.67 707.87,214.57 703.53,222.76 699.2,230.69 694.87,237.94 690.53,244.27 686.2,249.57 681.87,253.89 677.53,257.34 673.2,260.11 668.87,262.36 664.53,264.27 660.2,265.96 655.87,267.52 651.53,269.01 647.2,270.43 642.87,271.78 638.53,273 634.2,274.03 629.87,274.81 625.53,275.24 621.2,275.25 616.87,274.79 612.53,273.83 608.2,272.36 603.87,270.45 599.53,268.19 595.2,265.73 590.87,263.27 586.53,261.03 582.2,259.25 577.87,258.15 573.53,257.91 569.2,258.68 564.87,260.5 560.53,263.37 556.2,267.2 551.87,271.82 547.53,277.03 543.2,282.62 538.87,288.34 534.53,293.99 530.2,299.41 525.87,304.46 521.53,309.06 517.2,313.18 512.87,316.83 508.53,320.05 504.2,322.87 499.87,325.37 495.53,327.61 491.2,329.64"/>
    <polyline points="813.6,222.19 809.27,223.67 804.93,225.09 800.6,226.41 796.27,227.56 791.93,228.47 787.6,229.04 783.27,229.15 778.93,228.7 774.6,227.6 770.27,225.83 765.93,223.43 761.6,220.57 757.27,217.51 752.93,214.62 748.6,212.3 744.27,210.96 739.93,210.91 735.6,212.34 731.27,215.26 726.93,219.51 722.6,224.78 718.27,230.67 713.93,236.78 709.6,242.74 705.27,248.25 700.93,253.15 696.6,257.36 692.27,260.92 687.93,263.89 683.6,266.39 679.27,268.53 674.93,270.42 670.6,272.13 666.27,273.73 661.93,275.25 657.6,276.69 653.27,278.05 648.93,279.31 644.6,280.42 640.27,281.35 635.93,282.05 631.6,282.47 627.27,282.59 622.93,282.39 618.6,281.87 614.27,281.07 609.93,280.05 605.6,278.92 601.27,277.8 596.93,276.83 592.6,276.18 588.27,275.98 583.93,276.36 579.6,277.41 575.27,279.15 570.93,281.59 566.6,284.65 562.27,288.24 557.93,292.21 553.6,296.42 549.27,300.73 544.93,304.98 540.6,309.07 536.27,312.92 531.93,316.47 527.6,319.71 523.27,322.64 518.93,325.27 514.6,327.66 510.27,329.83 505.93,331.83 501.6,333.69"/>
    <polyline points="824,225.96 819.67,227.48 815.33,228.96 811,230.39 806.67,231.73 802.33,232.94 798,233.97 793.67,234.76 789.33,235.24 785,235.38 780.67,235.15 776.33,234.59 772,233.77 767.67,232.85 763.33,232.01 759,231.48 754.67,231.46 750.33,232.14 746,233.62 741.67,235.9 737.33,238.9 733,242.46 728.67,246.35 724.33,250.37 720,254.3 715.67,258.01 711.33,261.39 707,264.4 702.67,267.07 698.33,269.41 694,271.51 689.67,273.4 685.33,275.16 681,276.81 676.67,278.4 672.33,279.93 668,281.41 663.67,282.84 659.33,284.2 655,285.48 650.67,286.64 646.33,287.68 642,288.55 637.67,289.26 633.33,289.78 629,290.12 624.67,290.31 620.33,290.38 616,290.39 611.67,290.41 607.33,290.53 603,290.82 598.67,291.38 594.33,292.27 590,293.54 585.67,295.22 581.33,297.29 577,299.71 572.67,302.43 568.33,305.37 564,308.45 559.67,311.57 555.33,314.67 551,317.67 546.67,320.53 542.33,323.22 538,325.72 533.67,328.06 529.33,330.22 525,332.24 520.67,334.15 516.33,335.95 512,337.68"/>
    <polygon points="512,114 824,226 512,338 200,226"/>
  </g>
</svg>
