<svg viewBox="0 0 1200 600" xmlns="http://www.w3.org/2000/svg">
  <defs>
    <linearGradient id="bgGrad" x1="0%" y1="0%" x2="0%" y2="100%">
      <stop offset="0%" stop-color="#2a3243" />
      <stop offset="100%" stop-color="#181e29" />
    </linearGradient>
    <filter id="glow" x="-20%" y="-20%" width="140%" height="140%">
      <feGaussianBlur stdDeviation="5" result="blur" />
      <feComposite in="SourceGraphic" in2="blur" operator="over" />
    </filter>
    <filter id="glow-strong" x="-50%" y="-50%" width="200%" height="200%">
      <feGaussianBlur stdDeviation="8" result="blur" />
      <feComposite in="SourceGraphic" in2="blur" operator="over" />
    </filter>
  </defs>

  <!-- Background -->
  <rect width="100%" height="100%" fill="url(#bgGrad)"/>
  <g stroke="rgba(200, 225, 255, 0.03)" stroke-width="1">
    <line x1="0" y1="0" x2="0" y2="600"/>
    <line x1="40" y1="0" x2="40" y2="600"/>
    <line x1="80" y1="0" x2="80" y2="600"/>
    <line x1="120" y1="0" x2="120" y2="600"/>
    <line x1="160" y1="0" x2="160" y2="600"/>
    <line x1="200" y1="0" x2="200" y2="600"/>
    <line x1="240" y1="0" x2="240" y2="600"/>
    <line x1="280" y1="0" x2="280" y2="600"/>
    <line x1="320" y1="0" x2="320" y2="600"/>
    <line x1="360" y1="0" x2="360" y2="600"/>
    <line x1="400" y1="0" x2="400" y2="600"/>
    <line x1="440" y1="0" x2="440" y2="600"/>
    <line x1="480" y1="0" x2="480" y2="600"/>
    <line x1="520" y1="0" x2="520" y2="600"/>
    <line x1="560" y1="0" x2="560" y2="600"/>
    <line x1="600" y1="0" x2="600" y2="600"/>
    <line x1="640" y1="0" x2="640" y2="600"/>
    <line x1="680" y1="0" x2="680" y2="600"/>
    <line x1="720" y1="0" x2="720" y2="600"/>
    <line x1="760" y1="0" x2="760" y2="600"/>
    <line x1="800" y1="0" x2="800" y2="600"/>
    <line x1="840" y1="0" x2="840" y2="600"/>
    <line x1="880" y1="0" x2="880" y2="600"/>
    <line x1="920" y1="0" x2="920" y2="600"/>
    <line x1="960" y1="0" x2="960" y2="600"/>
    <line x1="1000" y1="0" x2="1000" y2="600"/>
    <line x1="1040" y1="0" x2="1040" y2="600"/>
    <line x1="1080" y1="0" x2="1080" y2="600"/>
    <line x1="1120" y1="0" x2="1120" y2="600"/>
    <line x1="1160" y1="0" x2="1160" y2="600"/>
    <line x1="1200" y1="0" x2="1200" y2="600"/>
    <line x1="0" y1="0" x2="1200" y2="0"/>
    <line x1="0" y1="40" x2="1200" y2="40"/>
    <line x1="0" y1="80" x2="1200" y2="80"/>
    <line x1="0" y1="120" x2="1200" y2="120"/>
    <line x1="0" y1="160" x2="1200" y2="160"/>
    <line x1="0" y1="200" x2="1200" y2="200"/>
    <line x1="0" y1="240" x2="1200" y2="240"/>
    <line x1="0" y1="280" x2="1200" y2="280"/>
    <line x1="0" y1="320" x2="1200" y2="320"/>
    <line x1="0" y1="360" x2="1200" y2="360"/>
    <line x1="0" y1="400" x2="1200" y2="400"/>
    <line x1="0" y1="440" x2="1200" y2="440"/>
    <line x1="0" y1="480" x2="1200" y2="480"/>
    <line x1="0" y1="520" x2="1200" y2="520"/>
    <line x1="0" y1="560" x2="1200" y2="560"/>
    <line x1="0" y1="600" x2="1200" y2="600"/>
  </g>
  <!-- Base paths -->
  <path d="M 40 -50 L 40 250 L 120 250" fill="none" stroke="rgba(100, 150, 255, 0.2)" stroke-width="2" stroke-linejoin="round" stroke-linecap="round"/>
  <path d="M 240 250 L 280 250 L 280 180 L 320 180" fill="none" stroke="rgba(100, 150, 255, 0.2)" stroke-width="2" stroke-linejoin="round" stroke-linecap="round"/>
  <path d="M 240 250 L 320 250" fill="none" stroke="rgba(100, 150, 255, 0.2)" stroke-width="2" stroke-linejoin="round" stroke-linecap="round"/>
  <path d="M 240 250 L 280 250 L 280 320 L 320 320" fill="none" stroke="rgba(100, 150, 255, 0.2)" stroke-width="2" stroke-linejoin="round" stroke-linecap="round"/>
  <path d="M 440 250 L 490 250 L 490 350 L 550 350" fill="none" stroke="rgba(100, 150, 255, 0.2)" stroke-width="2" stroke-linejoin="round" stroke-linecap="round"/>
  <path d="M 690 350 L 740 350 L 740 155 L 800 155" fill="none" stroke="rgba(100, 150, 255, 0.2)" stroke-width="2" stroke-linejoin="round" stroke-linecap="round"/>
  <path d="M 690 350 L 740 350 L 740 385 L 800 385" fill="none" stroke="rgba(100, 150, 255, 0.2)" stroke-width="2" stroke-linejoin="round" stroke-linecap="round"/>
  <path d="M 850 400 L 850 430" fill="none" stroke="rgba(100, 150, 255, 0.2)" stroke-width="2" stroke-linejoin="round" stroke-linecap="round"/>
  <path d="M 940 155 L 1000 155 L 1000 80 L 1250 80" fill="none" stroke="rgba(100, 150, 255, 0.2)" stroke-width="2" stroke-linejoin="round" stroke-linecap="round"/>
  <path d="M 850 460 L 850 500 L 1250 500" fill="none" stroke="rgba(100, 150, 255, 0.2)" stroke-width="2" stroke-linejoin="round" stroke-linecap="round"/>
  <!-- Nodes -->
  <g transform="translate(120, 235)">
    <rect x="0" y="0" width="120" height="30" rx="4" fill="rgba(32, 38, 51, 0.6)" stroke="rgba(100, 150, 255, 0.4)" stroke-width="1.5"/>
    <line x1="15" y1="15" x2="105" y2="15" stroke="rgba(200, 225, 255, 0.2)" stroke-width="3" stroke-linecap="round"/>
  </g>
  <g transform="translate(320, 165)">
    <rect x="0" y="0" width="120" height="30" rx="4" fill="rgba(32, 38, 51, 0.6)" stroke="rgba(100, 150, 255, 0.4)" stroke-width="1.5"/>
    <line x1="15" y1="15" x2="105" y2="15" stroke="rgba(200, 225, 255, 0.2)" stroke-width="3" stroke-linecap="round"/>
  </g>
  <g transform="translate(320, 235)">
    <rect x="0" y="0" width="120" height="30" rx="4" fill="rgba(32, 38, 51, 0.6)" stroke="rgba(100, 150, 255, 0.4)" stroke-width="1.5"/>
    <line x1="15" y1="15" x2="105" y2="15" stroke="rgba(200, 225, 255, 0.2)" stroke-width="3" stroke-linecap="round"/>
  </g>
  <g transform="translate(320, 305)">
    <rect x="0" y="0" width="120" height="30" rx="4" fill="rgba(32, 38, 51, 0.6)" stroke="rgba(100, 150, 255, 0.4)" stroke-width="1.5"/>
    <line x1="15" y1="15" x2="105" y2="15" stroke="rgba(200, 225, 255, 0.2)" stroke-width="3" stroke-linecap="round"/>
  </g>
  <g transform="translate(550, 325)">
    <rect x="0" y="0" width="140" height="50" rx="8" fill="rgba(40, 50, 70, 0.8)" stroke="rgba(180, 210, 255, 0.6)" stroke-width="1.5"/>
    <rect x="15" y="15" width="20" height="20" rx="3" fill="rgba(100, 180, 255, 0.2)"/>
    <line x1="45" y1="20" x2="125" y2="20" stroke="rgba(200, 225, 255, 0.3)" stroke-width="3" stroke-linecap="round"/>
    <line x1="45" y1="30" x2="100" y2="30" stroke="rgba(200, 225, 255, 0.3)" stroke-width="3" stroke-linecap="round"/>
  </g>
  <g transform="translate(800, 140)">
    <rect x="0" y="0" width="140" height="30" rx="4" fill="rgba(32, 38, 51, 0.6)" stroke="rgba(100, 150, 255, 0.4)" stroke-width="1.5"/>
    <line x1="15" y1="15" x2="125" y2="15" stroke="rgba(200, 225, 255, 0.2)" stroke-width="3" stroke-linecap="round"/>
  </g>
  <g transform="translate(800, 370)">
    <rect x="0" y="0" width="100" height="30" rx="4" fill="rgba(32, 38, 51, 0.6)" stroke="rgba(100, 150, 255, 0.4)" stroke-width="1.5"/>
    <line x1="15" y1="15" x2="85" y2="15" stroke="rgba(200, 225, 255, 0.2)" stroke-width="3" stroke-linecap="round"/>
  </g>
  <g transform="translate(800, 430)">
    <rect x="0" y="0" width="100" height="30" rx="4" fill="rgba(32, 38, 51, 0.6)" stroke="rgba(100, 150, 255, 0.4)" stroke-width="1.5"/>
    <line x1="15" y1="15" x2="85" y2="15" stroke="rgba(200, 225, 255, 0.2)" stroke-width="3" stroke-linecap="round"/>
  </g>
  <!-- Animated pulses -->
  <path d="M 40 -50 L 40 250 L 120 250" fill="none" stroke="#5debff" stroke-width="3" stroke-linejoin="round" stroke-linecap="round" filter="url(#glow)" stroke-dasharray="80 1260">
    <animate attributeName="stroke-dashoffset" values="460;-380" dur="4s" repeatCount="indefinite" />
  </path>
  <path d="M 40 -50 L 40 250 L 120 250" fill="none" stroke="#ffffff" stroke-width="3" stroke-linejoin="round" stroke-linecap="round" filter="url(#glow-strong)" stroke-dasharray="8 1260">
    <animate attributeName="stroke-dashoffset" values="388;-380" dur="4s" repeatCount="indefinite" />
  </path>
  <path d="M 240 250 L 280 250 L 280 180 L 320 180" fill="none" stroke="#5debff" stroke-width="3" stroke-linejoin="round" stroke-linecap="round" filter="url(#glow)" stroke-dasharray="80 800">
    <animate attributeName="stroke-dashoffset" values="230;-150" dur="2s" repeatCount="indefinite" />
  </path>
  <path d="M 240 250 L 280 250 L 280 180 L 320 180" fill="none" stroke="#ffffff" stroke-width="3" stroke-linejoin="round" stroke-linecap="round" filter="url(#glow-strong)" stroke-dasharray="8 800">
    <animate attributeName="stroke-dashoffset" values="158;-150" dur="2s" repeatCount="indefinite" />
  </path>
  <path d="M 240 250 L 320 250" fill="none" stroke="#5debff" stroke-width="3" stroke-linejoin="round" stroke-linecap="round" filter="url(#glow)" stroke-dasharray="80 660">
    <animate attributeName="stroke-dashoffset" values="160;-80" dur="1s" repeatCount="indefinite" />
  </path>
  <path d="M 240 250 L 320 250" fill="none" stroke="#ffffff" stroke-width="3" stroke-linejoin="round" stroke-linecap="round" filter="url(#glow-strong)" stroke-dasharray="8 660">
    <animate attributeName="stroke-dashoffset" values="88;-80" dur="1s" repeatCount="indefinite" />
  </path>
  <path d="M 240 250 L 280 250 L 280 320 L 320 320" fill="none" stroke="#5debff" stroke-width="3" stroke-linejoin="round" stroke-linecap="round" filter="url(#glow)" stroke-dasharray="80 800">
    <animate attributeName="stroke-dashoffset" values="230;-150" dur="2s" repeatCount="indefinite" />
  </path>
  <path d="M 240 250 L 280 250 L 280 320 L 320 320" fill="none" stroke="#ffffff" stroke-width="3" stroke-linejoin="round" stroke-linecap="round" filter="url(#glow-strong)" stroke-dasharray="8 800">
    <animate attributeName="stroke-dashoffset" values="158;-150" dur="2s" repeatCount="indefinite" />
  </path>
  <path d="M 440 250 L 490 250 L 490 350 L 550 350" fill="none" stroke="#5debff" stroke-width="3" stroke-linejoin="round" stroke-linecap="round" filter="url(#glow)" stroke-dasharray="80 920">
    <animate attributeName="stroke-dashoffset" values="290;-210" dur="2.5s" repeatCount="indefinite" />
  </path>
  <path d="M 440 250 L 490 250 L 490 350 L 550 350" fill="none" stroke="#ffffff" stroke-width="3" stroke-linejoin="round" stroke-linecap="round" filter="url(#glow-strong)" stroke-dasharray="8 920">
    <animate attributeName="stroke-dashoffset" values="218;-210" dur="2.5s" repeatCount="indefinite" />
  </path>
  <path d="M 690 350 L 740 350 L 740 155 L 800 155" fill="none" stroke="#5debff" stroke-width="3" stroke-linejoin="round" stroke-linecap="round" filter="url(#glow)" stroke-dasharray="80 1110">
    <animate attributeName="stroke-dashoffset" values="385;-305" dur="3.5s" repeatCount="indefinite" />
  </path>
  <path d="M 690 350 L 740 350 L 740 155 L 800 155" fill="none" stroke="#ffffff" stroke-width="3" stroke-linejoin="round" stroke-linecap="round" filter="url(#glow-strong)" stroke-dasharray="8 1110">
    <animate attributeName="stroke-dashoffset" values="313;-305" dur="3.5s" repeatCount="indefinite" />
  </path>
  <path d="M 690 350 L 740 350 L 740 385 L 800 385" fill="none" stroke="#5debff" stroke-width="3" stroke-linejoin="round" stroke-linecap="round" filter="url(#glow)" stroke-dasharray="80 790">
    <animate attributeName="stroke-dashoffset" values="225;-145" dur="2s" repeatCount="indefinite" />
  </path>
  <path d="M 690 350 L 740 350 L 740 385 L 800 385" fill="none" stroke="#ffffff" stroke-width="3" stroke-linejoin="round" stroke-linecap="round" filter="url(#glow-strong)" stroke-dasharray="8 790">
    <animate attributeName="stroke-dashoffset" values="153;-145" dur="2s" repeatCount="indefinite" />
  </path>
  <path d="M 850 400 L 850 430" fill="none" stroke="#5debff" stroke-width="3" stroke-linejoin="round" stroke-linecap="round" filter="url(#glow)" stroke-dasharray="80 560">
    <animate attributeName="stroke-dashoffset" values="110;-30" dur="0.5s" repeatCount="indefinite" />
  </path>
  <path d="M 850 400 L 850 430" fill="none" stroke="#ffffff" stroke-width="3" stroke-linejoin="round" stroke-linecap="round" filter="url(#glow-strong)" stroke-dasharray="8 560">
    <animate attributeName="stroke-dashoffset" values="38;-30" dur="0.5s" repeatCount="indefinite" />
  </path>
  <path d="M 940 155 L 1000 155 L 1000 80 L 1250 80" fill="none" stroke="#5debff" stroke-width="3" stroke-linejoin="round" stroke-linecap="round" filter="url(#glow)" stroke-dasharray="80 1270">
    <animate attributeName="stroke-dashoffset" values="465;-385" dur="4s" repeatCount="indefinite" />
  </path>
  <path d="M 940 155 L 1000 155 L 1000 80 L 1250 80" fill="none" stroke="#ffffff" stroke-width="3" stroke-linejoin="round" stroke-linecap="round" filter="url(#glow-strong)" stroke-dasharray="8 1270">
    <animate attributeName="stroke-dashoffset" values="393;-385" dur="4s" repeatCount="indefinite" />
  </path>
  <path d="M 850 460 L 850 500 L 1250 500" fill="none" stroke="#5debff" stroke-width="3" stroke-linejoin="round" stroke-linecap="round" filter="url(#glow)" stroke-dasharray="80 1380">
    <animate attributeName="stroke-dashoffset" values="520;-440" dur="4.5s" repeatCount="indefinite" />
  </path>
  <path d="M 850 460 L 850 500 L 1250 500" fill="none" stroke="#ffffff" stroke-width="3" stroke-linejoin="round" stroke-linecap="round" filter="url(#glow-strong)" stroke-dasharray="8 1380">
    <animate attributeName="stroke-dashoffset" values="448;-440" dur="4.5s" repeatCount="indefinite" />
  </path>
  <circle cx="1003.5167953894194" cy="48.97633127546457" r="1.5" fill="rgba(100, 200, 255, 0.8)" opacity="0.3">
    <animate attributeName="opacity" values="0.1;0.6;0.1" dur="4.0837730027935715s" repeatCount="indefinite" />
    <animate attributeName="cx" values="1003.5167953894194;993.1471211398764;1003.5167953894194" dur="8.167546005587143s" repeatCount="indefinite" />
    <animate attributeName="cy" values="48.97633127546457;24.04688713267422;48.97633127546457" dur="8.167546005587143s" repeatCount="indefinite" />
  </circle>
  <circle cx="367.2522095543468" cy="67.30394289902986" r="1.5" fill="rgba(100, 200, 255, 0.8)" opacity="0.3">
    <animate attributeName="opacity" values="0.1;0.6;0.1" dur="4.950330724660699s" repeatCount="indefinite" />
    <animate attributeName="cx" values="367.2522095543468;367.3623510346575;367.2522095543468" dur="9.900661449321397s" repeatCount="indefinite" />
    <animate attributeName="cy" values="67.30394289902986;70.54926755555947;67.30394289902986" dur="9.900661449321397s" repeatCount="indefinite" />
  </circle>
  <circle cx="998.089709623787" cy="395.347375293483" r="1.5" fill="rgba(100, 200, 255, 0.8)" opacity="0.3">
    <animate attributeName="opacity" values="0.1;0.6;0.1" dur="8.476724028264393s" repeatCount="indefinite" />
    <animate attributeName="cx" values="998.089709623787;977.9012607947917;998.089709623787" dur="16.953448056528785s" repeatCount="indefinite" />
    <animate attributeName="cy" values="395.347375293483;401.3039797162352;395.347375293483" dur="16.953448056528785s" repeatCount="indefinite" />
  </circle>
  <circle cx="104.95356064885186" cy="485.33107835676805" r="1.5" fill="rgba(100, 200, 255, 0.8)" opacity="0.3">
    <animate attributeName="opacity" values="0.1;0.6;0.1" dur="8.666043649398734s" repeatCount="indefinite" />
    <animate attributeName="cx" values="104.95356064885186;101.6109340113064;104.95356064885186" dur="17.332087298797468s" repeatCount="indefinite" />
    <animate attributeName="cy" values="485.33107835676805;464.3142158427353;485.33107835676805" dur="17.332087298797468s" repeatCount="indefinite" />
  </circle>
  <circle cx="984.8248470312765" cy="126.5769438326795" r="1.5" fill="rgba(100, 200, 255, 0.8)" opacity="0.3">
    <animate attributeName="opacity" values="0.1;0.6;0.1" dur="4.088797734520776s" repeatCount="indefinite" />
    <animate attributeName="cx" values="984.8248470312765;1007.5485979601723;984.8248470312765" dur="8.177595469041552s" repeatCount="indefinite" />
    <animate attributeName="cy" values="126.5769438326795;133.6353993701868;126.5769438326795" dur="8.177595469041552s" repeatCount="indefinite" />
  </circle>
  <circle cx="563.9667258624573" cy="129.56091776617185" r="1.5" fill="rgba(100, 200, 255, 0.8)" opacity="0.3">
    <animate attributeName="opacity" values="0.1;0.6;0.1" dur="5.877113094197339s" repeatCount="indefinite" />
    <animate attributeName="cx" values="563.9667258624573;540.8807106939987;563.9667258624573" dur="11.754226188394679s" repeatCount="indefinite" />
    <animate attributeName="cy" values="129.56091776617185;127.1872349203749;129.56091776617185" dur="11.754226188394679s" repeatCount="indefinite" />
  </circle>
  <circle cx="401.95644190330665" cy="493.44827809396435" r="1.5" fill="rgba(100, 200, 255, 0.8)" opacity="0.3">
    <animate attributeName="opacity" values="0.1;0.6;0.1" dur="7.74649478264325s" repeatCount="indefinite" />
    <animate attributeName="cx" values="401.95644190330665;384.28776722252263;401.95644190330665" dur="15.4929895652865s" repeatCount="indefinite" />
    <animate attributeName="cy" values="493.44827809396435;471.6594994295207;493.44827809396435" dur="15.4929895652865s" repeatCount="indefinite" />
  </circle>
  <circle cx="818.60469916198" cy="541.6080487258248" r="1.5" fill="rgba(100, 200, 255, 0.8)" opacity="0.3">
    <animate attributeName="opacity" values="0.1;0.6;0.1" dur="5.480985289445278s" repeatCount="indefinite" />
    <animate attributeName="cx" values="818.60469916198;811.8293434862949;818.60469916198" dur="10.961970578890556s" repeatCount="indefinite" />
    <animate attributeName="cy" values="541.6080487258248;556.100142420389;541.6080487258248" dur="10.961970578890556s" repeatCount="indefinite" />
  </circle>
  <circle cx="662.1903566010463" cy="164.84448941432984" r="1.5" fill="rgba(100, 200, 255, 0.8)" opacity="0.3">
    <animate attributeName="opacity" values="0.1;0.6;0.1" dur="7.2064249721055464s" repeatCount="indefinite" />
    <animate attributeName="cx" values="662.1903566010463;686.2209114885378;662.1903566010463" dur="14.412849944211093s" repeatCount="indefinite" />
    <animate attributeName="cy" values="164.84448941432984;168.32744396684788;164.84448941432984" dur="14.412849944211093s" repeatCount="indefinite" />
  </circle>
  <circle cx="1166.6571480671828" cy="560.006513404777" r="1.5" fill="rgba(100, 200, 255, 0.8)" opacity="0.3">
    <animate attributeName="opacity" values="0.1;0.6;0.1" dur="5.880676425705658s" repeatCount="indefinite" />
    <animate attributeName="cx" values="1166.6571480671828;1191.171414616598;1166.6571480671828" dur="11.761352851411315s" repeatCount="indefinite" />
    <animate attributeName="cy" values="560.006513404777;554.2119524865519;560.006513404777" dur="11.761352851411315s" repeatCount="indefinite" />
  </circle>
  <circle cx="183.73385270911848" cy="368.3046945161841" r="1.5" fill="rgba(100, 200, 255, 0.8)" opacity="0.3">
    <animate attributeName="opacity" values="0.1;0.6;0.1" dur="8.750507644343127s" repeatCount="indefinite" />
    <animate attributeName="cx" values="183.73385270911848;191.10763150740686;183.73385270911848" dur="17.501015288686254s" repeatCount="indefinite" />
    <animate attributeName="cy" values="368.3046945161841;360.78173039976144;368.3046945161841" dur="17.501015288686254s" repeatCount="indefinite" />
  </circle>
  <circle cx="695.419036341284" cy="162.39692207908863" r="1.5" fill="rgba(100, 200, 255, 0.8)" opacity="0.3">
    <animate attributeName="opacity" values="0.1;0.6;0.1" dur="6.142636619125047s" repeatCount="indefinite" />
    <animate attributeName="cx" values="695.419036341284;682.4398751012487;695.419036341284" dur="12.285273238250094s" repeatCount="indefinite" />
    <animate attributeName="cy" values="162.39692207908863;170.71843369966814;162.39692207908863" dur="12.285273238250094s" repeatCount="indefinite" />
  </circle>
  <circle cx="1160.2325502304557" cy="576.0883326152231" r="1.5" fill="rgba(100, 200, 255, 0.8)" opacity="0.3">
    <animate attributeName="opacity" values="0.1;0.6;0.1" dur="4.471791686575242s" repeatCount="indefinite" />
    <animate attributeName="cx" values="1160.2325502304557;1142.9242005684405;1160.2325502304557" dur="8.943583373150483s" repeatCount="indefinite" />
    <animate attributeName="cy" values="576.0883326152231;563.6162259893775;576.0883326152231" dur="8.943583373150483s" repeatCount="indefinite" />
  </circle>
  <circle cx="663.78439496705" cy="284.32894040001287" r="1.5" fill="rgba(100, 200, 255, 0.8)" opacity="0.3">
    <animate attributeName="opacity" values="0.1;0.6;0.1" dur="6.849195239066007s" repeatCount="indefinite" />
    <animate attributeName="cx" values="663.78439496705;683.3309100109591;663.78439496705" dur="13.698390478132014s" repeatCount="indefinite" />
    <animate attributeName="cy" values="284.32894040001287;278.1868551093913;284.32894040001287" dur="13.698390478132014s" repeatCount="indefinite" />
  </circle>
  <circle cx="654.1892136002031" cy="375.14464567984334" r="1.5" fill="rgba(100, 200, 255, 0.8)" opacity="0.3">
    <animate attributeName="opacity" values="0.1;0.6;0.1" dur="8.4262092027893s" repeatCount="indefinite" />
    <animate attributeName="cx" values="654.1892136002031;642.7773680793705;654.1892136002031" dur="16.8524184055786s" repeatCount="indefinite" />
    <animate attributeName="cy" values="375.14464567984334;393.82344478112935;375.14464567984334" dur="16.8524184055786s" repeatCount="indefinite" />
  </circle>
</svg>