<svg viewBox="0 0 1200 600" xmlns="http://www.w3.org/2000/svg">
  <defs>
    <linearGradient id="bgGrad" x1="0%" y1="0%" x2="0%" y2="100%">
      <stop offset="0%" stop-color="#2a3243" />
      <stop offset="100%" stop-color="#181e29" />
    </linearGradient>
    <filter id="glow" x="-50%" y="-50%" width="200%" height="200%">
      <feGaussianBlur stdDeviation="6" result="blur" />
      <feComposite in="SourceGraphic" in2="blur" operator="over" />
    </filter>
  </defs>

  <rect width="100%" height="100%" fill="url(#bgGrad)"/>
  <g stroke="rgba(200, 225, 255, 0.1)" stroke-width="1.5">
    <line x1="-266.0250000000001" y1="-200" x2="1466.025" y2="800"/>
    <line x1="1466.025" y1="-200" x2="-266.0250000000001" y2="800"/>
    <line x1="-612.4350000000002" y1="0" x2="1119.615" y2="1000" opacity="0.3"/>
    <line x1="80.38499999999999" y1="-400" x2="1812.4350000000002" y2="600" opacity="0.3"/>
    <line x1="1812.4350000000002" y1="0" x2="80.38499999999999" y2="1000" opacity="0.3"/>
    <line x1="1119.615" y1="-400" x2="-612.4350000000002" y2="600" opacity="0.3"/>
    <line x1="-958.845" y1="200" x2="773.205" y2="1200" opacity="0.3"/>
    <line x1="426.79499999999996" y1="-600" x2="2158.8450000000003" y2="400" opacity="0.3"/>
    <line x1="2158.8450000000003" y1="200" x2="426.79499999999996" y2="1200" opacity="0.3"/>
    <line x1="773.205" y1="-600" x2="-958.845" y2="400" opacity="0.3"/>
    <line x1="-1305.255" y1="400" x2="426.79499999999996" y2="1400" opacity="0.3"/>
    <line x1="773.205" y1="-800" x2="2505.255" y2="200" opacity="0.3"/>
    <line x1="2505.255" y1="400" x2="773.205" y2="1400" opacity="0.3"/>
    <line x1="426.79499999999996" y1="-800" x2="-1305.255" y2="200" opacity="0.3"/>
  </g>
  <defs>
    <mask id="front-mask">
      <path d="M 877.128 460 L 600 620 M 600 620 L 322.87199999999996 460 M 877.128 140 L 600 300 M 600 300 L 322.87199999999996 140 M 877.128 460 L 877.128 140 M 322.87199999999996 460 L 322.87199999999996 140 M 600 620 L 600 300 " stroke="#ffffff" stroke-width="10" stroke-linecap="round" stroke-linejoin="round" fill="none" />
    </mask>
  </defs>
  <!-- Outer Back Wireframe -->
  <path d="M 600 300 L 877.128 460 M 322.87199999999996 460 L 600 300 M 600 -20 L 877.128 140 M 322.87199999999996 140 L 600 -20 M 600 300 L 600 -20 " fill="none" stroke="rgba(150, 190, 255, 0.15)" stroke-width="1.5" stroke-linecap="round" stroke-linejoin="round" />
  <!-- Inner Glass Cube -->
  <g>
    <animateTransform attributeName="transform" type="translate" values="0,0; 0,-8; 0,0" dur="6s" repeatCount="indefinite" />
    <path d="M 600 300 L 790.5255 410 M 409.4745 410 L 600 300 M 600 80 L 790.5255 190 M 409.4745 190 L 600 80 M 600 300 L 600 80 " fill="none" stroke="rgba(150, 190, 255, 0.15)" stroke-width="1.5" stroke-linecap="round" stroke-linejoin="round" />
    <polygon points="600,80 790.5255,190 600,300 409.4745,190" fill="rgba(200, 225, 255, 0.15)" stroke="none" />
    <polygon points="409.4745,190 600,300 600,520 409.4745,410" fill="rgba(80, 150, 255, 0.1)" stroke="none" />
    <polygon points="600,300 790.5255,190 790.5255,410 600,520" fill="rgba(40, 90, 180, 0.15)" stroke="none" />
    <path d="M 790.5255 410 L 600 520 M 600 520 L 409.4745 410 M 790.5255 190 L 600 300 M 600 300 L 409.4745 190 M 790.5255 410 L 790.5255 190 M 409.4745 410 L 409.4745 190 M 600 520 L 600 300 " fill="none" stroke="rgba(200, 225, 255, 0.6)" stroke-width="1.5" stroke-linecap="round" stroke-linejoin="round" />
    <path d="M 600 300 L 790.5255 410 M 409.4745 410 L 600 300 M 600 80 L 790.5255 190 M 409.4745 190 L 600 80 M 600 300 L 600 80 M 790.5255 410 L 600 520 M 600 520 L 409.4745 410 M 790.5255 190 L 600 300 M 600 300 L 409.4745 190 M 790.5255 410 L 790.5255 190 M 409.4745 410 L 409.4745 190 M 600 520 L 600 300 " fill="none" stroke="#5debff" stroke-width="2" filter="url(#glow)" stroke-linecap="round" stroke-linejoin="round">
      <animate attributeName="opacity" values="0.1; 0.6; 0.1" dur="3s" repeatCount="indefinite" />
    </path>
  </g>
  <!-- Outer Front Wireframe -->
  <path d="M 877.128 460 L 600 620 M 600 620 L 322.87199999999996 460 M 877.128 140 L 600 300 M 600 300 L 322.87199999999996 140 M 877.128 460 L 877.128 140 M 322.87199999999996 460 L 322.87199999999996 140 M 600 620 L 600 300 " fill="none" stroke="rgba(200, 225, 255, 0.7)" stroke-width="1.5" stroke-linecap="round" stroke-linejoin="round" />
  <circle cx="600" cy="300" r="3" fill="#ffffff" stroke="none" opacity="0.2" />
  <circle cx="877.128" cy="460" r="3" fill="#ffffff" stroke="none" opacity="1" />
  <circle cx="600" cy="620" r="3" fill="#ffffff" stroke="none" opacity="1" />
  <circle cx="322.87199999999996" cy="460" r="3" fill="#ffffff" stroke="none" opacity="1" />
  <circle cx="600" cy="-20" r="3" fill="#ffffff" stroke="none" opacity="0.2" />
  <circle cx="877.128" cy="140" r="3" fill="#ffffff" stroke="none" opacity="1" />
  <circle cx="600" cy="300" r="3" fill="#ffffff" stroke="none" opacity="1" />
  <circle cx="322.87199999999996" cy="140" r="3" fill="#ffffff" stroke="none" opacity="1" />
  <path id="pulse-bright" d="M 600 300 L 877.128 460 L 600 620 L 322.87199999999996 460 L 600 300 L 600 -20 L 877.128 140 L 600 300 L 322.87199999999996 140 L 600 -20 " fill="none" mask="url(#front-mask)" stroke="#5debff" stroke-width="3" filter="url(#glow)" stroke-dasharray="150 1500">
    <animate attributeName="stroke-dashoffset" values="1650;0" dur="4s" repeatCount="indefinite" />
  </path>
  <circle cx="520.9176000293755" cy="269.49739654572033" r="1.5" fill="#aaccff" opacity="0.5">
    <animate attributeName="cy" values="269.49739654572033;239.49739654572033;269.49739654572033" dur="4.607239934396761s" repeatCount="indefinite" />
    <animate attributeName="opacity" values="0;0.8;0" dur="4.607239934396761s" repeatCount="indefinite" />
  </circle>
  <circle cx="718.041866943027" cy="210.08417922435683" r="1.5" fill="#aaccff" opacity="0.5">
    <animate attributeName="cy" values="210.08417922435683;180.08417922435683;210.08417922435683" dur="6.681598688020153s" repeatCount="indefinite" />
    <animate attributeName="opacity" values="0;0.8;0" dur="6.681598688020153s" repeatCount="indefinite" />
  </circle>
  <circle cx="742.2567110922586" cy="245.89351597045408" r="1.5" fill="#aaccff" opacity="0.5">
    <animate attributeName="cy" values="245.89351597045408;215.89351597045408;245.89351597045408" dur="6.245574997311311s" repeatCount="indefinite" />
    <animate attributeName="opacity" values="0;0.8;0" dur="6.245574997311311s" repeatCount="indefinite" />
  </circle>
  <circle cx="361.88234275535115" cy="243.2311481042075" r="1.5" fill="#aaccff" opacity="0.5">
    <animate attributeName="cy" values="243.2311481042075;213.2311481042075;243.2311481042075" dur="3.1607676560771116s" repeatCount="indefinite" />
    <animate attributeName="opacity" values="0;0.8;0" dur="3.1607676560771116s" repeatCount="indefinite" />
  </circle>
  <circle cx="567.9173482852617" cy="200.40657188259536" r="1.5" fill="#aaccff" opacity="0.5">
    <animate attributeName="cy" values="200.40657188259536;170.40657188259536;200.40657188259536" dur="5.067355022626889s" repeatCount="indefinite" />
    <animate attributeName="opacity" values="0;0.8;0" dur="5.067355022626889s" repeatCount="indefinite" />
  </circle>
  <circle cx="619.7033035294064" cy="604.7353508296026" r="1.5" fill="#aaccff" opacity="0.5">
    <animate attributeName="cy" values="604.7353508296026;574.7353508296026;604.7353508296026" dur="4.676995678016297s" repeatCount="indefinite" />
    <animate attributeName="opacity" values="0;0.8;0" dur="4.676995678016297s" repeatCount="indefinite" />
  </circle>
  <circle cx="514.0272742235356" cy="449.6219707189709" r="1.5" fill="#aaccff" opacity="0.5">
    <animate attributeName="cy" values="449.6219707189709;419.6219707189709;449.6219707189709" dur="3.6040409321603253s" repeatCount="indefinite" />
    <animate attributeName="opacity" values="0;0.8;0" dur="3.6040409321603253s" repeatCount="indefinite" />
  </circle>
  <circle cx="705.1565719177744" cy="343.3540222408245" r="1.5" fill="#aaccff" opacity="0.5">
    <animate attributeName="cy" values="343.3540222408245;313.3540222408245;343.3540222408245" dur="6.1989073075716625s" repeatCount="indefinite" />
    <animate attributeName="opacity" values="0;0.8;0" dur="6.1989073075716625s" repeatCount="indefinite" />
  </circle>
  <circle cx="428.906090538113" cy="172.15789383339242" r="1.5" fill="#aaccff" opacity="0.5">
    <animate attributeName="cy" values="172.15789383339242;142.15789383339242;172.15789383339242" dur="3.150177039638227s" repeatCount="indefinite" />
    <animate attributeName="opacity" values="0;0.8;0" dur="3.150177039638227s" repeatCount="indefinite" />
  </circle>
  <circle cx="652.2058992951333" cy="358.322959503231" r="1.5" fill="#aaccff" opacity="0.5">
    <animate attributeName="cy" values="358.322959503231;328.322959503231;358.322959503231" dur="5.065972607831921s" repeatCount="indefinite" />
    <animate attributeName="opacity" values="0;0.8;0" dur="5.065972607831921s" repeatCount="indefinite" />
  </circle>
  <circle cx="452.8634206191065" cy="263.0005172136457" r="1.5" fill="#aaccff" opacity="0.5">
    <animate attributeName="cy" values="263.0005172136457;233.0005172136457;263.0005172136457" dur="3.170294265426538s" repeatCount="indefinite" />
    <animate attributeName="opacity" values="0;0.8;0" dur="3.170294265426538s" repeatCount="indefinite" />
  </circle>
  <circle cx="421.86754175106904" cy="518.9310846066595" r="1.5" fill="#aaccff" opacity="0.5">
    <animate attributeName="cy" values="518.9310846066595;488.9310846066595;518.9310846066595" dur="4.020892916757318s" repeatCount="indefinite" />
    <animate attributeName="opacity" values="0;0.8;0" dur="4.020892916757318s" repeatCount="indefinite" />
  </circle>
  <circle cx="623.6983368596923" cy="288.5584890222211" r="1.5" fill="#aaccff" opacity="0.5">
    <animate attributeName="cy" values="288.5584890222211;258.5584890222211;288.5584890222211" dur="5.8723442698838655s" repeatCount="indefinite" />
    <animate attributeName="opacity" values="0;0.8;0" dur="5.8723442698838655s" repeatCount="indefinite" />
  </circle>
  <circle cx="599.4933658043617" cy="136.46624285869171" r="1.5" fill="#aaccff" opacity="0.5">
    <animate attributeName="cy" values="136.46624285869171;106.46624285869171;136.46624285869171" dur="6.017676052952307s" repeatCount="indefinite" />
    <animate attributeName="opacity" values="0;0.8;0" dur="6.017676052952307s" repeatCount="indefinite" />
  </circle>
  <circle cx="633.2155092547329" cy="360.94224329133004" r="1.5" fill="#aaccff" opacity="0.5">
    <animate attributeName="cy" values="360.94224329133004;330.94224329133004;360.94224329133004" dur="3.89379418355022s" repeatCount="indefinite" />
    <animate attributeName="opacity" values="0;0.8;0" dur="3.89379418355022s" repeatCount="indefinite" />
  </circle>
</svg>