<?xml version="1.0" encoding="UTF-8"?>
<svg xmlns="http://www.w3.org/2000/svg" width="1024" height="393" viewBox="0 0 1024 393">
  <rect x="0" y="0" width="1024" height="393" fill="var(--security-diagram-canvas, #2a3144)"/>
  <g stroke="var(--security-diagram-line-muted, #5c6781)" stroke-width="1.3" fill="none" stroke-linecap="round" stroke-linejoin="round">
    <path d="M111 0V159Q111 167 119 167H406V239Q406 247 414 247H573V207Q573 199 581 199H940Q948 199 948 191V8Q948 0 956 0H1024"/>
    <path d="M0 199H295V206Q295 214 303 214H422V246Q422 254 430 254H581"/>
    <path d="M24 393V346Q24 338 32 338H295"/>
    <path d="M581 283H910Q918 283 918 291V393"/>
    <path d="M573 207V259"/>
  </g>
  <g>
    <g transform="translate(300 150) matrix(0.86 -0.5 0 1 0 0)">
      <rect x="4" y="4" width="128" height="212" rx="8" fill="var(--security-diagram-package, #2a2433)" stroke="none"/>
      <rect x="0" y="0" width="136" height="220" rx="10" fill="none" stroke="var(--security-diagram-package-strong, #c4b6dd)" stroke-width="1.5"/>
      <rect x="4" y="4" width="128" height="212" rx="8" fill="none" stroke="var(--security-diagram-package-strong, #c4b6dd)" stroke-width="1"/>
      <rect x="36" y="26" width="52" height="16" rx="3" fill="none" stroke="var(--security-diagram-package-strong, #c4b6dd)" stroke-width="1"/>
      <rect x="20" y="76" width="100" height="16" rx="3" fill="none" stroke="var(--security-diagram-package-strong, #c4b6dd)" stroke-width="1"/>
      <rect x="20" y="102" width="100" height="16" rx="3" fill="none" stroke="var(--security-diagram-package-strong, #c4b6dd)" stroke-width="1"/>
      <rect x="20" y="128" width="100" height="16" rx="3" fill="none" stroke="var(--security-diagram-package-strong, #c4b6dd)" stroke-width="1"/>
      <rect x="20" y="154" width="100" height="16" rx="3" fill="none" stroke="var(--security-diagram-package-strong, #c4b6dd)" stroke-width="1"/>
      <rect x="40" y="190" width="60" height="16" rx="3" fill="none" stroke="var(--security-diagram-package-strong, #c4b6dd)" stroke-width="1"/>
    </g>
    <g transform="translate(490 150) matrix(0.86 -0.5 0 1 0 0)">
      <rect x="4" y="4" width="128" height="212" rx="8" fill="var(--security-diagram-package, #2a2433)" stroke="none"/>
      <rect x="0" y="0" width="136" height="220" rx="10" fill="none" stroke="var(--security-diagram-package-strong, #c4b6dd)" stroke-width="1.5"/>
      <rect x="4" y="4" width="128" height="212" rx="8" fill="none" stroke="var(--security-diagram-package-strong, #c4b6dd)" stroke-width="1"/>
      <rect x="20" y="42" width="100" height="16" rx="3" fill="none" stroke="var(--security-diagram-package-strong, #c4b6dd)" stroke-width="1"/>
      <rect x="16" y="24" width="22" height="16" rx="3" fill="none" stroke="var(--security-diagram-package-strong, #c4b6dd)" stroke-width="1"/>
      <rect x="20" y="76" width="100" height="16" rx="3" fill="none" stroke="var(--security-diagram-package-strong, #c4b6dd)" stroke-width="1"/>
      <rect x="20" y="102" width="100" height="16" rx="3" fill="none" stroke="var(--security-diagram-package-strong, #c4b6dd)" stroke-width="1"/>
      <rect x="20" y="154" width="76" height="16" rx="3" fill="none" stroke="var(--security-diagram-package-strong, #c4b6dd)" stroke-width="1"/>
      <rect x="40" y="190" width="58" height="16" rx="3" fill="none" stroke="var(--security-diagram-package-strong, #c4b6dd)" stroke-width="1"/>
    </g>
    <g transform="translate(640 150) matrix(0.86 -0.5 0 1 0 0)">
      <rect x="4" y="4" width="128" height="212" rx="8" fill="var(--security-diagram-package, #2a2433)" stroke="none"/>
      <rect x="0" y="0" width="136" height="220" rx="10" fill="none" stroke="var(--security-diagram-package-strong, #c4b6dd)" stroke-width="1.5"/>
      <rect x="4" y="4" width="128" height="212" rx="8" fill="none" stroke="var(--security-diagram-package-strong, #c4b6dd)" stroke-width="1"/>
      <rect x="52" y="42" width="28" height="16" rx="3" fill="none" stroke="var(--security-diagram-package-strong, #c4b6dd)" stroke-width="1"/>
      <rect x="20" y="76" width="100" height="16" rx="3" fill="none" stroke="var(--security-diagram-package-strong, #c4b6dd)" stroke-width="1"/>
      <rect x="20" y="102" width="100" height="16" rx="3" fill="none" stroke="var(--security-diagram-package-strong, #c4b6dd)" stroke-width="1"/>
      <rect x="20" y="128" width="76" height="16" rx="3" fill="none" stroke="var(--security-diagram-package-strong, #c4b6dd)" stroke-width="1"/>
      <rect x="40" y="190" width="60" height="16" rx="3" fill="none" stroke="var(--security-diagram-package-strong, #c4b6dd)" stroke-width="1"/>
    </g>
  </g>
</svg>
