<svg viewBox="0 0 1600 600" xmlns="http://www.w3.org/2000/svg">
  <defs>
    <linearGradient id="bgGrad" x1="0%" y1="0%" x2="0%" y2="100%">
      <stop offset="0%" stop-color="#2a3243" />
      <stop offset="100%" stop-color="#181e29" />
    </linearGradient>
    <filter id="glow" x="-20%" y="-20%" width="140%" height="140%">
      <feGaussianBlur stdDeviation="6" result="blur" />
      <feComposite in="SourceGraphic" in2="blur" operator="over" />
    </filter>
  </defs>
  <rect width="100%" height="100%" fill="url(#bgGrad)"/>
<g stroke="rgba(200, 225, 255, 0.05)" stroke-width="1">
<line x1="0" y1="0" x2="1600" y2="0"/>
<line x1="0" y1="0" x2="0" y2="600"/>
<line x1="0" y1="30" x2="1600" y2="30"/>
<line x1="50" y1="0" x2="50" y2="600"/>
<line x1="0" y1="60" x2="1600" y2="60"/>
<line x1="100" y1="0" x2="100" y2="600"/>
<line x1="0" y1="90" x2="1600" y2="90"/>
<line x1="150" y1="0" x2="150" y2="600"/>
<line x1="0" y1="120" x2="1600" y2="120"/>
<line x1="200" y1="0" x2="200" y2="600"/>
<line x1="0" y1="150" x2="1600" y2="150"/>
<line x1="250" y1="0" x2="250" y2="600"/>
<line x1="0" y1="180" x2="1600" y2="180"/>
<line x1="300" y1="0" x2="300" y2="600"/>
<line x1="0" y1="210" x2="1600" y2="210"/>
<line x1="350" y1="0" x2="350" y2="600"/>
<line x1="0" y1="240" x2="1600" y2="240"/>
<line x1="400" y1="0" x2="400" y2="600"/>
<line x1="0" y1="270" x2="1600" y2="270"/>
<line x1="450" y1="0" x2="450" y2="600"/>
<line x1="0" y1="300" x2="1600" y2="300"/>
<line x1="500" y1="0" x2="500" y2="600"/>
<line x1="0" y1="330" x2="1600" y2="330"/>
<line x1="550" y1="0" x2="550" y2="600"/>
<line x1="0" y1="360" x2="1600" y2="360"/>
<line x1="600" y1="0" x2="600" y2="600"/>
<line x1="0" y1="390" x2="1600" y2="390"/>
<line x1="650" y1="0" x2="650" y2="600"/>
<line x1="0" y1="420" x2="1600" y2="420"/>
<line x1="700" y1="0" x2="700" y2="600"/>
<line x1="0" y1="450" x2="1600" y2="450"/>
<line x1="750" y1="0" x2="750" y2="600"/>
<line x1="0" y1="480" x2="1600" y2="480"/>
<line x1="800" y1="0" x2="800" y2="600"/>
<line x1="0" y1="510" x2="1600" y2="510"/>
<line x1="850" y1="0" x2="850" y2="600"/>
<line x1="0" y1="540" x2="1600" y2="540"/>
<line x1="900" y1="0" x2="900" y2="600"/>
<line x1="0" y1="570" x2="1600" y2="570"/>
<line x1="950" y1="0" x2="950" y2="600"/>
<line x1="0" y1="600" x2="1600" y2="600"/>
<line x1="1000" y1="0" x2="1000" y2="600"/>
<line x1="1050" y1="0" x2="1050" y2="600"/>
<line x1="1100" y1="0" x2="1100" y2="600"/>
<line x1="1150" y1="0" x2="1150" y2="600"/>
<line x1="1200" y1="0" x2="1200" y2="600"/>
<line x1="1250" y1="0" x2="1250" y2="600"/>
<line x1="1300" y1="0" x2="1300" y2="600"/>
<line x1="1350" y1="0" x2="1350" y2="600"/>
<line x1="1400" y1="0" x2="1400" y2="600"/>
<line x1="1450" y1="0" x2="1450" y2="600"/>
<line x1="1500" y1="0" x2="1500" y2="600"/>
<line x1="1550" y1="0" x2="1550" y2="600"/>
<line x1="1600" y1="0" x2="1600" y2="600"/>
<path d="M -100 200 L 300 200 L 400 300 L 1700 300" fill="none" stroke="rgba(100, 150, 255, 0.1)" stroke-width="2"/>
<path d="M 600 700 L 600 400 L 700 300 L 700 -100" fill="none" stroke="rgba(100, 150, 255, 0.1)" stroke-width="2"/>
</g>
  <g id="phone-back-0">
    <g stroke="rgba(200, 225, 255, 0.3)" stroke-width="1" stroke-dasharray="2 2">
      <line x1="380.84389999999996" y1="402" x2="363.5234" y2="412"/>
      <line x1="491.69509999999997" y1="466" x2="474.3746" y2="476"/>
      <line x1="380.84389999999996" y1="114" x2="363.5234" y2="124"/>
      <line x1="491.69509999999997" y1="178" x2="474.3746" y2="188"/>
    </g>
    <g transform="matrix(0.866025, 0.5, 0, 1, 436.27, 290.00)">
      <rect x="-80" y="-160" width="160" height="320" rx="16" fill="rgba(32, 38, 51, 0.2)" stroke="rgba(100, 150, 255, 0.3)" stroke-width="1.5"/>
    </g>
  </g>
  <g id="phone-back-1">
    <g stroke="rgba(200, 225, 255, 0.3)" stroke-width="1" stroke-dasharray="2 2">
      <line x1="761.8949" y1="402" x2="744.5744" y2="412"/>
      <line x1="872.7461" y1="466" x2="855.4256" y2="476"/>
      <line x1="761.8949" y1="114" x2="744.5744" y2="124"/>
      <line x1="872.7461" y1="178" x2="855.4256" y2="188"/>
    </g>
    <g transform="matrix(0.866025, 0.5, 0, 1, 817.32, 290.00)">
      <rect x="-80" y="-160" width="160" height="320" rx="16" fill="rgba(32, 38, 51, 0.2)" stroke="rgba(100, 150, 255, 0.3)" stroke-width="1.5"/>
    </g>
  </g>
  <g id="phone-back-2">
    <g stroke="rgba(200, 225, 255, 0.3)" stroke-width="1" stroke-dasharray="2 2">
      <line x1="1142.9459" y1="402" x2="1125.6254" y2="412"/>
      <line x1="1253.7971" y1="466" x2="1236.4766" y2="476"/>
      <line x1="1142.9459" y1="114" x2="1125.6254" y2="124"/>
      <line x1="1253.7971" y1="178" x2="1236.4766" y2="188"/>
    </g>
    <g transform="matrix(0.866025, 0.5, 0, 1, 1198.37, 290.00)">
      <rect x="-80" y="-160" width="160" height="320" rx="16" fill="rgba(32, 38, 51, 0.2)" stroke="rgba(100, 150, 255, 0.3)" stroke-width="1.5"/>
    </g>
  </g>
  <path d="M -109.32625000000007 225 L 418.94899999999996 300 L 522.872 240 L 730.718 340 L 800 300 L 886.6025 250 L 1111.769 340 L 1181.051 300 L 1709.32625 375 " fill="none" stroke="rgba(80, 150, 255, 0.2)" stroke-width="3" stroke-linejoin="round"/>
  <path d="M -109.32625000000007 225 L 418.94899999999996 300 L 522.872 240 L 730.718 340 L 800 300 L 886.6025 250 L 1111.769 340 L 1181.051 300 L 1709.32625 375 " fill="none" stroke="#5debff" stroke-width="4" stroke-linejoin="round" filter="url(#glow)" stroke-dasharray="100 860.1416426450473" stroke-dashoffset="1920.2832852900947">
    <animate attributeName="stroke-dashoffset" values="1920.2832852900947;0" dur="4s" repeatCount="indefinite" />
  </path>
  <g id="phone-front-0">
    <g transform="matrix(0.866025, 0.5, 0, 1, 418.95, 300.00)">
      <rect x="-80" y="-160" width="160" height="320" rx="16" fill="#1a1f2b" stroke="rgba(180, 210, 255, 0.8)" stroke-width="1.5"/>
<rect x="-60" y="-130" width="120" height="50" rx="8" fill="none" stroke="rgba(200, 225, 255, 0.3)" stroke-width="1.5"/>
<rect x="-60" y="-60" width="120" height="20" rx="4" fill="none" stroke="rgba(200, 225, 255, 0.5)" stroke-width="1.5"/>
<rect x="-60" y="-30" width="120" height="20" rx="4" fill="none" stroke="rgba(200, 225, 255, 0.5)" stroke-width="1.5"/>
<rect x="-60" y="0" width="120" height="20" rx="4" fill="none" stroke="rgba(200, 225, 255, 0.5)" stroke-width="1.5"/>
<rect x="-40" y="50" width="80" height="28" rx="14" fill="rgba(80, 150, 255, 0.2)" stroke="rgba(100, 180, 255, 0.8)" stroke-width="1"/>
      <path d="M -70 -140 L 60 -140" fill="none" stroke="rgba(255,255,255,0.15)" stroke-width="3" stroke-linecap="round"/>
    </g>
  </g>
  <g id="phone-front-1">
    <g transform="matrix(0.866025, 0.5, 0, 1, 800.00, 300.00)">
      <rect x="-80" y="-160" width="160" height="320" rx="16" fill="#1a1f2b" stroke="rgba(180, 210, 255, 0.8)" stroke-width="1.5"/>
<rect x="-60" y="-130" width="120" height="50" rx="8" fill="none" stroke="rgba(200, 225, 255, 0.3)" stroke-width="1.5"/>
<circle cx="0" cy="-20" r="30" fill="none" stroke="rgba(100, 180, 255, 0.8)" stroke-width="2" stroke-dasharray="10 5"/>
<rect x="-40" y="50" width="80" height="12" rx="6" fill="none" stroke="rgba(200, 225, 255, 0.3)" stroke-width="1.5"/>
      <path d="M -70 -140 L 60 -140" fill="none" stroke="rgba(255,255,255,0.15)" stroke-width="3" stroke-linecap="round"/>
    </g>
  </g>
  <g id="phone-front-2">
    <g transform="matrix(0.866025, 0.5, 0, 1, 1181.05, 300.00)">
      <rect x="-80" y="-160" width="160" height="320" rx="16" fill="#1a1f2b" stroke="rgba(180, 210, 255, 0.8)" stroke-width="1.5"/>
<rect x="-60" y="-130" width="120" height="50" rx="8" fill="none" stroke="rgba(200, 225, 255, 0.3)" stroke-width="1.5"/>
<circle cx="0" cy="-20" r="30" fill="rgba(100, 255, 150, 0.1)" stroke="rgba(100, 255, 150, 0.8)" stroke-width="2"/>
<path d="M-10 -20 L-4 -14 L12 -30" fill="none" stroke="rgba(100, 255, 150, 0.8)" stroke-width="3" stroke-linecap="round" stroke-linejoin="round"/>
<rect x="-40" y="50" width="80" height="28" rx="14" fill="rgba(100, 255, 150, 0.2)" stroke="rgba(100, 255, 150, 0.8)" stroke-width="1"/>
      <path d="M -70 -140 L 60 -140" fill="none" stroke="rgba(255,255,255,0.15)" stroke-width="3" stroke-linecap="round"/>
    </g>
  </g>
  <circle cx="796.2658917743105" cy="520.0543917639686" r="1.5" fill="#aaccff" opacity="0.5">
    <animate attributeName="cy" values="520.0543917639686;480.0543917639686;520.0543917639686" dur="3.9262357116606346s" repeatCount="indefinite" />
    <animate attributeName="opacity" values="0.1;0.8;0.1" dur="3.9262357116606346s" repeatCount="indefinite" />
  </circle>
  <circle cx="557.0703382723223" cy="247.94095684310625" r="1.5" fill="#aaccff" opacity="0.5">
    <animate attributeName="cy" values="247.94095684310625;207.94095684310625;247.94095684310625" dur="3.943811610063122s" repeatCount="indefinite" />
    <animate attributeName="opacity" values="0.1;0.8;0.1" dur="3.943811610063122s" repeatCount="indefinite" />
  </circle>
  <circle cx="110.63603432058812" cy="114.15764114219968" r="1.5" fill="#aaccff" opacity="0.5">
    <animate attributeName="cy" values="114.15764114219968;74.15764114219968;114.15764114219968" dur="3.2981419309540883s" repeatCount="indefinite" />
    <animate attributeName="opacity" values="0.1;0.8;0.1" dur="3.2981419309540883s" repeatCount="indefinite" />
  </circle>
  <circle cx="1451.4301563958747" cy="542.3680535828255" r="1.5" fill="#aaccff" opacity="0.5">
    <animate attributeName="cy" values="542.3680535828255;502.3680535828255;542.3680535828255" dur="3.9788971891787313s" repeatCount="indefinite" />
    <animate attributeName="opacity" values="0.1;0.8;0.1" dur="3.9788971891787313s" repeatCount="indefinite" />
  </circle>
  <circle cx="281.60977505133883" cy="212.9531347357453" r="1.5" fill="#aaccff" opacity="0.5">
    <animate attributeName="cy" values="212.9531347357453;172.9531347357453;212.9531347357453" dur="4.866198507766496s" repeatCount="indefinite" />
    <animate attributeName="opacity" values="0.1;0.8;0.1" dur="4.866198507766496s" repeatCount="indefinite" />
  </circle>
  <circle cx="596.7135129611652" cy="-77.07057108304355" r="1.5" fill="#aaccff" opacity="0.5">
    <animate attributeName="cy" values="-77.07057108304355;-117.07057108304355;-77.07057108304355" dur="5.440349655196074s" repeatCount="indefinite" />
    <animate attributeName="opacity" values="0.1;0.8;0.1" dur="5.440349655196074s" repeatCount="indefinite" />
  </circle>
  <circle cx="555.8693597046959" cy="58.81238636340623" r="1.5" fill="#aaccff" opacity="0.5">
    <animate attributeName="cy" values="58.81238636340623;18.812386363406233;58.81238636340623" dur="5.460542426838242s" repeatCount="indefinite" />
    <animate attributeName="opacity" values="0.1;0.8;0.1" dur="5.460542426838242s" repeatCount="indefinite" />
  </circle>
  <circle cx="850.3132288143852" cy="418.2417508884337" r="1.5" fill="#aaccff" opacity="0.5">
    <animate attributeName="cy" values="418.2417508884337;378.2417508884337;418.2417508884337" dur="6.910960959655816s" repeatCount="indefinite" />
    <animate attributeName="opacity" values="0.1;0.8;0.1" dur="6.910960959655816s" repeatCount="indefinite" />
  </circle>
  <circle cx="608.2637557864845" cy="322.8143150946676" r="1.5" fill="#aaccff" opacity="0.5">
    <animate attributeName="cy" values="322.8143150946676;282.8143150946676;322.8143150946676" dur="4.188452363424801s" repeatCount="indefinite" />
    <animate attributeName="opacity" values="0.1;0.8;0.1" dur="4.188452363424801s" repeatCount="indefinite" />
  </circle>
  <circle cx="1227.0266626164128" cy="684.5894202873424" r="1.5" fill="#aaccff" opacity="0.5">
    <animate attributeName="cy" values="684.5894202873424;644.5894202873424;684.5894202873424" dur="6.284740425386882s" repeatCount="indefinite" />
    <animate attributeName="opacity" values="0.1;0.8;0.1" dur="6.284740425386882s" repeatCount="indefinite" />
  </circle>
  <circle cx="345.99681567400035" cy="58.375641457995954" r="1.5" fill="#aaccff" opacity="0.5">
    <animate attributeName="cy" values="58.375641457995954;18.375641457995954;58.375641457995954" dur="5.902959810952083s" repeatCount="indefinite" />
    <animate attributeName="opacity" values="0.1;0.8;0.1" dur="5.902959810952083s" repeatCount="indefinite" />
  </circle>
  <circle cx="-12.743353162995618" cy="248.17502542258046" r="1.5" fill="#aaccff" opacity="0.5">
    <animate attributeName="cy" values="248.17502542258046;208.17502542258046;248.17502542258046" dur="3.503957734374377s" repeatCount="indefinite" />
    <animate attributeName="opacity" values="0.1;0.8;0.1" dur="3.503957734374377s" repeatCount="indefinite" />
  </circle>
  <circle cx="1068.4870129550552" cy="460.0421829746929" r="1.5" fill="#aaccff" opacity="0.5">
    <animate attributeName="cy" values="460.0421829746929;420.0421829746929;460.0421829746929" dur="6.846488460774526s" repeatCount="indefinite" />
    <animate attributeName="opacity" values="0.1;0.8;0.1" dur="6.846488460774526s" repeatCount="indefinite" />
  </circle>
  <circle cx="782.6760353535715" cy="385.9161467413669" r="1.5" fill="#aaccff" opacity="0.5">
    <animate attributeName="cy" values="385.9161467413669;345.9161467413669;385.9161467413669" dur="6.0767147746584955s" repeatCount="indefinite" />
    <animate attributeName="opacity" values="0.1;0.8;0.1" dur="6.0767147746584955s" repeatCount="indefinite" />
  </circle>
  <circle cx="1564.5024068885941" cy="677.2491714475902" r="1.5" fill="#aaccff" opacity="0.5">
    <animate attributeName="cy" values="677.2491714475902;637.2491714475902;677.2491714475902" dur="4.587780057785273s" repeatCount="indefinite" />
    <animate attributeName="opacity" values="0.1;0.8;0.1" dur="4.587780057785273s" repeatCount="indefinite" />
  </circle>
  <circle cx="1618.9391493662783" cy="541.550892131914" r="1.5" fill="#aaccff" opacity="0.5">
    <animate attributeName="cy" values="541.550892131914;501.550892131914;541.550892131914" dur="5.048596587394262s" repeatCount="indefinite" />
    <animate attributeName="opacity" values="0.1;0.8;0.1" dur="5.048596587394262s" repeatCount="indefinite" />
  </circle>
  <circle cx="1437.7499187140206" cy="620.6733257432277" r="1.5" fill="#aaccff" opacity="0.5">
    <animate attributeName="cy" values="620.6733257432277;580.6733257432277;620.6733257432277" dur="3.0428414338157177s" repeatCount="indefinite" />
    <animate attributeName="opacity" values="0.1;0.8;0.1" dur="3.0428414338157177s" repeatCount="indefinite" />
  </circle>
  <circle cx="635.0851057661747" cy="-32.42716350787566" r="1.5" fill="#aaccff" opacity="0.5">
    <animate attributeName="cy" values="-32.42716350787566;-72.42716350787566;-32.42716350787566" dur="6.4529786560966516s" repeatCount="indefinite" />
    <animate attributeName="opacity" values="0.1;0.8;0.1" dur="6.4529786560966516s" repeatCount="indefinite" />
  </circle>
  <circle cx="1361.4640553139488" cy="716.1933617226977" r="1.5" fill="#aaccff" opacity="0.5">
    <animate attributeName="cy" values="716.1933617226977;676.1933617226977;716.1933617226977" dur="4.828096428712462s" repeatCount="indefinite" />
    <animate attributeName="opacity" values="0.1;0.8;0.1" dur="4.828096428712462s" repeatCount="indefinite" />
  </circle>
  <circle cx="1158.6460523037679" cy="382.0984714931044" r="1.5" fill="#aaccff" opacity="0.5">
    <animate attributeName="cy" values="382.0984714931044;342.0984714931044;382.0984714931044" dur="6.619867270757355s" repeatCount="indefinite" />
    <animate attributeName="opacity" values="0.1;0.8;0.1" dur="6.619867270757355s" repeatCount="indefinite" />
  </circle>
</svg>