<svg xmlns="http://www.w3.org/2000/svg" viewBox="0 0 760 260" role="img" aria-label="Defense in depth wireframe terrain diagram">
  <defs>
    <clipPath id="terrain-clip">
      <rect x="102" y="34" width="600" height="194"/>
    </clipPath>
  </defs>
  <g fill="none" stroke-linecap="round" stroke-linejoin="round">
    <g stroke="#dfe7ff" stroke-opacity="0.12" stroke-width="1">
      <path d="M0 24H760"/>
      <path d="M0 56H760"/>
      <path d="M0 88H760"/>
      <path d="M0 120H760"/>
      <path d="M0 146H760"/>
      <path d="M0 172H760"/>
      <path d="M0 198H760"/>
      <path d="M0 224H760"/>
      <path d="M24 0V260"/>
      <path d="M68 0V260"/>
      <path d="M112 0V260"/>
      <path d="M156 0V260"/>
      <path d="M200 0V260"/>
      <path d="M244 0V260"/>
      <path d="M288 0V260"/>
      <path d="M332 0V260"/>
      <path d="M376 0V260"/>
      <path d="M420 0V260"/>
      <path d="M464 0V260"/>
      <path d="M508 0V260"/>
      <path d="M552 0V260"/>
      <path d="M596 0V260"/>
      <path d="M640 0V260"/>
      <path d="M684 0V260"/>
      <path d="M728 0V260"/>
    </g>

    <g stroke="#eaf1ff" stroke-opacity="0.24" stroke-width="1.12">
      <path d="M382 74L34 260"/>
      <path d="M382 74L110 260"/>
      <path d="M382 74L186 260"/>
      <path d="M382 74L262 260"/>
      <path d="M382 74L338 260"/>
      <path d="M382 74L426 260"/>
      <path d="M382 74L502 260"/>
      <path d="M382 74L578 260"/>
      <path d="M382 74L654 260"/>
      <path d="M382 74L730 260"/>
      <path d="M88 146H672"/>
      <path d="M110 172H650"/>
      <path d="M134 198H626"/>
      <path d="M160 224H602"/>
    </g>

    <g clip-path="url(#terrain-clip)" stroke="#f2f6ff" stroke-opacity="0.52" stroke-width="1.05">
      <polyline points="402.0 60.0 389.5 64.5 377.0 68.9 364.5 73.1 352.0 77.1 339.5 80.7 327.0 83.9 314.5 87.0 302.0 90.5 289.5 94.9 277.0 100.2 264.5 106.0 252.0 111.9 239.5 117.4 227.0 122.5 214.5 127.3 202.0 131.9 189.5 136.5 177.0 141.0 164.5 145.5 152.0 150.0 139.5 154.5 127.0 159.0 114.5 163.5 102.0 168.0"/>
      <polyline points="427.0 69.0 414.5 73.4 402.0 77.5 389.5 81.0 377.0 83.5 364.5 84.2 352.0 83.4 339.5 82.3 327.0 82.8 314.5 86.7 302.0 94.3 289.5 104.2 277.0 114.2 264.5 122.8 252.0 129.8 239.5 135.5 227.0 140.5 214.5 145.2 202.0 149.8 189.5 154.4 177.0 158.9 164.5 163.5 152.0 168.0 139.5 172.5 127.0 177.0"/>
      <polyline points="452.0 77.9 439.5 82.2 427.0 86.0 414.5 88.5 402.0 88.8 389.5 85.7 377.0 79.5 364.5 72.5 352.0 68.8 339.5 72.1 327.0 82.7 314.5 97.9 302.0 113.2 289.5 125.8 277.0 135.1 264.5 142.0 252.0 147.6 239.5 152.7 227.0 157.7 214.5 162.7 202.0 167.5 189.5 172.3 177.0 176.9 164.5 181.5 152.0 186.0"/>
      <polyline points="477.0 86.9 464.5 91.2 452.0 95.0 439.5 97.5 427.0 97.7 414.5 94.5 402.0 88.0 389.5 80.8 377.0 76.7 364.5 79.4 352.0 89.3 339.5 103.4 327.0 117.5 314.5 128.9 302.0 137.3 289.5 143.8 277.0 149.9 264.5 156.2 252.0 162.7 239.5 169.0 227.0 175.0 214.5 180.5 202.0 185.5 189.5 190.3 177.0 194.9"/>
      <polyline points="502.0 96.0 489.5 100.3 477.0 104.5 464.5 107.9 452.0 110.2 439.5 110.6 427.0 109.3 414.5 107.2 402.0 106.2 389.5 107.7 377.0 111.9 364.5 117.5 352.0 122.8 339.5 127.5 327.0 132.0 314.5 137.4 302.0 144.5 289.5 153.3 277.0 162.9 264.5 172.3 252.0 180.7 239.5 187.7 227.0 193.7 214.5 199.0 202.0 203.8"/>
      <polyline points="527.0 105.0 514.5 109.4 502.0 113.7 489.5 117.8 477.0 121.2 464.5 123.7 452.0 125.0 439.5 125.2 427.0 124.5 414.5 122.7 402.0 120.2 389.5 117.6 377.0 116.1 364.5 116.9 352.0 120.7 339.5 127.6 327.0 137.4 314.5 149.6 302.0 162.8 289.5 175.4 277.0 186.2 264.5 195.0 252.0 201.9 239.5 207.7 227.0 212.7"/>
      <polyline points="552.0 114.0 539.5 118.3 527.0 122.5 514.5 125.9 502.0 128.1 489.5 128.3 477.0 126.2 464.5 122.4 452.0 117.8 439.5 113.2 427.0 109.4 414.5 107.4 402.0 108.4 389.5 113.3 377.0 121.4 364.5 131.9 352.0 144.1 339.5 157.6 327.0 171.4 314.5 184.2 302.0 195.1 289.5 203.9 277.0 210.9 264.5 216.7 252.0 221.7"/>
      <polyline points="577.0 122.9 564.5 127.2 552.0 130.8 539.5 133.0 527.0 132.4 514.5 127.8 502.0 119.1 489.5 108.4 477.0 99.9 464.5 96.9 452.0 100.3 439.5 108.7 427.0 119.7 414.5 131.5 402.0 143.4 389.5 154.9 377.0 166.3 364.5 177.7 352.0 188.7 339.5 198.7 327.0 207.4 314.5 214.6 302.0 220.7 289.5 226.0 277.0 230.8"/>
      <polyline points="602.0 131.9 589.5 136.1 577.0 139.6 564.5 141.5 552.0 140.3 539.5 134.6 527.0 124.5 514.5 112.8 502.0 104.6 489.5 104.0 477.0 111.5 464.5 124.0 452.0 137.5 439.5 150.0 427.0 161.6 414.5 173.0 402.0 184.4 389.5 195.1 377.0 204.7 364.5 212.7 352.0 219.5 339.5 225.3 327.0 230.5 314.5 235.3 302.0 239.9"/>
      <polyline points="627.0 140.9 614.5 145.3 602.0 149.2 589.5 152.3 577.0 153.5 564.5 152.2 552.0 148.3 539.5 143.3 527.0 139.7 514.5 139.1 502.0 141.2 489.5 144.5 477.0 148.0 464.5 153.0 452.0 161.6 439.5 174.2 427.0 189.0 414.5 203.0 402.0 214.4 389.5 223.0 377.0 229.6 364.5 235.0 352.0 239.8 339.5 244.4 327.0 249.0"/>
      <polyline points="652.0 150.0 639.5 154.4 627.0 158.8 614.5 162.9 602.0 166.4 589.5 169.2 577.0 171.2 564.5 172.4 552.0 172.9 539.5 172.6 527.0 170.6 514.5 166.8 502.0 163.1 489.5 162.9 477.0 168.9 464.5 181.1 452.0 196.6 439.5 211.5 427.0 223.5 414.5 232.4 402.0 238.9 389.5 244.2 377.0 248.9 364.5 253.5 352.0 258.0"/>
      <polyline points="677.0 159.0 664.5 163.5 652.0 168.0 639.5 172.4 627.0 176.8 614.5 181.0 602.0 185.0 589.5 188.7 577.0 191.7 564.5 193.5 552.0 193.6 539.5 192.3 527.0 191.0 514.5 192.0 502.0 196.9 489.5 205.6 477.0 216.4 464.5 226.9 452.0 235.8 439.5 242.7 427.0 248.4 414.5 253.3 402.0 258.0 389.5 262.5 377.0 267.0"/>
      <polyline points="702.0 168.0 689.5 172.5 677.0 177.0 664.5 181.5 652.0 186.0 639.5 190.5 627.0 194.9 614.5 199.2 602.0 203.3 589.5 207.1 577.0 210.2 564.5 213.0 552.0 215.7 539.5 219.1 527.0 223.7 514.5 229.5 502.0 235.8 489.5 242.0 477.0 247.8 464.5 253.0 452.0 257.8 439.5 262.4 427.0 267.0 414.5 271.5 402.0 276.0"/>
      <polyline points="402.0 60.0 414.5 64.5 427.0 69.0 439.5 73.4 452.0 77.9 464.5 82.4 477.0 86.9 489.5 91.4 502.0 96.0 514.5 100.5 527.0 105.0 539.5 109.5 552.0 114.0 564.5 118.4 577.0 122.9 589.5 127.4 602.0 131.9 614.5 136.4 627.0 140.9 639.5 145.5 652.0 150.0 664.5 154.5 677.0 159.0 689.5 163.5 702.0 168.0"/>
      <polyline points="372.0 70.6 384.5 74.9 397.0 79.0 409.5 83.1 422.0 87.2 434.5 91.6 447.0 96.2 459.5 101.0 472.0 106.0 484.5 110.8 497.0 115.4 509.5 119.8 522.0 123.9 534.5 127.9 547.0 131.9 559.5 136.1 572.0 140.7 584.5 145.6 597.0 150.6 609.5 155.6 622.0 160.5 634.5 165.2 647.0 169.8 659.5 174.3 672.0 178.8"/>
      <polyline points="342.0 80.0 354.5 82.6 367.0 84.2 379.5 85.2 392.0 86.6 404.5 89.8 417.0 95.4 429.5 102.8 442.0 110.7 454.5 117.8 467.0 123.3 479.5 126.8 492.0 128.4 504.5 128.7 517.0 129.1 529.5 131.2 542.0 136.1 554.5 143.8 567.0 152.7 579.5 161.3 592.0 168.8 604.5 174.9 617.0 180.2 629.5 185.0 642.0 189.6"/>
      <polyline points="312.0 87.7 324.5 86.5 337.0 82.2 349.5 76.0 362.0 71.3 374.5 71.9 387.0 79.5 399.5 92.5 412.0 106.8 424.5 118.5 437.0 125.2 449.5 126.0 462.0 121.5 474.5 113.7 487.0 106.4 499.5 104.4 512.0 110.7 524.5 124.7 537.0 142.4 549.5 159.2 562.0 172.5 574.5 182.2 587.0 189.3 599.5 195.0 612.0 200.1"/>
      <polyline points="282.0 98.0 294.5 96.2 307.0 90.9 319.5 83.6 332.0 77.7 344.5 77.5 357.0 84.6 369.5 97.1 382.0 110.0 394.5 118.8 407.0 121.3 419.5 117.9 432.0 110.8 444.5 103.1 457.0 98.2 469.5 99.2 482.0 107.7 494.5 122.5 507.0 140.1 519.5 157.1 532.0 171.6 544.5 183.7 557.0 193.8 569.5 202.1 582.0 209.0"/>
      <polyline points="252.0 111.9 264.5 113.8 277.0 114.2 289.5 113.6 302.0 113.2 314.5 114.4 327.0 117.5 339.5 121.1 352.0 122.8 364.5 121.1 377.0 116.1 389.5 110.6 402.0 108.4 414.5 111.7 427.0 119.7 439.5 129.2 452.0 137.5 464.5 143.4 477.0 148.0 489.5 153.8 502.0 163.1 514.5 176.2 527.0 191.0 539.5 204.7 552.0 215.7"/>
      <polyline points="222.0 124.5 234.5 128.5 247.0 132.2 259.5 135.5 272.0 138.1 284.5 139.8 297.0 140.0 309.5 138.1 322.0 133.9 334.5 128.2 347.0 123.1 359.5 121.3 372.0 125.3 384.5 135.2 397.0 148.0 409.5 159.5 422.0 166.1 434.0 167.5 447.0 166.3 459.5 167.0 472.0 173.1 484.5 185.1 497.0 200.0 509.5 214.3 522.0 225.9"/>
      <polyline points="192.0 135.6 204.5 140.0 217.0 144.3 229.5 148.3 242.0 151.7 254.5 154.1 267.0 154.9 279.5 153.9 292.0 151.4 304.5 148.5 317.0 147.1 329.5 148.9 342.0 154.8 354.5 164.4 367.0 175.4 379.5 185.6 392.0 193.1 404.5 197.6 417.0 200.4 429.5 203.5 442.0 208.7 454.5 216.2 467.0 224.9 479.5 233.4 492.0 240.8"/>
      <polyline points="162.0 146.4 174.5 150.9 187.0 155.3 199.5 159.6 212.0 163.7 224.5 167.3 237.0 170.3 249.5 172.5 262.0 174.1 274.5 175.6 287.0 177.7 299.5 181.3 312.0 186.5 324.5 193.2 337.0 200.6 349.5 207.8 362.0 214.2 374.5 219.7 387.0 224.5 399.5 229.1 412.0 233.8 424.5 238.8 437.0 243.9 449.5 249.0 462.0 254.0"/>
      <polyline points="132.0 157.2 144.5 161.7 157.0 166.2 169.5 170.6 182.0 175.0 194.5 179.4 207.0 183.5 219.5 187.6 232.0 191.5 244.5 195.3 257.0 199.3 269.5 203.7 282.0 208.3 294.5 213.3 307.0 218.4 319.5 223.5 332.0 228.5 344.5 233.3 357.0 237.9 369.5 242.5 382.0 247.0 394.5 251.6 407.0 256.1 419.5 260.7 432.0 265.2"/>
      <polyline points="102.0 168.0 114.5 172.5 127.0 177.0 139.5 181.5 152.0 186.0 164.5 190.5 177.0 194.9 189.5 199.4 202.0 203.8 214.5 208.3 227.0 212.7 239.5 217.2 252.0 221.7 264.5 226.2 277.0 230.8 289.5 235.4 302.0 239.9 314.5 244.5 327.0 249.0 339.5 253.5 352.0 258.0 364.5 262.5 377.0 267.0 389.5 271.5 402.0 276.0"/>
    </g>
  </g>
</svg>
